<svg width="156" height="217" viewBox="0 0 156 217" fill="none" xmlns="http://www.w3.org/2000/svg">
<path d="M97.8407 37.6869C96.9953 35.1381 94.8954 33.1593 92.5183 31.9282C91.1547 31.226 89.4275 30.3233 89.5548 28.7958C89.6593 27.5556 90.432 26.5161 90.8502 25.3671C91.2138 24.3412 90.2184 23.1876 89.5911 22.6724C87.2822 20.7802 83.0687 24.0038 82.6869 21.0446C82.3051 18.0855 86.1186 16.0884 85.6641 7.82201C85.6508 6.63326 85.4197 5.45709 84.9823 4.35221C84.105 2.2138 82.2142 0.417347 79.9416 0.066264C78.0099 -0.234664 76.0327 0.522216 74.4601 1.67122C72.8874 2.82022 71.433 5.14557 70.2148 6.68669L70.2603 7.14264L70.2103 6.68669C68.6876 5.45562 66.7786 3.49502 64.9924 2.71079C63.2061 1.92655 61.1198 1.61194 59.2972 2.31867C57.1519 3.15306 55.6883 5.31427 55.2883 7.58948C54.8883 9.86468 55.4428 12.222 56.4201 14.3148C56.7128 14.9331 57.0453 15.5316 57.4155 16.1067C58.1977 17.3277 59.1308 18.4446 60.1926 19.4306C65.1424 24.5327 72.8692 29.2609 78.9962 29.4022C80.2234 29.4341 81.7233 29.539 82.2415 30.6652C82.696 31.641 82.0279 32.7808 82.2142 33.8569C82.4779 35.3752 84.2959 36.0591 85.8504 36.0637C87.4049 36.0683 88.9912 35.6898 90.3956 36.2689C90.9786 36.5132 91.4881 36.9056 91.8739 37.4076C92.2596 37.9095 92.5084 38.5037 92.5955 39.1314C92.6827 39.7592 92.6053 40.3988 92.371 40.9874C92.1367 41.576 91.7535 42.0932 91.2592 42.4881C89.5139 43.8559 86.9731 43.3681 84.8959 44.1249C83.8158 44.5409 82.8884 45.2785 82.2384 46.2386C81.5884 47.1988 81.2469 48.3355 81.2597 49.4961C82.4824 47.1297 85.555 46.5096 88.2094 46.4594C90.8638 46.4093 93.7773 46.5916 95.8999 44.9867C98.0225 43.3817 98.6861 40.2311 97.8407 37.6869Z" fill="url(#paint0_linear_2692_2975)"/>
<g opacity="0.8">
<path d="M97.8417 37.6869C96.9963 35.1381 94.8964 33.1593 92.5192 31.9282C91.1557 31.226 89.4285 30.3233 89.5558 28.7958C89.6603 27.5556 90.433 26.5161 90.8511 25.3671C91.2148 24.3412 90.2194 23.1876 89.5921 22.6724C87.2831 20.7802 83.0697 24.0038 82.6879 21.0446C82.3061 18.0855 86.1196 16.0884 85.665 7.82201C85.6518 6.63326 85.4207 5.45709 84.9833 4.35221C84.106 2.2138 82.2152 0.417347 79.9426 0.066264C78.0109 -0.234664 76.0337 0.522216 74.4611 1.67122C72.8884 2.82022 71.4339 5.14557 70.2158 6.68669L70.2613 7.14264L70.2113 6.68669C68.6886 5.45562 66.7796 3.49502 64.9933 2.71079C63.2071 1.92655 61.1208 1.61194 59.2982 2.31867C57.1528 3.15306 55.6893 5.31427 55.2893 7.58948C54.8893 9.86468 55.4438 12.222 56.421 14.3148C56.7138 14.9331 57.0463 15.5316 57.4165 16.1067C58.1986 17.3277 59.1318 18.4446 60.1936 19.4306C65.1433 24.5327 72.8702 29.2609 78.9972 29.4022C80.2244 29.4341 81.7243 29.539 82.2425 30.6652C82.697 31.641 82.0289 32.7808 82.2152 33.8569C82.4788 35.3752 84.2969 36.0591 85.8514 36.0637C87.4059 36.0683 88.9921 35.6898 90.3966 36.2689C90.9796 36.5132 91.4891 36.9056 91.8749 37.4076C92.2606 37.9095 92.5093 38.5037 92.5965 39.1314C92.6837 39.7592 92.6063 40.3988 92.372 40.9874C92.1376 41.576 91.7545 42.0932 91.2602 42.4881C89.5148 43.8559 86.9741 43.3681 84.8969 44.1249C83.8168 44.5409 82.8894 45.2785 82.2394 46.2386C81.5894 47.1988 81.2479 48.3355 81.2607 49.4961C82.4834 47.1297 85.556 46.5096 88.2104 46.4594C90.8648 46.4093 93.7783 46.5916 95.9009 44.9867C98.0235 43.3817 98.6871 40.2311 97.8417 37.6869Z" fill="white"/>
</g>
<path d="M105.141 21.0536C104.565 20.7113 103.878 20.6082 103.227 20.7664C102.522 20.9916 101.845 21.2976 101.209 21.6783L101.159 21.8242L101.214 21.6691C100.943 20.9764 100.593 20.3171 100.173 19.704C99.7473 19.1882 99.1368 18.8607 98.4729 18.7921C98.0813 18.7855 97.6944 18.8781 97.348 19.0614C97.0016 19.2447 96.7069 19.5128 96.4912 19.8408C96.067 20.5061 95.856 21.2858 95.8867 22.0749C95.9083 23.1868 96.2377 24.2707 96.8381 25.2055C97.4385 26.1403 98.2862 26.8893 99.2865 27.3685C100.377 27.6042 101.511 27.5288 102.561 27.1508C103.611 26.7729 104.535 26.1075 105.227 25.2301C105.724 24.6181 106.026 23.8695 106.091 23.0826C106.114 22.6918 106.039 22.3014 105.873 21.947C105.707 21.5927 105.455 21.2856 105.141 21.0536Z" fill="url(#paint1_linear_2692_2975)"/>
<g opacity="0.8">
<path d="M105.141 21.0536C104.565 20.7113 103.878 20.6082 103.227 20.7664C102.522 20.9916 101.845 21.2976 101.209 21.6783L101.159 21.8242L101.214 21.6691C100.943 20.9764 100.593 20.3171 100.173 19.704C99.7473 19.1882 99.1368 18.8607 98.4729 18.7921C98.0813 18.7855 97.6944 18.8781 97.348 19.0614C97.0016 19.2447 96.7069 19.5128 96.4912 19.8408C96.067 20.5061 95.856 21.2858 95.8867 22.0749C95.9083 23.1868 96.2377 24.2707 96.8381 25.2055C97.4385 26.1403 98.2862 26.8893 99.2865 27.3685C100.377 27.6042 101.511 27.5288 102.561 27.1508C103.611 26.7729 104.535 26.1075 105.227 25.2301C105.724 24.6181 106.026 23.8695 106.091 23.0826C106.114 22.6918 106.039 22.3014 105.873 21.947C105.707 21.5927 105.455 21.2856 105.141 21.0536Z" fill="white"/>
</g>
<path d="M97.6772 7.17892C97.2505 7.00334 96.7721 7.00334 96.3454 7.17892C95.8832 7.3984 95.4497 7.67404 95.0546 7.99963L95.0318 8.09994L95.0546 7.99051C94.807 7.54192 94.5096 7.12282 94.1682 6.7412C93.8323 6.42257 93.3851 6.24901 92.9229 6.25789C92.6537 6.29047 92.3973 6.39129 92.1779 6.55084C91.9584 6.71039 91.783 6.92341 91.6684 7.1698C91.4367 7.66259 91.3621 8.21508 91.4548 8.75195C91.5722 9.50022 91.8938 10.2013 92.384 10.7775C92.8741 11.3537 93.5137 11.7826 94.2319 12.0166C94.9974 12.0782 95.7649 11.9239 96.4476 11.571C97.1303 11.2181 97.7011 10.6807 98.0953 10.0195C98.3788 9.55744 98.5166 9.02031 98.4908 8.47838C98.4749 8.21065 98.3921 7.95124 98.2499 7.72411C98.1077 7.49699 97.9107 7.30948 97.6772 7.17892Z" fill="url(#paint2_linear_2692_2975)"/>
<g opacity="0.8">
<path d="M97.6781 7.17916C97.2515 7.00358 96.773 7.00358 96.3464 7.17916C95.8842 7.39865 95.4507 7.67429 95.0555 7.99988L95.0328 8.10018L95.0555 7.99076C94.8079 7.54216 94.5106 7.12307 94.1692 6.74145C93.8333 6.42282 93.3861 6.24926 92.9238 6.25814C92.6547 6.29071 92.3983 6.39153 92.1788 6.55109C91.9593 6.71064 91.784 6.92365 91.6693 7.17004C91.4376 7.66284 91.363 8.21532 91.4557 8.75219C91.5732 9.50046 91.8948 10.2015 92.3849 10.7777C92.8751 11.3539 93.5147 11.7828 94.2329 12.0168C94.9984 12.0785 95.7659 11.9241 96.4486 11.5712C97.1313 11.2183 97.702 10.6809 98.0963 10.0197C98.3798 9.55769 98.5176 9.02055 98.4917 8.47862C98.4759 8.21089 98.3931 7.95148 98.2508 7.72436C98.1086 7.49724 97.9117 7.30973 97.6781 7.17916Z" fill="white"/>
</g>
<path d="M52.9161 24.9886C51.5753 25.2911 50.4066 26.1098 49.6618 27.2683C48.88 28.3809 48.4346 30.232 47.9664 31.5087L48.0982 31.8005L47.9618 31.495C46.6846 31.0391 44.9984 30.1636 43.6439 30.036C42.2815 29.8541 40.9024 30.2159 39.8032 31.0436C39.2105 31.5873 38.7644 32.2723 38.5062 33.0351C38.2479 33.7979 38.1859 34.6138 38.326 35.4071C38.628 36.9976 39.4065 38.4578 40.5577 39.5927C42.1514 41.2198 44.1654 42.3696 46.3739 42.9132C48.5823 43.4568 50.8981 43.3727 53.0616 42.6704V42.6932C55.0155 41.5022 56.5979 39.7861 57.6293 37.7392C58.6608 35.6923 59.1002 33.3966 58.8977 31.112C58.7847 29.4978 58.1837 27.9566 57.175 26.6938C56.665 26.0738 56.0074 25.5925 55.2631 25.2945C54.5188 24.9965 53.7117 24.8913 52.9161 24.9886Z" fill="url(#paint3_linear_2692_2975)"/>
<g opacity="0.8">
<path d="M52.9161 24.9886C51.5753 25.2911 50.4066 26.1098 49.6618 27.2683C48.88 28.3809 48.4346 30.232 47.9664 31.5087L48.0982 31.8005L47.9618 31.495C46.6846 31.0391 44.9984 30.1636 43.6439 30.036C42.2815 29.8541 40.9024 30.2159 39.8032 31.0436C39.2105 31.5873 38.7644 32.2723 38.5062 33.0351C38.2479 33.7979 38.1859 34.6138 38.326 35.4071C38.628 36.9976 39.4065 38.4578 40.5577 39.5927C42.1514 41.2198 44.1654 42.3696 46.3739 42.9132C48.5823 43.4568 50.8981 43.3727 53.0616 42.6704V42.6932C55.0155 41.5022 56.5979 39.7861 57.6293 37.7392C58.6608 35.6923 59.1002 33.3966 58.8977 31.112C58.7847 29.4978 58.1837 27.9566 57.175 26.6938C56.665 26.0738 56.0074 25.5925 55.2631 25.2945C54.5188 24.9965 53.7117 24.8913 52.9161 24.9886Z" fill="white"/>
</g>
<path d="M58.1659 64.6473C57.4942 64.6241 56.8407 64.8683 56.3478 65.3266C55.8418 65.8721 55.4009 66.475 55.0342 67.1231L55.0615 67.2735L55.0342 67.114C54.4608 66.6389 53.8357 66.2305 53.1707 65.8966C52.5499 65.6436 51.8552 65.6436 51.2344 65.8966C50.8891 66.0823 50.5958 66.3521 50.3814 66.6811C50.167 67.0101 50.0383 67.3878 50.0072 67.7797C49.9592 68.5661 50.1511 69.3485 50.5572 70.0229C51.109 70.992 51.9197 71.7872 52.8978 72.3189C53.8759 72.8506 54.9827 73.0976 56.0933 73.0322C57.1607 72.7072 58.1162 72.0892 58.852 71.248C59.5877 70.4068 60.0743 69.376 60.2567 68.2721C60.3949 67.5011 60.2966 66.7061 59.9749 65.9923C59.8118 65.6326 59.5602 65.3205 59.2438 65.0852C58.9273 64.8499 58.5564 64.6992 58.1659 64.6473Z" fill="url(#paint4_linear_2692_2975)"/>
<g opacity="0.8">
<path d="M58.1649 64.6475C57.4933 64.6243 56.8397 64.8685 56.3468 65.3269C55.8408 65.8724 55.3999 66.4753 55.0333 67.1233L55.0605 67.2738L55.0333 67.1142C54.4599 66.6392 53.8347 66.2308 53.1697 65.8968C52.5489 65.6439 51.8543 65.6439 51.2335 65.8968C50.8881 66.0826 50.5948 66.3523 50.3804 66.6813C50.166 67.0103 50.0373 67.3881 50.0062 67.7799C49.9583 68.5663 50.1501 69.3488 50.5562 70.0232C51.108 70.9922 51.9187 71.7874 52.8968 72.3191C53.875 72.8508 54.9817 73.0979 56.0923 73.0325C57.1597 72.7074 58.1153 72.0894 58.851 71.2482C59.5867 70.4071 60.0733 69.3763 60.2557 68.2723C60.3939 67.5013 60.2957 66.7064 59.9739 65.9926C59.8108 65.6329 59.5592 65.3207 59.2428 65.0854C58.9263 64.8501 58.5554 64.6994 58.1649 64.6475Z" fill="white"/>
</g>
<path d="M55.143 49.3591C54.7017 49.493 54.331 49.7961 54.1112 50.2026C53.904 50.6729 53.7515 51.1655 53.6567 51.6708L53.7067 51.762L53.6521 51.6662C53.1744 51.4832 52.6772 51.3562 52.1704 51.2878C51.941 51.277 51.7116 51.3117 51.4956 51.3899C51.2795 51.4681 51.081 51.5884 50.9114 51.7438C50.7268 51.9412 50.595 52.1823 50.5282 52.4446C50.4615 52.7068 50.462 52.9818 50.5296 53.2438C50.6724 53.7672 50.9704 54.2347 51.3841 54.5843C51.9594 55.0873 52.6629 55.4197 53.4158 55.5445C54.1688 55.6694 54.9415 55.5816 55.6475 55.2911C56.2721 54.8433 56.7585 54.2283 57.051 53.5163C57.3436 52.8044 57.4306 52.0242 57.302 51.265C57.2225 50.727 56.9815 50.226 56.6111 49.8288C56.4256 49.6328 56.1938 49.4871 55.9371 49.405C55.6805 49.3229 55.4073 49.3071 55.143 49.3591Z" fill="url(#paint5_linear_2692_2975)"/>
<g opacity="0.8">
<path d="M55.143 49.3591C54.7017 49.493 54.331 49.7961 54.1112 50.2026C53.904 50.6729 53.7515 51.1655 53.6567 51.6708L53.7067 51.762L53.6521 51.6662C53.1744 51.4832 52.6772 51.3562 52.1704 51.2878C51.941 51.277 51.7116 51.3117 51.4956 51.3899C51.2795 51.4681 51.081 51.5884 50.9114 51.7438C50.7268 51.9412 50.595 52.1823 50.5282 52.4446C50.4615 52.7068 50.462 52.9818 50.5296 53.2438C50.6724 53.7672 50.9704 54.2347 51.3841 54.5843C51.9594 55.0873 52.6629 55.4197 53.4158 55.5445C54.1688 55.6694 54.9415 55.5816 55.6475 55.2911C56.2721 54.8433 56.7585 54.2283 57.051 53.5163C57.3436 52.8044 57.4306 52.0242 57.302 51.265C57.2225 50.727 56.9815 50.226 56.6111 49.8288C56.4256 49.6328 56.1938 49.4871 55.9371 49.405C55.6805 49.3229 55.4073 49.3071 55.143 49.3591Z" fill="white"/>
</g>
<path d="M98.5547 72.0518C98.1265 71.876 97.6466 71.876 97.2184 72.0518C96.7563 72.2713 96.3227 72.5469 95.9276 72.8725L95.9048 72.9774L95.9276 72.8634C95.6718 72.4144 95.3669 71.9954 95.0185 71.6141C94.6832 71.2974 94.2382 71.1241 93.7777 71.1308C93.5078 71.1626 93.2504 71.2631 93.0301 71.4227C92.8098 71.5823 92.6337 71.7957 92.5187 72.0427C92.289 72.5345 92.2145 73.0849 92.305 73.6203C92.4169 74.3781 92.7381 75.0894 93.2321 75.6736C93.7261 76.2578 94.3733 76.6916 95.1003 76.926C95.8656 76.99 96.6333 76.8366 97.3157 76.4834C97.9982 76.1303 98.5677 75.5915 98.9592 74.9289C99.2448 74.4677 99.3828 73.9299 99.3547 73.3878C99.3459 73.1152 99.2678 72.8493 99.1277 72.6155C98.9877 72.3817 98.7905 72.1877 98.5547 72.0518Z" fill="url(#paint6_linear_2692_2975)"/>
<g opacity="0.8">
<path d="M98.5547 72.0518C98.1265 71.876 97.6466 71.876 97.2184 72.0518C96.7563 72.2713 96.3227 72.5469 95.9276 72.8725L95.9048 72.9774L95.9276 72.8634C95.6718 72.4144 95.3669 71.9954 95.0185 71.6141C94.6832 71.2974 94.2382 71.1241 93.7777 71.1308C93.5078 71.1626 93.2504 71.2631 93.0301 71.4227C92.8098 71.5823 92.6337 71.7957 92.5187 72.0427C92.289 72.5345 92.2145 73.0849 92.305 73.6203C92.4169 74.3781 92.7381 75.0894 93.2321 75.6736C93.7261 76.2578 94.3733 76.6916 95.1003 76.926C95.8656 76.99 96.6333 76.8366 97.3157 76.4834C97.9982 76.1303 98.5677 75.5915 98.9592 74.9289C99.2448 74.4677 99.3828 73.9299 99.3547 73.3878C99.3459 73.1152 99.2678 72.8493 99.1277 72.6155C98.9877 72.3817 98.7905 72.1877 98.5547 72.0518Z" fill="white"/>
</g>
<path d="M130.99 82.9129C110.664 65.9196 89.065 84.1896 89.065 84.1896L89.1287 64.5836C89.1741 64.4742 89.215 64.4651 89.256 64.456C90.5888 64.1797 91.7858 63.4504 92.6446 62.3912C93.5034 61.332 93.9713 60.0079 93.9694 58.6426V48.4429C93.5148 43.4958 78.0611 43.5688 77.1247 43.5779C73.8749 43.6189 62.3891 44.0658 61.9755 48.4429V58.6608C61.9733 60.0255 62.4406 61.3491 63.2985 62.4082C64.1564 63.4673 65.3523 64.1971 66.6844 64.4742L66.8162 64.5016L66.8752 83.5193C66.8752 83.5193 42.2719 64.4423 24.1728 82.3931C6.84189 99.5871 21.623 127.045 29.3862 138.188C36.3768 148.219 65.1253 174.906 77.7202 175.877C89.9059 175.517 115.073 153.079 121.404 145.606C132.163 132.926 151.316 99.9017 130.99 82.9129Z" fill="#FAFAFA"/>
<path d="M130.99 82.9129L131.444 83.2959L132.717 84.454C134.307 86.0279 135.675 87.8119 136.785 89.7567C138.533 92.9212 139.588 96.4233 139.88 100.029C140.063 102.307 140.037 104.596 139.803 106.869C139.505 109.432 139.009 111.969 138.321 114.456C136.686 120.251 134.363 125.83 131.403 131.071C129.753 134.049 127.95 136.941 126.004 139.734C123.941 142.763 121.634 145.616 119.104 148.265C116.481 150.973 113.627 153.622 110.623 156.262C107.618 158.902 104.441 161.519 101.078 164.059C97.6491 166.69 94.0655 169.111 90.3463 171.308C88.4162 172.441 86.4152 173.448 84.3557 174.322C82.2547 175.251 80.0129 175.818 77.7242 176C75.8297 175.777 73.9799 175.267 72.2381 174.486C70.4662 173.715 68.7419 172.838 67.0747 171.86C63.6704 169.841 60.3904 167.618 57.2525 165.203C50.6846 160.172 44.4589 154.707 38.6171 148.844C35.5534 145.834 32.6797 142.637 30.0129 139.269C27.4436 135.701 25.1492 131.942 23.1496 128.025C21.0794 124.048 19.3813 119.887 18.0772 115.596C16.7083 111.237 16.0079 106.696 16 102.127C16.0183 99.1225 16.4777 96.1374 17.3636 93.2676C18.2645 90.4273 19.6485 87.7648 21.4543 85.3978C23.2319 83.0577 25.3492 80.9982 27.7358 79.2881C30.0981 77.5967 32.738 76.3343 35.5354 75.5584C38.2959 74.8024 41.1593 74.4946 44.0168 74.6465C46.8264 74.8163 49.6069 75.312 52.3027 76.1238C57.5552 77.7355 62.5074 80.2033 66.9611 83.4281L66.7702 83.5193C66.752 77.0326 66.7338 70.6934 66.7156 64.5015L66.8065 64.611C66.0167 64.4696 65.2633 64.1698 64.5917 63.7295C63.92 63.2892 63.3438 62.7175 62.8977 62.0485C62.4596 61.3848 62.1511 60.6437 61.9886 59.8645C61.869 59.0941 61.8278 58.3134 61.8659 57.5346C61.8659 54.4584 61.8659 51.4279 61.8659 48.4429C61.9156 48.0327 62.0519 47.6379 62.2659 47.2848C62.4847 46.939 62.7579 46.631 63.0749 46.3729C63.6995 45.8817 64.3975 45.4924 65.143 45.2193C66.592 44.6779 68.0943 44.2927 69.6246 44.0703C71.1382 43.8287 72.6472 43.6782 74.1426 43.5825C75.6379 43.4867 77.1333 43.4411 78.6059 43.4821C81.5018 43.5245 84.3896 43.799 87.2419 44.3029C88.6322 44.5514 89.9916 44.9504 91.2962 45.4929C91.9419 45.7703 92.5413 46.1455 93.0734 46.6054C93.6199 47.0685 93.9761 47.7182 94.0734 48.4292C94.0734 51.706 94.0734 54.887 94.0734 57.9723C94.1153 58.7467 94.0402 59.523 93.8506 60.2749C93.6421 61.013 93.2984 61.7057 92.8371 62.3175C92.3831 62.9212 91.8166 63.4307 91.169 63.8176C90.8507 64.01 90.5142 64.1704 90.1645 64.2964C89.9908 64.3621 89.8132 64.4169 89.6327 64.4605L89.3645 64.5289C89.2463 64.5608 89.26 64.5289 89.2236 64.6201V64.5882C89.1963 71.7238 89.1691 78.2211 89.1463 84.1941L89.0282 84.1394C90.4066 83.0386 91.8634 82.0405 93.387 81.1529C94.8173 80.3074 96.2955 79.5462 97.8141 78.8732C100.571 77.6111 103.471 76.6924 106.45 76.1374C109.014 75.654 111.631 75.5144 114.231 75.7225C116.397 75.8912 118.534 76.3245 120.595 77.0129C121.536 77.2864 122.372 77.6786 123.172 77.9886C123.972 78.2987 124.676 78.709 125.34 79.0464L127.122 80.086L128.526 81.0389C128.735 81.1848 128.935 81.3125 129.117 81.4447L129.603 81.8277L130.358 82.425C130.762 82.7442 130.962 82.9129 130.962 82.9129L130.344 82.4569L129.585 81.8733L129.094 81.4903L128.503 81.0891L127.094 80.1453L125.313 79.1194C124.649 78.7865 123.926 78.4263 123.145 78.0707C122.363 77.715 121.508 77.3776 120.572 77.1086C118.51 76.4276 116.373 76.002 114.209 75.8411C111.613 75.6382 109.002 75.7839 106.445 76.2742C103.489 76.8192 100.609 77.7209 97.8686 78.9598C96.3554 79.6347 94.8818 80.3959 93.4552 81.2396C91.9429 82.1295 90.4954 83.126 89.1236 84.2215L89.0009 84.3218V84.1622C89.0009 78.2075 89.0327 71.7101 89.0509 64.5563V64.5243C89.0728 64.4638 89.1124 64.4114 89.1645 64.3739C89.2142 64.352 89.266 64.3352 89.3191 64.3237L89.5827 64.2599C89.7575 64.2192 89.9292 64.1659 90.0963 64.1003C90.4339 63.979 90.7596 63.8263 91.069 63.6444C91.698 63.2685 92.2477 62.7729 92.6871 62.1853C93.1326 61.5901 93.4654 60.9178 93.6688 60.2019C93.8523 59.4661 93.9244 58.7068 93.8825 57.9495C93.8825 54.8612 93.8825 51.6802 93.8825 48.4064C93.791 47.743 93.4554 47.1379 92.9416 46.7103C92.4265 46.2629 91.8454 45.8984 91.219 45.6297C89.9266 45.0967 88.5812 44.7038 87.2055 44.4579C84.3635 43.9591 81.4864 43.6877 78.6014 43.6463C77.1333 43.6098 75.6516 43.6463 74.1562 43.7512C72.6608 43.856 71.1609 43.9974 69.661 44.239C68.1447 44.4605 66.6562 44.8426 65.2203 45.3789C64.4995 45.6462 63.8248 46.0246 63.2204 46.5005C62.9243 46.7409 62.6668 47.0254 62.4568 47.3441C62.2621 47.6685 62.1382 48.0305 62.0931 48.4064V57.53C62.0542 58.2922 62.0953 59.0563 62.2159 59.8098C62.3672 60.5601 62.662 61.2739 63.084 61.9117C63.5127 62.5556 64.0666 63.106 64.7125 63.5299C65.3585 63.9537 66.0831 64.2424 66.8429 64.3784H66.9384V64.4787C66.9565 70.6675 66.9778 77.0068 67.002 83.4965V83.7336L66.8111 83.5923C62.3749 80.3763 57.4431 77.9118 52.2118 76.297C49.5295 75.4999 46.7643 75.0164 43.9713 74.8562C41.1395 74.7108 38.3026 75.0186 35.5672 75.7681C32.7968 76.5406 30.182 77.7919 27.8403 79.4659C25.474 81.1618 23.375 83.2044 21.6134 85.5255C19.8278 87.8702 18.4621 90.5084 17.5772 93.3223C16.695 96.168 16.2356 99.1285 16.2136 102.108C16.2254 106.653 16.9211 111.169 18.2772 115.504C19.5796 119.78 21.2731 123.925 23.336 127.888C25.3266 131.794 27.6135 135.541 30.1766 139.095C32.8323 142.466 35.6985 145.664 38.758 148.67C44.5874 154.529 50.801 159.99 57.357 165.016C60.4877 167.427 63.7601 169.647 67.1565 171.664C68.8161 172.636 70.531 173.51 72.2926 174.281C74.0133 175.051 75.8397 175.557 77.7105 175.781C79.9726 175.601 82.1883 175.04 84.2648 174.122C86.3159 173.255 88.308 172.255 90.2281 171.126C93.9408 168.933 97.5197 166.52 100.946 163.899C104.309 161.364 107.477 158.747 110.491 156.116C113.504 153.485 116.345 150.841 118.972 148.137C121.492 145.501 123.795 142.665 125.858 139.656C127.802 136.862 129.603 133.971 131.253 130.993C134.215 125.768 136.542 120.205 138.185 114.424C138.876 111.94 139.378 109.406 139.685 106.846C139.918 104.584 139.948 102.306 139.776 100.038C139.492 96.4436 138.451 92.95 136.721 89.7887C135.619 87.8457 134.263 86.0593 132.69 84.4768L131.426 83.3096C131.131 83.0634 130.99 82.9129 130.99 82.9129Z" fill="#263238"/>
<path d="M69.9384 65.1626H86.7557V92.4969C86.7557 92.4969 88.0966 91.3297 88.8056 90.7005C88.8056 90.7005 109.391 71.2541 127.117 86.027C145.535 101.37 127.304 131.084 117.572 142.565C111.845 149.318 89.0693 169.63 78.0289 169.954C66.6295 169.074 39.5899 142.948 34.2947 135.853C28.3859 127.911 11.5686 99.8925 29.9631 84.5269C46.9168 70.365 67.5476 89.6108 67.5476 89.6108L70.1429 92.1823L69.943 65.1717" fill="#F5F5F5"/>
<path d="M93.8008 48.4977C93.8008 51.2562 86.8466 53.6637 78.0652 53.6637C69.2838 53.6637 61.9433 51.4204 62.1569 48.6482C62.4205 45.3608 69.2793 43.6555 78.0652 43.6555C86.8511 43.6555 93.8008 45.7438 93.8008 48.4977Z" fill="#EBEBEB"/>
<path d="M75.9836 105.861C44.9579 96.7419 27.8451 109.021 23.6771 112.618C23.3184 112.929 23.0774 113.355 22.9946 113.823C22.9118 114.291 22.9923 114.774 23.2226 115.19C25.1725 118.728 33.9357 127.044 73.3019 130.487C121.536 134.704 134.981 105.364 134.981 105.364C134.981 105.364 112.045 116.425 75.9836 105.861Z" fill="url(#paint7_linear_2692_2975)"/>
<path d="M23.3271 115.404C26.2861 123.032 30.5677 130.163 33.9993 135.247C41.1081 145.78 66.3341 168.472 77.7335 169.348C88.7557 169.024 111.527 148.711 117.277 141.963C123.754 134.331 132.108 122.886 135.003 105.346C135.003 105.346 115.604 118.454 110.332 118.308C87.7239 117.716 23.3271 115.404 23.3271 115.404Z" fill="url(#paint8_linear_2692_2975)"/>
<g opacity="0.4">
<path d="M75.9836 105.861C44.9579 96.7419 27.8451 109.021 23.6771 112.618C23.3184 112.929 23.0774 113.355 22.9946 113.823C22.9118 114.291 22.9923 114.774 23.2226 115.19C25.1725 118.728 33.9357 127.044 73.3019 130.487C121.536 134.704 134.981 105.364 134.981 105.364C134.981 105.364 112.045 116.425 75.9836 105.861Z" fill="white"/>
</g>
<g opacity="0.2">
<path d="M98.9366 137.061C97.9955 136.646 96.9288 136.619 95.9686 136.989C95.005 137.312 93.9232 138.229 93.0778 138.812L93.0323 139.045L93.0778 138.799C92.5233 137.951 91.8824 136.683 91.1234 136.004C90.3812 135.292 89.3911 134.899 88.3644 134.909C87.7695 134.972 87.1999 135.184 86.7082 135.526C86.2165 135.868 85.8185 136.329 85.5509 136.865C85.031 137.957 84.8565 139.182 85.0509 140.376C85.2941 142.064 86.0007 143.65 87.0916 144.958C88.1825 146.266 89.6147 147.243 91.2279 147.781C92.9325 147.931 94.6449 147.599 96.1712 146.823C97.6974 146.047 98.9766 144.858 99.8638 143.39C100.509 142.367 100.826 141.171 100.773 139.961C100.735 139.362 100.546 138.782 100.225 138.275C99.9043 137.768 99.4611 137.351 98.9366 137.061Z" fill="black"/>
</g>
<g opacity="0.1">
<path d="M78.469 140.472C77.9566 140.577 77.506 140.88 77.2145 141.316C76.9295 141.821 76.7038 142.358 76.5418 142.916L76.5918 143.026L76.5418 142.912C76.0226 142.653 75.475 142.455 74.9101 142.323C74.3941 142.247 73.8687 142.376 73.4465 142.684C73.2184 142.886 73.0448 143.143 72.9415 143.431C72.8383 143.718 72.8087 144.028 72.8557 144.33C72.9574 144.936 73.243 145.497 73.6738 145.935C74.267 146.565 75.0239 147.016 75.8591 147.237C76.6944 147.459 77.5747 147.442 78.4008 147.188C79.1518 146.75 79.7651 146.109 80.1709 145.339C80.5767 144.568 80.7587 143.699 80.6962 142.829C80.6664 142.216 80.449 141.627 80.0735 141.142C79.8831 140.905 79.6365 140.72 79.3563 140.603C79.076 140.485 78.771 140.441 78.469 140.472Z" fill="black"/>
</g>
<g opacity="0.1">
<path d="M111.909 134.745C111.422 134.593 110.894 134.639 110.441 134.873C109.961 135.171 109.518 135.523 109.118 135.922V136.036V135.917C108.797 135.451 108.423 135.024 108.004 134.645C107.597 134.337 107.087 134.2 106.582 134.262C106.292 134.326 106.023 134.463 105.8 134.66C105.577 134.857 105.408 135.108 105.309 135.388C105.112 135.954 105.092 136.567 105.254 137.144C105.468 137.96 105.903 138.701 106.511 139.283C107.12 139.866 107.877 140.268 108.7 140.445C109.546 140.423 110.369 140.165 111.076 139.699C111.783 139.233 112.347 138.579 112.704 137.809C112.965 137.27 113.055 136.664 112.963 136.072C112.912 135.78 112.789 135.506 112.604 135.274C112.42 135.042 112.181 134.861 111.909 134.745Z" fill="black"/>
</g>
<g opacity="0.2">
<path d="M90.8374 150.325C90.4907 150.391 90.1828 150.588 89.9783 150.877C89.7868 151.216 89.6344 151.575 89.5238 151.948L89.5556 152.021L89.5238 151.944C89.1771 151.764 88.8111 151.625 88.4329 151.529C88.0869 151.471 87.732 151.55 87.4421 151.748C87.2843 151.881 87.1628 152.052 87.0889 152.245C87.015 152.438 86.991 152.646 87.0194 152.851C87.08 153.261 87.2658 153.642 87.5512 153.941C87.9434 154.376 88.4495 154.692 89.0119 154.854C89.5743 155.015 90.1706 155.015 90.7328 154.853C91.2444 154.568 91.6659 154.144 91.9496 153.631C92.2332 153.118 92.3675 152.535 92.3373 151.948C92.3246 151.533 92.185 151.132 91.9373 150.799C91.8093 150.633 91.6411 150.502 91.4486 150.419C91.2562 150.336 91.0458 150.304 90.8374 150.325Z" fill="white"/>
</g>
<g opacity="0.2">
<path d="M64.8524 150.489C64.6962 150.412 64.5263 150.366 64.3524 150.354C64.1785 150.342 64.004 150.365 63.8388 150.421C63.4779 150.571 63.1361 150.764 62.8207 150.995V151.073V150.991C62.6516 150.639 62.441 150.308 62.1935 150.006C61.9559 149.754 61.6297 149.605 61.2844 149.591C61.0791 149.603 60.8802 149.668 60.7067 149.779C60.5333 149.889 60.391 150.043 60.2936 150.225C60.0998 150.589 60.022 151.005 60.0708 151.415C60.1274 151.997 60.3451 152.551 60.6993 153.015C61.0536 153.479 61.5302 153.835 62.0753 154.041C62.6556 154.119 63.2461 154.033 63.7796 153.791C64.3132 153.549 64.7684 153.162 65.0933 152.673C65.329 152.334 65.4544 151.929 65.4524 151.515C65.4482 151.307 65.3908 151.103 65.2858 150.924C65.1808 150.744 65.0315 150.595 64.8524 150.489Z" fill="white"/>
</g>
<g opacity="0.2">
<path d="M75.0978 134.175C74.8174 133.962 74.4657 133.866 74.1161 133.906C73.7348 133.984 73.364 134.106 73.0116 134.271L72.9752 134.344L73.0116 134.267C72.9116 133.889 72.7698 133.523 72.5889 133.177C72.4966 133.028 72.376 132.9 72.2341 132.798C72.0921 132.696 71.9316 132.623 71.7616 132.584C71.5581 132.555 71.3505 132.578 71.1587 132.652C70.9669 132.727 70.7973 132.849 70.6662 133.008C70.4026 133.328 70.2438 133.721 70.2117 134.134C70.1541 134.715 70.2588 135.3 70.5141 135.824C70.7694 136.349 71.1651 136.791 71.6571 137.103C72.2122 137.288 72.8076 137.316 73.3777 137.184C73.9479 137.053 74.4707 136.765 74.8887 136.355C75.1837 136.065 75.3862 135.693 75.4705 135.288C75.5056 135.086 75.4899 134.878 75.4248 134.684C75.3598 134.49 75.2473 134.315 75.0978 134.175Z" fill="white"/>
</g>
<g opacity="0.2">
<path d="M119.231 126.287C118.897 126.398 118.619 126.633 118.454 126.944C118.298 127.303 118.185 127.68 118.117 128.066L118.158 128.134L118.113 128.061C117.748 127.925 117.368 127.833 116.981 127.787C116.807 127.779 116.634 127.804 116.47 127.863C116.306 127.922 116.156 128.012 116.027 128.129C115.888 128.282 115.789 128.467 115.74 128.668C115.691 128.869 115.692 129.079 115.745 129.278C115.861 129.675 116.092 130.027 116.409 130.291C116.851 130.67 117.391 130.918 117.967 131.006C118.543 131.095 119.131 131.021 119.667 130.792C120.139 130.444 120.504 129.97 120.72 129.425C120.937 128.879 120.998 128.284 120.895 127.705C120.829 127.295 120.641 126.915 120.354 126.616C120.208 126.472 120.03 126.367 119.834 126.309C119.638 126.252 119.431 126.245 119.231 126.287Z" fill="white"/>
</g>
<g opacity="0.2">
<path d="M49.108 138.73C48.8276 138.517 48.4758 138.421 48.1262 138.461C47.7442 138.539 47.3721 138.66 47.0171 138.822C46.9215 138.442 46.7811 138.074 46.599 137.727C46.4113 137.43 46.114 137.218 45.7718 137.139C45.5676 137.11 45.3593 137.133 45.1668 137.208C44.9743 137.282 44.8039 137.404 44.6718 137.563C44.4099 137.884 44.2514 138.276 44.2173 138.689C44.1601 139.27 44.2655 139.856 44.5216 140.38C44.7777 140.905 45.1744 141.347 45.6672 141.658C46.2216 141.846 46.8175 141.876 47.3877 141.743C47.9579 141.61 48.4798 141.32 48.8943 140.905C49.1931 140.62 49.3963 140.249 49.4761 139.843C49.5122 139.641 49.4974 139.434 49.4331 139.24C49.3688 139.045 49.257 138.87 49.108 138.73Z" fill="white"/>
</g>
<g opacity="0.1">
<path d="M41.7712 129.174C41.2856 129.021 40.7597 129.067 40.3076 129.301C39.8269 129.597 39.3829 129.949 38.9849 130.35V130.469V130.345C38.6613 129.882 38.2862 129.457 37.8668 129.078C37.463 128.767 36.9538 128.628 36.4487 128.69C36.1586 128.755 35.8895 128.892 35.6663 129.089C35.443 129.286 35.2729 129.536 35.1715 129.817C34.9764 130.383 34.9573 130.995 35.117 131.572C35.3301 132.39 35.7656 133.132 36.3748 133.715C36.9839 134.299 37.7429 134.701 38.5668 134.878C39.4131 134.855 40.2364 134.596 40.9439 134.13C41.6514 133.664 42.215 133.008 42.5711 132.238C42.8303 131.698 42.9191 131.092 42.8257 130.5C42.7752 130.208 42.6521 129.933 42.4678 129.702C42.2835 129.47 42.0439 129.288 41.7712 129.174Z" fill="black"/>
</g>
<g opacity="0.2">
<path d="M65.2057 138.69C64.4934 138.227 63.6283 138.063 62.7968 138.234C61.965 138.361 60.956 138.959 60.1878 139.305L60.1151 139.488L60.1924 139.292C59.8515 138.521 59.506 137.399 58.9788 136.743C58.7305 136.401 58.417 136.112 58.0565 135.893C57.6961 135.674 57.2958 135.529 56.8789 135.466C56.3832 135.435 55.8879 135.531 55.4389 135.744C54.9899 135.957 54.6019 136.28 54.3108 136.683C53.7312 137.501 53.414 138.476 53.4018 139.478C53.3666 140.889 53.7239 142.282 54.4336 143.5C55.1433 144.719 56.1773 145.715 57.4198 146.377C58.7885 146.736 60.2302 146.704 61.5814 146.283C62.9327 145.863 64.1394 145.071 65.0648 143.997C65.7306 143.251 66.1539 142.319 66.2784 141.325C66.3349 140.831 66.2662 140.33 66.0787 139.869C65.8912 139.409 65.591 139.003 65.2057 138.69Z" fill="black"/>
</g>
<g opacity="0.2">
<path d="M81.9106 157.228C81.3316 156.847 80.6269 156.708 79.9471 156.841C79.2065 157.049 78.4926 157.343 77.8199 157.716L77.7608 157.862L77.8199 157.707C77.5738 156.978 77.2428 156.28 76.8336 155.628C76.4218 155.067 75.806 154.692 75.12 154.584C74.7158 154.56 74.312 154.639 73.9459 154.813C73.5798 154.986 73.263 155.249 73.0247 155.578C72.558 156.247 72.3044 157.041 72.2975 157.858C72.2716 159.011 72.5667 160.148 73.1496 161.142C73.7325 162.136 74.5801 162.947 75.5973 163.484C76.7132 163.776 77.8882 163.748 78.9894 163.405C80.0906 163.062 81.0741 162.416 81.8288 161.542C82.3738 160.934 82.7197 160.173 82.8197 159.362C82.8609 158.958 82.7992 158.551 82.6401 158.178C82.4811 157.804 82.2301 157.478 81.9106 157.228Z" fill="black"/>
</g>
<path d="M111.622 114.852L111.409 114.912L110.777 115.071C110.499 115.135 110.159 115.231 109.75 115.313L108.331 115.577C105.304 116.063 102.235 116.234 99.1728 116.088C94.6367 115.84 90.1307 115.197 85.7052 114.168C80.7055 113.069 75.2785 111.515 69.5333 110.138C63.7882 108.761 58.2203 107.79 53.1023 107.694C48.5655 107.555 44.0362 108.152 39.6894 109.463C36.7747 110.365 34.0154 111.71 31.508 113.452L30.3535 114.31C30.0217 114.565 29.7626 114.807 29.5399 114.984L29.0445 115.404L28.8672 115.541C28.8672 115.541 28.9217 115.481 29.0263 115.386L29.5081 114.93C29.7262 114.743 29.9626 114.497 30.308 114.232L31.4534 113.357C33.9505 111.569 36.7111 110.185 39.6348 109.253C43.991 107.916 48.5351 107.3 53.0887 107.429C58.2294 107.511 63.82 108.487 69.5697 109.86C75.3194 111.232 80.7373 112.8 85.7325 113.908C90.1457 114.946 94.639 115.605 99.1637 115.878C102.216 116.038 105.276 115.893 108.3 115.445L109.718 115.203C110.127 115.126 110.468 115.044 110.749 114.984L111.381 114.852H111.622Z" fill="white"/>
<path d="M118.717 115.358C118.62 115.457 118.513 115.547 118.399 115.627L117.454 116.348L116.768 116.877C116.513 117.064 116.227 117.251 115.922 117.46C115.309 117.875 114.631 118.372 113.827 118.828L112.586 119.594C112.131 119.859 111.677 120.1 111.222 120.365C110.272 120.912 109.213 121.409 108.109 121.951C103.266 124.208 98.1216 125.744 92.8369 126.511C91.6188 126.666 90.4643 126.83 89.3735 126.894C88.828 126.935 88.3008 126.99 87.7963 127.008L86.3372 127.054C85.4282 127.104 84.5691 127.054 83.8283 127.054C83.4601 127.054 83.1192 127.054 82.8011 127.031L81.942 126.967L80.7466 126.876C80.6078 126.868 80.4696 126.851 80.333 126.826C80.4721 126.814 80.612 126.814 80.7512 126.826L81.9466 126.871L82.8056 126.912C83.1238 126.912 83.4647 126.912 83.8328 126.912C84.5692 126.912 85.4055 126.94 86.3327 126.88L87.7826 126.821C88.2871 126.794 88.8098 126.734 89.3553 126.693C90.4416 126.62 91.5915 126.447 92.8051 126.283C95.4291 125.873 98.0238 125.293 100.573 124.546C103.112 123.771 105.597 122.829 108.013 121.728C109.118 121.195 110.177 120.707 111.122 120.173C111.6 119.909 112.072 119.672 112.509 119.416L113.754 118.669C114.559 118.213 115.245 117.72 115.863 117.301C116.168 117.096 116.458 116.913 116.718 116.735L117.418 116.225L118.386 115.532C118.493 115.468 118.604 115.41 118.717 115.358Z" fill="white"/>
<path d="M125.049 127.988C125.029 128.031 125.006 128.072 124.981 128.111L124.763 128.449L123.917 129.744C123.549 130.309 123.09 130.993 122.526 131.768C121.963 132.543 121.354 133.441 120.613 134.39L119.467 135.89C119.067 136.41 118.626 136.934 118.181 137.486C117.304 138.594 116.304 139.729 115.263 140.933C113.14 143.304 110.718 145.83 108.041 148.337C105.364 150.845 102.655 153.075 100.141 155.022C98.8684 155.979 97.6684 156.896 96.5049 157.694C95.9231 158.095 95.3731 158.501 94.8231 158.861L93.2459 159.9C92.2505 160.571 91.3097 161.122 90.5188 161.624C89.7279 162.125 88.9961 162.536 88.4053 162.864L87.0417 163.616L86.6872 163.808L86.5645 163.867C86.5991 163.836 86.6372 163.808 86.6781 163.785L87.019 163.575L88.3462 162.777C88.9234 162.44 89.6279 162.021 90.4324 161.505C91.237 160.99 92.1687 160.434 93.1596 159.75L94.7277 158.706C95.2686 158.336 95.8185 157.931 96.3958 157.525C97.5548 156.722 98.7457 155.801 100.032 154.844C102.532 152.888 105.214 150.649 107.9 148.16C110.586 145.67 112.995 143.144 115.118 140.778C116.163 139.583 117.167 138.457 118.049 137.354C118.504 136.806 118.958 136.287 119.345 135.771L120.499 134.285C121.249 133.341 121.863 132.461 122.444 131.686C123.026 130.911 123.485 130.245 123.863 129.689L124.749 128.421C124.849 128.289 124.926 128.18 124.985 128.093C125.003 128.056 125.025 128.021 125.049 127.988Z" fill="white"/>
<path d="M134.98 105.346C134.98 105.346 134.939 105.446 134.849 105.642L134.453 106.495L134.158 107.124C134.039 107.352 133.894 107.58 133.744 107.858C133.412 108.471 133.048 109.066 132.653 109.641C132.435 109.969 132.199 110.316 131.958 110.676L131.117 111.788C130.967 111.975 130.817 112.171 130.662 112.367C130.508 112.563 130.326 112.746 130.158 112.942C129.808 113.329 129.472 113.753 129.076 114.15C127.328 115.988 125.421 117.667 123.376 119.166C120.905 120.989 118.285 122.601 115.545 123.985C112.392 125.559 109.111 126.859 105.736 127.87C97.9855 130.152 89.9318 131.228 81.8557 131.061C64.6975 130.651 49.3028 127.87 38.5261 124.678C36.1135 123.91 33.7776 122.918 31.5492 121.714C29.8685 120.801 28.2714 119.741 26.7767 118.546C26.154 118.062 25.6449 117.583 25.1859 117.178C24.7268 116.772 24.3723 116.412 24.0859 116.115L23.4359 115.431L23.2178 115.194L23.4541 115.413L24.1177 116.079C24.4132 116.371 24.795 116.713 25.2359 117.123C25.6767 117.533 26.2131 117.985 26.8358 118.459C28.3347 119.637 29.9331 120.682 31.6128 121.582C33.8414 122.768 36.1738 123.746 38.5806 124.505C49.3392 127.633 64.7339 130.391 81.8603 130.797C89.9114 130.97 97.9416 129.907 105.673 127.646C109.036 126.644 112.308 125.357 115.454 123.798C118.187 122.425 120.802 120.827 123.272 119.02C125.315 117.536 127.224 115.875 128.976 114.054C129.372 113.662 129.708 113.243 130.058 112.86L130.567 112.29L131.021 111.715L131.867 110.635L132.571 109.613C133.026 108.975 133.367 108.364 133.676 107.844C133.826 107.58 133.976 107.343 134.099 107.119L134.403 106.495C134.585 106.13 134.726 105.852 134.821 105.651C134.917 105.451 134.98 105.346 134.98 105.346Z" fill="white"/>
<path d="M113.2 111.332C113.132 111.348 113.064 111.359 112.995 111.364L112.386 111.437C111.85 111.506 111.054 111.556 110.032 111.61C107.982 111.702 105.032 111.692 101.355 111.487C97.6778 111.282 93.3461 110.885 88.5464 110.206C86.1511 109.864 83.6375 109.44 81.0695 108.838C78.5014 108.236 75.8743 107.502 73.1744 106.782C70.4746 106.061 67.8292 105.414 65.2385 104.926C62.7512 104.474 60.2367 104.189 57.7116 104.073C55.298 103.955 52.9982 103.982 50.8483 104.073C48.6984 104.165 46.7121 104.42 44.8986 104.671C42.0408 105.091 39.2169 105.717 36.449 106.545L35.1491 106.946L34.2082 107.274L33.6264 107.47C33.5598 107.495 33.4915 107.515 33.4219 107.53C33.4846 107.497 33.55 107.469 33.6173 107.448L34.19 107.229L35.1263 106.878C35.499 106.75 35.9308 106.613 36.4217 106.454C39.1855 105.589 42.0099 104.934 44.8713 104.493C46.6894 104.233 48.6847 103.991 50.8392 103.864C53.1308 103.733 55.4276 103.719 57.7207 103.823C60.2575 103.934 62.7842 104.214 65.2839 104.662C67.8838 105.118 70.5337 105.797 73.2381 106.522C75.9425 107.247 78.5651 107.976 81.124 108.578C83.683 109.18 86.1874 109.627 88.5828 109.978C93.3689 110.671 97.7141 111.068 101.364 111.309C105.014 111.551 107.982 111.574 110.027 111.51C111.05 111.469 111.845 111.433 112.382 111.382L112.991 111.337L113.2 111.332Z" fill="white"/>
<path d="M85.5195 93.6002C85.5195 93.6002 85.5559 93.5546 85.6377 93.4816C85.7195 93.4087 85.8468 93.2856 86.0013 93.1488L87.4149 91.8995C88.6512 90.828 90.4511 89.2777 92.8237 87.5542C95.5915 85.5121 98.618 83.8484 101.823 82.6072C105.772 81.1033 109.979 80.3997 114.2 80.5371C116.383 80.6237 118.547 80.9852 120.641 81.6132C122.588 82.2117 124.441 83.0837 126.145 84.203C129.031 86.1225 131.378 88.7519 132.963 91.8402C133.543 93.0301 134 94.2769 134.326 95.5608C134.453 96.1307 134.563 96.6642 134.635 97.1566C134.708 97.649 134.758 98.1095 134.772 98.5245C134.785 98.9394 134.772 99.2996 134.794 99.6187C134.817 99.9379 134.753 100.202 134.74 100.417L134.699 100.909C134.698 100.965 134.691 101.02 134.676 101.073C134.67 101.017 134.67 100.961 134.676 100.905C134.676 100.781 134.676 100.622 134.676 100.417C134.676 100.211 134.708 99.9333 134.708 99.6187C134.708 99.3041 134.676 98.9394 134.663 98.5336C134.649 98.1278 134.563 97.6764 134.508 97.1657C134.453 96.655 134.313 96.1489 134.181 95.5836C133.838 94.3141 133.367 93.0828 132.776 91.9086C131.187 88.8659 128.855 86.2763 125.999 84.3808C124.31 83.2792 122.474 82.4227 120.545 81.8366C118.476 81.2191 116.339 80.8623 114.182 80.7742C109.997 80.6383 105.827 81.3309 101.91 82.8123C98.7159 84.043 95.6964 85.6878 92.9283 87.7047C90.5511 89.4054 88.7376 90.9328 87.474 91.9815L86.0513 93.1852L85.6741 93.4999C85.6254 93.5375 85.5737 93.571 85.5195 93.6002Z" fill="white"/>
<path d="M71.4287 93.7189L71.3287 93.6095L71.0514 93.2812C70.806 92.9939 70.4423 92.5699 69.9424 92.0547C68.5236 90.6086 66.9915 89.279 65.3608 88.0788C64.3336 87.3082 63.1927 86.4829 61.9609 85.6121C60.7292 84.7412 59.3974 83.8293 57.9384 82.9721C56.4193 82.065 54.8147 81.3105 53.1478 80.7197C51.3542 80.0977 49.4923 79.695 47.6026 79.5206C45.7132 79.3398 43.8091 79.3842 41.9301 79.6528C40.1793 79.8955 38.4621 80.3392 36.8122 80.975C34.0197 82.0567 31.4508 83.6474 29.2353 85.6668C27.7324 87.0201 26.3985 88.5511 25.2628 90.2263C24.8719 90.8282 24.5674 91.2932 24.3856 91.6261C24.2901 91.7766 24.2174 91.8997 24.1628 91.9954C24.1083 92.0912 24.081 92.1185 24.0765 92.114C24.0719 92.1094 24.0765 92.0684 24.1401 91.9817L24.3401 91.5987C24.5128 91.2613 24.7946 90.7826 25.181 90.1716C27.967 85.9164 32.0032 82.6356 36.7304 80.7835C38.3941 80.1275 40.1285 79.6684 41.8983 79.4157C45.7069 78.8638 49.5919 79.2327 53.2296 80.4917C54.9094 81.0871 56.525 81.8509 58.0521 82.7715C59.5202 83.6378 60.8519 84.5588 62.0791 85.4388C63.3063 86.3188 64.4426 87.1532 65.4653 87.9329C67.0933 89.1509 68.614 90.5071 70.0106 91.9863C70.5014 92.5106 70.8514 92.9484 71.0878 93.2447L71.3468 93.5912C71.4059 93.6733 71.4332 93.7143 71.4287 93.7189Z" fill="white"/>
<path d="M93.8013 48.999C93.7357 49.0943 93.6628 49.1843 93.5831 49.268C93.3655 49.5144 93.1332 49.7473 92.8877 49.9656C91.9684 50.7665 90.914 51.3964 89.7742 51.8259C88.1054 52.4905 86.3625 52.9498 84.5836 53.1938C82.4035 53.48 80.2045 53.5943 78.0066 53.5358C74.0179 53.4569 70.052 52.9122 66.189 51.9126C64.7027 51.5387 63.5482 50.9551 62.9437 50.3258C62.7061 50.0928 62.5067 49.8235 62.3529 49.5279C62.2995 49.4247 62.2569 49.3162 62.2256 49.2042C62.4307 49.5947 62.6961 49.9502 63.0119 50.2575C63.9444 51.0141 65.0506 51.525 66.2299 51.7439C70.0904 52.6895 74.0426 53.2078 78.0157 53.2895C80.2008 53.3462 82.387 53.2396 84.5563 52.9704C86.3213 52.7301 88.0526 52.2848 89.7151 51.6435C90.8452 51.2326 91.8978 50.6329 92.8286 49.8699C93.1513 49.5963 93.3922 49.3683 93.5513 49.2088C93.6269 49.1301 93.7107 49.0598 93.8013 48.999Z" fill="#263238"/>
<path d="M71.9616 95.4971C71.8934 95.4971 71.8389 92.506 71.8389 88.8174C71.8389 85.1287 71.8843 82.1514 71.9616 82.1514C72.0389 82.1514 72.0889 85.1424 72.0889 88.8356C72.0889 92.5288 72.0207 95.4971 71.9616 95.4971Z" fill="white"/>
<path d="M63.4797 53.9507C63.3356 55.446 63.3645 56.9531 63.5661 58.4418C63.7711 59.9429 64.4873 61.3266 65.5933 62.3584C66.0978 62.8144 66.8568 63.1244 67.4113 62.746C67.616 62.5691 67.7614 62.3333 67.8281 62.0708C67.8948 61.8082 67.8794 61.5314 67.784 61.2778C67.5849 60.7743 67.3287 60.2955 67.0205 59.8507C66.5847 59.086 66.3384 58.2275 66.3023 57.3475C66.275 56.7684 66.3432 56.1848 66.3387 55.6012C66.3578 55.0169 66.218 54.4384 65.9341 53.9279C65.7901 53.674 65.5789 53.465 65.3237 53.3242C65.0686 53.1834 64.7796 53.1161 64.4888 53.1299C64.3458 53.1451 64.2073 53.1889 64.0816 53.2588C63.9558 53.3287 63.8453 53.4232 63.7567 53.5368C63.6681 53.6503 63.6031 53.7806 63.5657 53.9199C63.5283 54.0591 63.5191 54.2045 63.5388 54.3473" fill="white"/>
<path d="M87.9464 47.3303C87.7728 47.5202 87.5827 47.6942 87.3783 47.8501C86.8423 48.3023 86.2791 48.721 85.692 49.104C84.8162 49.6774 83.8666 50.1284 82.8694 50.4445C81.6403 50.8128 80.3611 50.9852 79.0787 50.9551C77.8037 50.9455 76.531 50.8465 75.2698 50.6588C74.237 50.5053 73.2267 50.2266 72.2608 49.8289C71.6192 49.5585 71.0094 49.2175 70.4427 48.8122C70.2855 48.7045 70.1337 48.5888 69.9882 48.4656C69.9346 48.4259 69.8857 48.38 69.8428 48.3289C70.0674 48.4491 70.2845 48.5831 70.4927 48.7301C71.0804 49.1033 71.703 49.4179 72.3517 49.6694C73.3117 50.0377 74.3106 50.2947 75.3289 50.4354C76.5809 50.6062 77.8424 50.6975 79.1059 50.7089C80.3625 50.7362 81.6159 50.5732 82.8239 50.2256C83.8074 49.9266 84.7472 49.4989 85.6193 48.9535C86.3692 48.4976 86.9465 48.069 87.3419 47.7726C87.5304 47.6081 87.7327 47.4601 87.9464 47.3303Z" fill="#263238"/>
<g opacity="0.3">
<path d="M85.4914 48.9989L90.5502 45.4835C90.5502 45.4835 87.3685 44.2479 85.8141 44.1658C84.2596 44.0837 85.4914 48.9989 85.4914 48.9989Z" fill="black"/>
</g>
<path d="M114.386 101.21C113.654 98.7981 112.495 96.45 110.649 94.7401C108.804 93.0303 106.186 92.0318 103.727 92.547C101.336 93.0486 99.4363 94.8268 97.1955 95.8025C95.5131 96.5227 93.6656 96.7642 91.8555 96.5005C90.0454 96.2368 88.3427 95.4781 86.9341 94.3076C85.5254 93.1371 84.4654 91.6001 83.8702 89.8651C83.275 88.1302 83.1676 86.2643 83.5598 84.4721C84.0461 82.2562 85.287 80.1314 85.0461 77.8745C84.8097 75.6996 83.228 73.935 82.3462 71.9471C81.4644 69.9591 81.7099 67.652 83.5825 65.509L78.96 65.7279C77.6964 67.1733 78.4146 70.6385 78.9964 72.4714C79.5782 74.3044 80.4554 76.119 80.2645 78.0523C79.9918 80.788 77.5964 82.9036 77.0192 85.5983C76.2965 88.9495 78.4964 92.1686 80.6281 94.845C82.7598 97.5214 85.2324 100.316 88.5913 100.891C93.1638 101.675 97.4 98.0412 102.036 97.8634C107.413 97.6537 112.254 103.043 111.504 108.382C113.008 108.423 114.299 107.124 114.708 105.669C115.117 104.215 114.822 102.669 114.386 101.21Z" fill="url(#paint9_linear_2692_2975)"/>
<g opacity="0.8">
<path d="M114.386 101.21C113.654 98.7981 112.495 96.45 110.649 94.7401C108.804 93.0303 106.186 92.0318 103.727 92.547C101.336 93.0486 99.4363 94.8268 97.1955 95.8025C95.5131 96.5227 93.6656 96.7642 91.8555 96.5005C90.0454 96.2368 88.3427 95.4781 86.9341 94.3076C85.5254 93.1371 84.4654 91.6001 83.8702 89.8651C83.275 88.1302 83.1676 86.2643 83.5598 84.4721C84.0461 82.2562 85.287 80.1314 85.0461 77.8745C84.8097 75.6996 83.228 73.935 82.3462 71.9471C81.4644 69.9591 81.7099 67.652 83.5825 65.509L78.96 65.7279C77.6964 67.1733 78.4146 70.6385 78.9964 72.4714C79.5782 74.3044 80.4554 76.119 80.2645 78.0523C79.9918 80.788 77.5964 82.9036 77.0192 85.5983C76.2965 88.9495 78.4964 92.1686 80.6281 94.845C82.7598 97.5214 85.2324 100.316 88.5913 100.891C93.1638 101.675 97.4 98.0412 102.036 97.8634C107.413 97.6537 112.254 103.043 111.504 108.382C113.008 108.423 114.299 107.124 114.708 105.669C115.117 104.215 114.822 102.669 114.386 101.21Z" fill="white"/>
</g>
<path d="M135.303 98.1963C135.309 98.234 135.309 98.2725 135.303 98.3103C135.303 98.4015 135.303 98.5155 135.303 98.6522C135.303 98.9714 135.303 99.4091 135.303 99.9608C135.303 100.248 135.303 100.563 135.303 100.909L135.23 102.035C135.203 102.441 135.176 102.87 135.144 103.33C135.112 103.791 135.026 104.265 134.962 104.771C134.663 107.138 134.205 109.482 133.594 111.788C132.808 114.601 131.864 117.367 130.767 120.073C129.576 122.945 128.272 125.604 127.008 127.979C125.745 130.355 124.467 132.416 123.313 134.093C123.031 134.517 122.767 134.923 122.504 135.302L121.745 136.35C121.29 137.007 120.863 137.563 120.504 138.005L119.686 139.027L119.468 139.287C119.419 139.344 119.392 139.372 119.386 139.369C119.401 139.334 119.421 139.302 119.445 139.273L119.645 138.995L120.427 137.946C120.777 137.49 121.177 136.929 121.636 136.268L122.377 135.21C122.636 134.832 122.89 134.422 123.167 133.998C124.299 132.311 125.513 130.218 126.804 127.87C128.094 125.521 129.349 122.854 130.531 119.977C131.628 117.281 132.576 114.525 133.371 111.724C134.005 109.434 134.491 107.106 134.826 104.753C134.894 104.251 134.971 103.773 135.026 103.317C135.08 102.861 135.094 102.432 135.13 102.031C135.167 101.63 135.194 101.256 135.221 100.909C135.249 100.563 135.221 100.248 135.244 99.9654C135.244 99.4137 135.267 98.976 135.271 98.6568C135.271 98.52 135.271 98.406 135.271 98.3148C135.275 98.2738 135.286 98.2337 135.303 98.1963Z" fill="#263238"/>
<path d="M85.6831 98.8938C85.5361 98.8397 85.397 98.7661 85.2695 98.675C84.9052 98.4549 84.5546 98.2128 84.2196 97.95C81.976 96.2295 80.2312 93.9393 79.1653 91.3159C79.0026 90.9232 78.863 90.5213 78.7471 90.1122C78.6937 89.9651 78.6586 89.812 78.6426 89.6562C78.6835 89.6562 78.888 90.2809 79.3244 91.2521C79.8971 92.5192 80.609 93.7181 81.447 94.8267C82.2924 95.9293 83.259 96.9327 84.3287 97.8178C85.1423 98.4926 85.7059 98.8574 85.6831 98.8938Z" fill="white"/>
<path d="M110.486 100.968C110.422 101.023 109.404 99.6551 107.69 98.5061C106.642 97.8401 105.532 97.2752 104.377 96.8191C104.747 96.8492 105.109 96.9401 105.45 97.0881C106.291 97.3898 107.092 97.7973 107.831 98.3009C108.573 98.8014 109.247 99.396 109.836 100.07C110.096 100.335 110.315 100.638 110.486 100.968Z" fill="white"/>
<g opacity="0.2">
<path d="M114.395 145.925C106.797 156.797 96.1796 165.188 83.8645 170.054C81.6465 170.925 79.3193 171.687 76.9467 171.646C73.4151 171.586 70.1652 169.781 67.1654 167.911C58.9067 162.764 50.6935 155.546 44.8438 147.758C44.8438 147.758 62.5701 165.249 76.2058 169.448C76.2058 169.448 77.5194 170.574 82.9737 168.623C92.1641 165.335 114.395 145.925 114.395 145.925Z" fill="black"/>
</g>
<path d="M75.8783 168.363C75.7589 168.331 75.6431 168.287 75.5329 168.231L74.5648 167.807C74.1421 167.624 73.6557 167.392 73.0512 167.1C72.4467 166.808 71.7922 166.493 71.0695 166.097C69.615 165.34 67.9151 164.369 66.0697 163.224C64.2244 162.08 62.2381 160.744 60.2155 159.267C56.1611 156.312 52.6977 153.371 50.2433 151.183C49.016 150.093 48.0388 149.195 47.3707 148.561L46.6071 147.831C46.5148 147.749 46.4297 147.659 46.3525 147.562C46.4543 147.632 46.5501 147.709 46.6389 147.795L47.4343 148.488C48.1206 149.099 49.116 149.979 50.3569 151.055C52.8386 153.202 56.3157 156.116 60.3564 159.066C62.379 160.539 64.3607 161.87 66.1879 163.033C68.0151 164.195 69.7105 165.167 71.1558 165.942C71.8649 166.347 72.5194 166.671 73.1103 166.972C73.7012 167.273 74.1921 167.524 74.6057 167.72L75.5556 168.176C75.6688 168.228 75.7768 168.29 75.8783 168.363Z" fill="white"/>
<path d="M119.385 139.364C119.344 139.438 119.299 139.51 119.249 139.579C119.158 139.72 119.017 139.925 118.822 140.19C118.44 140.723 117.854 141.498 117.04 142.469C116.042 143.65 114.979 144.775 113.858 145.839C113.204 146.468 112.463 147.102 111.663 147.763L109.181 149.92L103.418 154.935C102.368 155.847 101.3 156.795 100.146 157.735C98.991 158.674 97.7457 159.559 96.4366 160.47C93.8186 162.249 90.9824 164.018 87.9143 165.746C86.3871 166.608 84.8145 167.474 83.1464 168.244C82.2996 168.632 81.4243 168.954 80.5283 169.206C79.6069 169.491 78.6377 169.588 77.6785 169.489C76.7229 169.369 75.7808 169.159 74.865 168.86C73.9559 168.573 73.0469 168.231 72.1106 167.852C70.2685 167.065 68.4799 166.157 66.7563 165.135C65.8791 164.615 65.0064 164.063 64.1564 163.466L61.6156 161.642C59.9203 160.407 58.2158 159.139 56.525 157.817C51.4677 153.934 46.6867 149.701 42.2166 145.15C40.094 142.948 38.1259 140.709 36.2805 138.462C34.4352 136.214 32.808 133.902 31.3444 131.622C30.949 131.066 30.6536 130.46 30.3172 129.885C29.9809 129.311 29.6718 128.727 29.3536 128.157C28.7173 127.017 28.09 125.905 27.4764 124.81C26.2399 122.761 25.1946 120.601 24.3539 118.359C22.7676 114.1 22.0812 110.038 22.1812 106.568C21.8191 103.325 21.9726 100.046 22.6358 96.8514C22.857 95.7121 23.1608 94.5905 23.5448 93.4956C23.5448 93.4956 23.5448 93.5686 23.4857 93.7145C23.4266 93.8604 23.3812 94.0747 23.2994 94.3528C23.1448 94.9182 22.9176 95.7571 22.6994 96.8696C22.0683 100.058 21.9364 103.325 22.3085 106.554C22.204 109.983 22.9221 114.036 24.5175 118.267C25.3574 120.499 26.4044 122.647 27.6446 124.683L29.5263 128.025L30.4945 129.748C30.8056 130.342 31.147 130.918 31.5171 131.476C32.9807 133.756 34.6579 136.009 36.4533 138.275C38.2486 140.541 40.2576 142.748 42.3621 144.941C46.828 149.479 51.6013 153.702 56.6477 157.58C58.334 158.902 60.043 160.165 61.7338 161.401L64.2701 163.224C65.1155 163.817 65.979 164.364 66.8517 164.884C68.5753 165.9 70.364 166.8 72.206 167.579C73.1151 167.957 74.0241 168.295 74.9331 168.582C75.8318 168.88 76.7574 169.089 77.6966 169.206C78.6154 169.289 79.5412 169.193 80.4238 168.924C81.307 168.676 82.1701 168.36 83.0055 167.98C84.6599 167.214 86.2371 166.352 87.7643 165.495C90.8142 163.776 93.6731 162.016 96.2775 160.247C97.5866 159.335 98.8274 158.46 99.9864 157.511C101.145 156.563 102.205 155.624 103.259 154.725L109.045 149.746L111.536 147.603C112.336 146.947 113.081 146.322 113.736 145.698C114.856 144.644 115.918 143.529 116.917 142.36C117.736 141.402 118.331 140.637 118.736 140.112L119.19 139.515C119.331 139.433 119.385 139.364 119.385 139.364Z" fill="#263238"/>
<path d="M89.7509 50.7501C89.6705 50.789 89.5868 50.821 89.5009 50.8458L88.7692 51.0829C88.4555 51.1832 88.0647 51.3018 87.6056 51.4158C87.1465 51.5298 86.6284 51.6802 86.042 51.7896C85.4557 51.8991 84.8239 52.0495 84.1285 52.1498C83.4331 52.2502 82.6967 52.355 81.9104 52.4462C80.2097 52.6101 78.5005 52.6695 76.7925 52.624C75.0838 52.5609 73.3806 52.3919 71.6927 52.1179C70.9201 51.9766 70.1837 51.8489 69.5019 51.662C68.8202 51.475 68.1884 51.3428 67.6157 51.206C67.043 51.0692 66.5294 50.8732 66.0794 50.7273C65.6294 50.5814 65.2476 50.4446 64.9385 50.3215L64.2249 50.0388C64.1383 50.0123 64.0557 49.9739 63.9795 49.9248C64.0691 49.9402 64.1573 49.963 64.2431 49.9932L64.9703 50.2303C65.284 50.3397 65.6658 50.4674 66.1203 50.5996C66.5748 50.7318 67.0839 50.896 67.6611 51.0556C68.2384 51.2151 68.8611 51.3656 69.5474 51.5115C70.2337 51.6574 70.961 51.7896 71.7291 51.9264C73.4095 52.1834 75.103 52.3447 76.8016 52.4097C78.5001 52.4539 80.1998 52.4006 81.8922 52.2502C82.6695 52.1635 83.4103 52.0951 84.0967 51.9811C84.783 51.8672 85.4239 51.7668 86.0057 51.6529C86.5874 51.5389 87.1102 51.4158 87.5738 51.3109C88.0374 51.206 88.4237 51.1103 88.7464 51.0191L89.4873 50.8321C89.571 50.7927 89.6597 50.7651 89.7509 50.7501Z" fill="white"/>
<path d="M72.6288 70.0323C71.655 70.167 70.6664 70.1517 69.6972 69.9867C68.716 69.9001 67.7537 69.6649 66.8428 69.2891C66.8428 69.2161 68.1336 69.5398 69.729 69.745C71.3244 69.9502 72.6288 69.9593 72.6288 70.0323Z" fill="white"/>
<path d="M74.8383 70.0135C74.8383 70.0817 74.6928 70.1317 74.5201 70.1226C74.3474 70.1135 74.2065 70.0498 74.211 69.9817C74.2156 69.9135 74.3565 69.868 74.5338 69.8771C74.711 69.8862 74.8428 69.9453 74.8383 70.0135Z" fill="white"/>
<path d="M70.3698 48.5795L67.6699 31.5406C67.6699 31.5406 68.0608 28.1848 79.033 28.7319C90.0052 29.2791 89.2598 32.1653 89.2598 32.1653L86.5053 48.2513C86.5053 48.2513 83.5646 51.0827 78.2421 50.759C71.0743 50.3213 70.3698 48.5795 70.3698 48.5795Z" fill="#455A64"/>
<path d="M89.2563 32.1791C89.2563 32.1791 89.2017 32.2657 89.0608 32.3888C88.8494 32.5633 88.6209 32.7161 88.379 32.8448C87.4831 33.3354 86.5125 33.6743 85.5065 33.8479C84.021 34.082 82.5194 34.1978 81.0158 34.1944C79.3204 34.2309 77.4614 34.1944 75.507 34.1397H75.1206H74.8752L75.0297 33.9482L76.9887 31.4815L77.1296 31.6684L72.4162 33.7065C70.7436 33.6336 69.3527 33.3144 68.5573 32.749C68.2437 32.5437 67.9897 32.2591 67.821 31.9238C67.7562 31.8085 67.7247 31.6775 67.7301 31.5453C67.7686 31.6656 67.8157 31.7829 67.871 31.8964C68.0526 32.2084 68.3087 32.4701 68.6164 32.6578C69.4027 33.1776 70.7663 33.4603 72.4208 33.5105H72.3798L77.0932 31.4268L77.5478 31.2307L77.2478 31.6092L75.2933 34.0804L75.2024 33.8798H75.5888C77.5387 33.9482 79.3977 33.9755 81.084 33.9573C82.577 33.969 84.0689 33.8699 85.5474 33.6609C86.541 33.5042 87.505 33.1967 88.4063 32.749C88.6483 32.6235 88.8807 32.4803 89.1017 32.3204C89.1509 32.2708 89.2025 32.2236 89.2563 32.1791Z" fill="#263238"/>
<g opacity="0.2">
<path d="M77.0783 31.5542L75.1239 34.0209L73.9603 41.1611L72.4149 33.875L72.3604 33.6197L77.0783 31.5542Z" fill="black"/>
</g>
<path d="M74.0148 41.1157C73.8554 40.7745 73.7393 40.4145 73.6694 40.0442C73.4967 39.374 73.283 38.4347 73.0649 37.3997C72.8467 36.3647 72.6876 35.5166 72.5285 34.7461C72.4345 34.382 72.3781 34.0092 72.3604 33.6335C72.5143 33.9765 72.6287 34.336 72.7012 34.705C72.8785 35.3798 73.0921 36.3145 73.3058 37.3496C73.5194 38.3846 73.6876 39.2326 73.8421 40.0032C73.9357 40.3675 73.9935 40.7401 74.0148 41.1157Z" fill="#263238"/>
<g opacity="0.2">
<path d="M81.5837 38.9909C81.5376 38.8777 81.459 38.7808 81.3578 38.7125C81.2566 38.6443 81.1374 38.6079 81.0155 38.6079C80.92 38.6176 80.8285 38.651 80.7491 38.7052C80.6697 38.7593 80.6051 38.8324 80.561 38.918C80.4759 39.1063 80.4266 39.3088 80.4155 39.5153C80.2251 40.7872 80.143 42.073 80.1701 43.3589C80.1658 43.5521 80.2095 43.7433 80.2974 43.9152C80.3449 43.9975 80.4169 44.0629 80.5033 44.1022C80.5897 44.1414 80.6861 44.1526 80.7791 44.134C80.856 44.095 80.924 44.0405 80.9788 43.9737C81.0335 43.907 81.0739 43.8297 81.0973 43.7465C81.6109 42.4881 81.6564 41.0883 81.6927 39.725C81.7192 39.475 81.6817 39.2223 81.5837 38.9909Z" fill="black"/>
</g>
<g opacity="0.2">
<path d="M79.4424 30.7519C79.3346 30.8059 79.2449 30.8904 79.1843 30.9949C79.1238 31.0994 79.095 31.2194 79.1015 31.3401C79.1125 31.4391 79.1495 31.5334 79.2085 31.6134C79.2676 31.6935 79.3467 31.7565 79.4378 31.796C79.6308 31.8706 79.8356 31.9092 80.0423 31.91C81.3186 32.0217 82.6022 32.0217 83.8785 31.91C84.071 31.9046 84.2588 31.8497 84.424 31.7504C84.506 31.7015 84.5694 31.6265 84.604 31.5372C84.6386 31.448 84.6424 31.3497 84.6148 31.258C84.5725 31.1825 84.5144 31.1169 84.4446 31.0658C84.3748 31.0147 84.295 30.9792 84.2103 30.9616C82.924 30.5057 81.5286 30.5695 80.1742 30.6197C79.9229 30.5981 79.6704 30.6437 79.4424 30.7519Z" fill="black"/>
</g>
<g opacity="0.2">
<path d="M71.4207 40.2675C71.3436 40.1729 71.24 40.1037 71.1234 40.0688C71.0067 40.0338 70.8823 40.0347 70.7661 40.0714C70.6784 40.1091 70.6014 40.1679 70.5419 40.2427C70.4824 40.3175 70.4424 40.4059 70.4253 40.5C70.4009 40.7057 70.4132 40.9142 70.4616 41.1156C70.6558 42.3875 70.9599 43.64 71.3707 44.8589C71.4222 45.0441 71.5191 45.2133 71.6525 45.3514C71.7212 45.4166 71.8085 45.4587 71.9022 45.4717C71.9959 45.4848 72.0913 45.4682 72.1752 45.4243C72.2365 45.3655 72.285 45.2947 72.3179 45.2163C72.3507 45.1378 72.3671 45.0534 72.3661 44.9684C72.4933 43.6005 72.1206 42.26 71.757 40.9514C71.7075 40.6975 71.5914 40.4614 71.4207 40.2675Z" fill="black"/>
</g>
<g opacity="0.2">
<path d="M87.2413 34.0075C87.1947 33.8946 87.116 33.7981 87.0149 33.7299C86.9138 33.6618 86.7949 33.6251 86.6731 33.6245C86.5775 33.6338 86.4858 33.6671 86.4064 33.7213C86.3269 33.7754 86.2624 33.8488 86.2186 33.9346C86.1301 34.1219 86.0791 34.3248 86.0686 34.5319C85.8774 35.8037 85.7968 37.0897 85.8277 38.3755C85.824 38.5681 85.8661 38.7588 85.9504 38.9318C85.9979 39.0141 86.0699 39.0795 86.1563 39.1188C86.2427 39.158 86.3392 39.1692 86.4322 39.1507C86.5096 39.1123 86.578 39.058 86.6328 38.9912C86.6877 38.9244 86.7278 38.8466 86.7504 38.7631C87.2686 37.5047 87.3095 36.1049 87.3458 34.7462C87.3741 34.495 87.3382 34.2408 87.2413 34.0075Z" fill="black"/>
</g>
<path d="M88.1875 31.2672C87.9458 31.1954 87.7114 31.1007 87.4875 30.9845C87.2197 30.8661 86.945 30.764 86.6649 30.679L86.1467 30.5057L85.5513 30.3507C83.3673 29.819 81.1306 29.5361 78.8834 29.5072C76.6357 29.4353 74.3859 29.5482 72.1565 29.8446L71.0065 30.0407L70.152 30.2322C69.9157 30.3173 69.6724 30.3814 69.4248 30.4237C69.6505 30.3115 69.8845 30.2169 70.1248 30.141L70.9793 29.9039C71.3156 29.8309 71.702 29.7534 72.1292 29.6759C74.3655 29.3231 76.6301 29.1842 78.8925 29.261C81.1563 29.2855 83.4082 29.5918 85.5967 30.1729L86.1921 30.3461L86.7103 30.5422C86.9895 30.6377 87.2614 30.7535 87.5239 30.8887C87.7547 30.9972 87.9766 31.1237 88.1875 31.2672Z" fill="white"/>
<path d="M70.8019 48.3289C70.7427 48.1451 70.7031 47.9556 70.6837 47.7635C70.62 47.3987 70.5382 46.8516 70.4473 46.2087C70.261 44.8409 70.0246 43.0444 69.761 41.061C69.4974 39.0776 69.2383 37.2356 69.0428 35.9224C68.9519 35.3145 68.8747 34.7947 68.811 34.3631C68.7715 34.1742 68.7517 33.9816 68.752 33.7886C68.826 33.967 68.8779 34.1538 68.9065 34.3448C68.9883 34.7096 69.0928 35.2567 69.2156 35.8905C69.4565 37.1991 69.7383 39.0138 70.0019 41.0291C70.2655 43.0444 70.4564 44.8637 70.62 46.1859C70.6791 46.806 70.7337 47.3304 70.7791 47.7498C70.8097 47.9412 70.8174 48.1357 70.8019 48.3289Z" fill="white"/>
<path d="M76.3967 31.3765C75.2282 32.1236 73.9248 32.6333 72.5605 32.8765C73.1737 32.5639 73.8105 32.3001 74.465 32.0877C75.089 31.7994 75.7349 31.5615 76.3967 31.3765Z" fill="white"/>
<path d="M52.0843 86.9208C51.9524 85.3751 50.3071 83.9708 48.3753 83.7291C42.412 82.1014 35.5442 84.6091 31.758 89.506C30.9639 90.4604 30.3994 91.5852 30.1081 92.7934C29.9675 93.3974 29.9653 94.0254 30.1015 94.6303C30.2377 95.2352 30.5088 95.8013 30.8944 96.286C32.1807 97.7679 34.5306 97.7724 36.3487 97.0566C38.1668 96.3407 39.7303 95.0641 41.5166 94.2662C42.9602 93.7027 44.4429 93.2455 45.9527 92.8983C47.4676 92.5514 48.8954 91.8966 50.148 90.9742C51.3479 89.9757 52.2161 88.471 52.0843 86.9208Z" fill="white"/>
<path d="M33.0854 113.548C32.3287 110.363 32.0696 107.079 32.3172 103.814C32.4115 103.234 32.3743 102.64 32.2082 102.077C31.9525 101.664 31.5567 101.358 31.0939 101.216C30.631 101.073 30.1324 101.104 29.6901 101.301C27.8084 102.213 27.3039 103.189 26.8402 105.241C26.3766 107.293 26.5857 109.44 26.9311 111.515C27.2766 113.589 27.7766 115.618 29.1083 117.15C29.8674 118.035 31.0991 118.733 32.1718 118.277C32.5621 118.071 32.8904 117.764 33.1222 117.388C33.354 117.012 33.481 116.58 33.4899 116.138C33.4898 115.259 33.3533 114.385 33.0854 113.548Z" fill="white"/>
<path d="M125.594 107.954C125.334 111.219 124.568 114.423 123.322 117.451C123.054 117.972 122.908 118.547 122.895 119.134C123.012 119.608 123.298 120.023 123.699 120.301C124.1 120.579 124.588 120.7 125.072 120.643C127.149 120.351 127.926 119.59 128.999 117.784C130.071 115.978 130.54 113.872 130.849 111.788C131.158 109.704 131.303 107.639 130.517 105.756C130.062 104.675 129.108 103.631 127.949 103.736C127.517 103.812 127.112 104.002 126.778 104.288C126.444 104.573 126.192 104.943 126.049 105.359C125.767 106.196 125.614 107.071 125.594 107.954Z" fill="white"/>
<path d="M129.99 93.1809C129.803 91.8131 129.022 89.8616 125.926 90.5091L125.017 90.9924C124.511 91.4744 124.166 92.1011 124.027 92.7873C123.889 93.4734 123.965 94.1856 124.244 94.8269C124.531 95.4554 125.02 95.9689 125.632 96.2849C126.245 96.6008 126.945 96.7008 127.622 96.5687C128.967 96.286 130.176 94.5442 129.99 93.1809Z" fill="white"/>
<g opacity="0.3">
<path d="M66.8164 64.5015V66.7128C70.9817 67.4203 75.2585 67.0387 79.234 65.6049C79.234 65.6049 69.0981 65.3906 66.8164 64.5015Z" fill="black"/>
</g>
<path d="M65.8877 64.2598C66.203 64.3085 66.5156 64.3739 66.824 64.4558C67.424 64.5881 68.2921 64.7568 69.3784 64.9118C72.2124 65.2915 75.0689 65.4773 77.928 65.468C80.7855 65.4822 83.6405 65.2994 86.473 64.9209C87.5593 64.7659 88.432 64.5926 89.032 64.4649C89.3385 64.3803 89.6496 64.3134 89.9638 64.2643C89.889 64.3007 89.8115 64.3312 89.732 64.3555C89.5774 64.4057 89.3502 64.4786 89.0547 64.5607C88.4593 64.7203 87.5866 64.9209 86.5003 65.0987C83.6638 65.5353 80.7977 65.7488 77.928 65.7371C75.0586 65.7503 72.1926 65.5399 69.3557 65.1078C68.2649 64.93 67.3967 64.734 66.8013 64.5744C66.5013 64.4969 66.274 64.4239 66.1195 64.3692C66.039 64.3401 65.9614 64.3035 65.8877 64.2598Z" fill="#263238"/>
<path d="M13.916 212.276H6.132L4.844 216H0.728L7.756 196.428H12.32L19.348 216H15.204L13.916 212.276ZM12.852 209.14L10.024 200.964L7.196 209.14H12.852ZM43.283 196.456V216H39.363V203.288L34.127 216H31.159L25.895 203.288V216H21.975V196.456H26.427L32.643 210.988L38.859 196.456H43.283ZM56.2306 216.196C54.4012 216.196 52.7212 215.767 51.1906 214.908C49.6599 214.049 48.4466 212.864 47.5506 211.352C46.6546 209.821 46.2066 208.095 46.2066 206.172C46.2066 204.268 46.6546 202.56 47.5506 201.048C48.4466 199.517 49.6599 198.323 51.1906 197.464C52.7212 196.605 54.4012 196.176 56.2306 196.176C58.0786 196.176 59.7586 196.605 61.2706 197.464C62.8012 198.323 64.0052 199.517 64.8826 201.048C65.7786 202.56 66.2266 204.268 66.2266 206.172C66.2266 208.095 65.7786 209.821 64.8826 211.352C64.0052 212.864 62.8012 214.049 61.2706 214.908C59.7399 215.767 58.0599 216.196 56.2306 216.196ZM56.2306 212.696C57.4066 212.696 58.4426 212.435 59.3386 211.912C60.2346 211.371 60.9346 210.605 61.4386 209.616C61.9426 208.627 62.1946 207.479 62.1946 206.172C62.1946 204.865 61.9426 203.727 61.4386 202.756C60.9346 201.767 60.2346 201.011 59.3386 200.488C58.4426 199.965 57.4066 199.704 56.2306 199.704C55.0546 199.704 54.0092 199.965 53.0946 200.488C52.1986 201.011 51.4986 201.767 50.9946 202.756C50.4906 203.727 50.2386 204.865 50.2386 206.172C50.2386 207.479 50.4906 208.627 50.9946 209.616C51.4986 210.605 52.1986 211.371 53.0946 211.912C54.0092 212.435 55.0546 212.696 56.2306 212.696ZM79.2229 216L74.9109 208.384H73.0629V216H69.1429V196.456H76.4789C77.9909 196.456 79.2789 196.727 80.3429 197.268C81.4069 197.791 82.2003 198.509 82.7229 199.424C83.2643 200.32 83.5349 201.328 83.5349 202.448C83.5349 203.736 83.1616 204.903 82.4149 205.948C81.6683 206.975 80.5576 207.684 79.0829 208.076L83.7589 216H79.2229ZM73.0629 205.444H76.3389C77.4029 205.444 78.1963 205.192 78.7189 204.688C79.2416 204.165 79.5029 203.447 79.5029 202.532C79.5029 201.636 79.2416 200.945 78.7189 200.46C78.1963 199.956 77.4029 199.704 76.3389 199.704H73.0629V205.444ZM91.0004 199.62V204.52H97.5804V207.628H91.0004V212.808H98.4204V216H87.0804V196.428H98.4204V199.62H91.0004ZM123.291 196.456V216H119.371V203.288L114.135 216H111.167L105.903 203.288V216H101.983V196.456H106.435L112.651 210.988L118.867 196.456H123.291ZM131.086 196.456V216H127.166V196.456H131.086ZM144.031 216.196C142.202 216.196 140.522 215.767 138.991 214.908C137.461 214.049 136.247 212.864 135.351 211.352C134.455 209.821 134.007 208.095 134.007 206.172C134.007 204.268 134.455 202.56 135.351 201.048C136.247 199.517 137.461 198.323 138.991 197.464C140.522 196.605 142.202 196.176 144.031 196.176C145.879 196.176 147.559 196.605 149.071 197.464C150.602 198.323 151.806 199.517 152.683 201.048C153.579 202.56 154.027 204.268 154.027 206.172C154.027 208.095 153.579 209.821 152.683 211.352C151.806 212.864 150.602 214.049 149.071 214.908C147.541 215.767 145.861 216.196 144.031 216.196ZM144.031 212.696C145.207 212.696 146.243 212.435 147.139 211.912C148.035 211.371 148.735 210.605 149.239 209.616C149.743 208.627 149.995 207.479 149.995 206.172C149.995 204.865 149.743 203.727 149.239 202.756C148.735 201.767 148.035 201.011 147.139 200.488C146.243 199.965 145.207 199.704 144.031 199.704C142.855 199.704 141.81 199.965 140.895 200.488C139.999 201.011 139.299 201.767 138.795 202.756C138.291 203.727 138.039 204.865 138.039 206.172C138.039 207.479 138.291 208.627 138.795 209.616C139.299 210.605 139.999 211.371 140.895 211.912C141.81 212.435 142.855 212.696 144.031 212.696Z" fill="white"/>
<defs>
<linearGradient id="paint0_linear_2692_2975" x1="56.7022" y1="-1.49232e-06" x2="70.0454" y2="55.5277" gradientUnits="userSpaceOnUse">
<stop stop-color="#DA286F"/>
<stop offset="1" stop-color="#EE4433"/>
</linearGradient>
<linearGradient id="paint1_linear_2692_2975" x1="96.2503" y1="18.7917" x2="98.0363" y2="28.8104" gradientUnits="userSpaceOnUse">
<stop stop-color="#DA286F"/>
<stop offset="1" stop-color="#EE4433"/>
</linearGradient>
<linearGradient id="paint2_linear_2692_2975" x1="91.6701" y1="6.25757" x2="92.8044" y2="12.9139" gradientUnits="userSpaceOnUse">
<stop stop-color="#DA286F"/>
<stop offset="1" stop-color="#EE4433"/>
</linearGradient>
<linearGradient id="paint3_linear_2692_2975" x1="38.9958" y1="24.9534" x2="42.8817" y2="45.9665" gradientUnits="userSpaceOnUse">
<stop stop-color="#DA286F"/>
<stop offset="1" stop-color="#EE4433"/>
</linearGradient>
<linearGradient id="paint4_linear_2692_2975" x1="50.3704" y1="64.6458" x2="52.0171" y2="74.3297" gradientUnits="userSpaceOnUse">
<stop stop-color="#DA286F"/>
<stop offset="1" stop-color="#EE4433"/>
</linearGradient>
<linearGradient id="paint5_linear_2692_2975" x1="50.7255" y1="49.3291" x2="52.0928" y2="56.5098" gradientUnits="userSpaceOnUse">
<stop stop-color="#DA286F"/>
<stop offset="1" stop-color="#EE4433"/>
</linearGradient>
<linearGradient id="paint6_linear_2692_2975" x1="92.5221" y1="71.1306" x2="93.6687" y2="77.8281" gradientUnits="userSpaceOnUse">
<stop stop-color="#DA286F"/>
<stop offset="1" stop-color="#EE4433"/>
</linearGradient>
<linearGradient id="paint7_linear_2692_2975" x1="26.984" y1="102.559" x2="28.7572" y2="136.098" gradientUnits="userSpaceOnUse">
<stop stop-color="#DA286F"/>
<stop offset="1" stop-color="#EE4433"/>
</linearGradient>
<linearGradient id="paint8_linear_2692_2975" x1="27.336" y1="105.346" x2="36.3023" y2="180.219" gradientUnits="userSpaceOnUse">
<stop stop-color="#DA286F"/>
<stop offset="1" stop-color="#EE4433"/>
</linearGradient>
<linearGradient id="paint9_linear_2692_2975" x1="78.2439" y1="65.509" x2="89.6001" y2="113.71" gradientUnits="userSpaceOnUse">
<stop stop-color="#DA286F"/>
<stop offset="1" stop-color="#EE4433"/>
</linearGradient>
</defs>
</svg>
