<svg width="89" height="109" viewBox="0 0 89 109" fill="none" xmlns="http://www.w3.org/2000/svg">
<path d="M54.1006 18.2356C53.6915 17.0023 52.6754 16.0448 51.5252 15.4491C50.8654 15.1094 50.0297 14.6725 50.0912 13.9335C50.1418 13.3334 50.5157 12.8303 50.718 12.2744C50.894 11.778 50.4123 11.2198 50.1088 10.9705C48.9916 10.0549 46.9528 11.6147 46.7681 10.1829C46.5834 8.75105 48.4286 7.78472 48.2086 3.78484C48.2022 3.20964 48.0904 2.64053 47.8787 2.10591C47.4543 1.07119 46.5394 0.201942 45.4397 0.0320632C44.505 -0.113547 43.5483 0.252685 42.7874 0.808653C42.0264 1.36462 41.3226 2.48979 40.7332 3.2355L40.7552 3.45612L40.731 3.2355C39.9942 2.63982 39.0705 1.69114 38.2062 1.31167C37.3419 0.932201 36.3324 0.779972 35.4505 1.12194C34.4124 1.52567 33.7042 2.57142 33.5107 3.67233C33.3172 4.77323 33.5855 5.91385 34.0583 6.9265C34.2 7.22568 34.3609 7.51531 34.54 7.79355C34.9184 8.38439 35.37 8.9248 35.8837 9.40188C38.2788 11.8706 42.0176 14.1585 44.9823 14.2269C45.5761 14.2423 46.3018 14.2931 46.5526 14.838C46.7725 15.3101 46.4492 15.8617 46.5394 16.3824C46.6669 17.117 47.5466 17.448 48.2988 17.4502C49.051 17.4524 49.8185 17.2693 50.4981 17.5495C50.7802 17.6677 51.0267 17.8576 51.2134 18.1004C51.4 18.3433 51.5204 18.6308 51.5626 18.9346C51.6047 19.2383 51.5673 19.5478 51.4539 19.8326C51.3405 20.1174 51.1551 20.3677 50.916 20.5587C50.0714 21.2206 48.842 20.9845 47.837 21.3508C47.3143 21.552 46.8656 21.9089 46.5511 22.3735C46.2366 22.8381 46.0713 23.3881 46.0775 23.9497C46.6691 22.8047 48.1559 22.5046 49.4402 22.4804C50.7246 22.4561 52.1344 22.5443 53.1615 21.7677C54.1885 20.9912 54.5096 19.4667 54.1006 18.2356Z" fill="url(#paint0_linear_2692_2699)"/>
<g opacity="0.8">
<path d="M54.1006 18.2356C53.6915 17.0023 52.6754 16.0448 51.5252 15.4491C50.8654 15.1094 50.0297 14.6725 50.0912 13.9335C50.1418 13.3334 50.5157 12.8303 50.718 12.2744C50.894 11.778 50.4123 11.2198 50.1088 10.9705C48.9916 10.0549 46.9528 11.6147 46.7681 10.1829C46.5834 8.75105 48.4286 7.78472 48.2086 3.78484C48.2022 3.20964 48.0904 2.64053 47.8787 2.10591C47.4543 1.07119 46.5394 0.201942 45.4397 0.0320632C44.505 -0.113547 43.5483 0.252685 42.7874 0.808653C42.0264 1.36462 41.3226 2.48979 40.7332 3.2355L40.7552 3.45612L40.731 3.2355C39.9942 2.63982 39.0705 1.69114 38.2062 1.31167C37.3419 0.932201 36.3324 0.779972 35.4505 1.12194C34.4124 1.52567 33.7042 2.57142 33.5107 3.67233C33.3172 4.77323 33.5855 5.91385 34.0583 6.9265C34.2 7.22568 34.3609 7.51531 34.54 7.79355C34.9184 8.38439 35.37 8.9248 35.8837 9.40188C38.2788 11.8706 42.0176 14.1585 44.9823 14.2269C45.5761 14.2423 46.3018 14.2931 46.5526 14.838C46.7725 15.3101 46.4492 15.8617 46.5394 16.3824C46.6669 17.117 47.5466 17.448 48.2988 17.4502C49.051 17.4524 49.8185 17.2693 50.4981 17.5495C50.7802 17.6677 51.0267 17.8576 51.2134 18.1004C51.4 18.3433 51.5204 18.6308 51.5626 18.9346C51.6047 19.2383 51.5673 19.5478 51.4539 19.8326C51.3405 20.1174 51.1551 20.3677 50.916 20.5587C50.0714 21.2206 48.842 20.9845 47.837 21.3508C47.3143 21.552 46.8656 21.9089 46.5511 22.3735C46.2366 22.8381 46.0713 23.3881 46.0775 23.9497C46.6691 22.8047 48.1559 22.5046 49.4402 22.4804C50.7246 22.4561 52.1344 22.5443 53.1615 21.7677C54.1885 20.9912 54.5096 19.4667 54.1006 18.2356Z" fill="white"/>
</g>
<path d="M57.6325 10.1872C57.3537 10.0216 57.0215 9.97169 56.7066 10.0482C56.3653 10.1572 56.0377 10.3053 55.7301 10.4895L55.7059 10.5601L55.7323 10.4851C55.6011 10.1499 55.4322 9.83083 55.2287 9.53418C55.0228 9.2846 54.7274 9.12615 54.4061 9.09293C54.2166 9.08974 54.0294 9.13456 53.8618 9.22327C53.6942 9.31197 53.5516 9.44167 53.4472 9.60036C53.242 9.92229 53.1399 10.2996 53.1547 10.6814C53.1652 11.2194 53.3246 11.7439 53.6151 12.1962C53.9056 12.6485 54.3158 13.0109 54.7998 13.2428C55.3275 13.3569 55.8764 13.3204 56.3844 13.1375C56.8925 12.9546 57.3393 12.6327 57.6743 12.2081C57.9149 11.912 58.0606 11.5497 58.0922 11.169C58.1032 10.9799 58.0669 10.791 57.9867 10.6195C57.9064 10.4481 57.7846 10.2995 57.6325 10.1872Z" fill="url(#paint1_linear_2692_2699)"/>
<g opacity="0.8">
<path d="M57.633 10.1872C57.3542 10.0216 57.022 9.97169 56.7071 10.0482C56.3658 10.1572 56.0381 10.3053 55.7306 10.4895L55.7064 10.5601L55.7328 10.4851C55.6016 10.1499 55.4326 9.83083 55.2292 9.53418C55.0233 9.2846 54.7279 9.12615 54.4066 9.09293C54.2171 9.08974 54.0299 9.13456 53.8623 9.22327C53.6947 9.31197 53.5521 9.44167 53.4477 9.60036C53.2425 9.92229 53.1404 10.2996 53.1552 10.6814C53.1657 11.2194 53.325 11.7439 53.6156 12.1962C53.9061 12.6485 54.3163 13.0109 54.8003 13.2428C55.328 13.3569 55.8769 13.3204 56.3849 13.1375C56.893 12.9546 57.3398 12.6327 57.6748 12.2081C57.9154 11.912 58.0611 11.5497 58.0927 11.169C58.1037 10.9799 58.0674 10.791 57.9872 10.6195C57.9069 10.4481 57.7851 10.2995 57.633 10.1872Z" fill="white"/>
</g>
<path d="M54.0208 3.47365C53.8143 3.38869 53.5829 3.38869 53.3764 3.47365C53.1528 3.57985 52.943 3.71322 52.7518 3.87077L52.7408 3.9193L52.7518 3.86635C52.632 3.64929 52.4881 3.4465 52.3229 3.26185C52.1604 3.10767 51.944 3.02369 51.7203 3.02799C51.5901 3.04375 51.466 3.09254 51.3598 3.16974C51.2536 3.24694 51.1688 3.35001 51.1133 3.46923C51.0012 3.70768 50.9651 3.97501 51.01 4.23479C51.0668 4.59686 51.2224 4.93608 51.4596 5.21489C51.6967 5.4937 52.0062 5.70121 52.3537 5.81445C52.7242 5.84427 53.0955 5.76959 53.4259 5.59883C53.7562 5.42807 54.0324 5.16804 54.2231 4.84812C54.3603 4.62455 54.427 4.36464 54.4145 4.10242C54.4068 3.97287 54.3667 3.84735 54.2979 3.73745C54.2291 3.62755 54.1338 3.53682 54.0208 3.47365Z" fill="url(#paint2_linear_2692_2699)"/>
<g opacity="0.8">
<path d="M54.0218 3.47389C53.8153 3.38893 53.5838 3.38893 53.3774 3.47389C53.1537 3.58009 52.944 3.71347 52.7528 3.87101L52.7418 3.91955L52.7528 3.8666C52.633 3.64954 52.4891 3.44675 52.3239 3.26209C52.1614 3.10792 51.945 3.02394 51.7213 3.02823C51.5911 3.044 51.467 3.09278 51.3608 3.16998C51.2546 3.24718 51.1698 3.35026 51.1143 3.46948C51.0022 3.70793 50.9661 3.97526 51.0109 4.23504C51.0678 4.5971 51.2234 4.93632 51.4605 5.21513C51.6977 5.49394 52.0072 5.70145 52.3547 5.81469C52.7251 5.84452 53.0965 5.76983 53.4268 5.59907C53.7572 5.42831 54.0333 5.16829 54.2241 4.84837C54.3613 4.62479 54.428 4.36488 54.4154 4.10266C54.4078 3.97311 54.3677 3.84759 54.2989 3.73769C54.2301 3.6278 54.1348 3.53707 54.0218 3.47389Z" fill="white"/>
</g>
<path d="M32.3627 12.0913C31.7139 12.2376 31.1484 12.6338 30.788 13.1944C30.4097 13.7327 30.1942 14.6284 29.9676 15.2462L30.0314 15.3874L29.9654 15.2395C29.3474 15.0189 28.5315 14.5953 27.8761 14.5335C27.2169 14.4455 26.5496 14.6206 26.0177 15.0211C25.7309 15.2842 25.5151 15.6156 25.3901 15.9848C25.2652 16.3539 25.2352 16.7486 25.3029 17.1325C25.4491 17.9021 25.8258 18.6086 26.3828 19.1578C27.154 19.9451 28.1284 20.5014 29.1971 20.7645C30.2657 21.0275 31.3862 20.9868 32.4331 20.647V20.658C33.3785 20.0817 34.1442 19.2513 34.6433 18.2609C35.1424 17.2705 35.355 16.1596 35.257 15.0542C35.2023 14.2732 34.9115 13.5274 34.4234 12.9164C34.1766 12.6163 33.8585 12.3835 33.4983 12.2393C33.1382 12.0951 32.7476 12.0442 32.3627 12.0913Z" fill="url(#paint3_linear_2692_2699)"/>
<g opacity="0.8">
<path d="M32.3627 12.0913C31.7139 12.2376 31.1484 12.6338 30.788 13.1944C30.4097 13.7327 30.1942 14.6284 29.9676 15.2462L30.0314 15.3874L29.9654 15.2395C29.3474 15.0189 28.5315 14.5953 27.8761 14.5335C27.2169 14.4455 26.5496 14.6206 26.0177 15.0211C25.7309 15.2842 25.5151 15.6156 25.3901 15.9848C25.2652 16.3539 25.2352 16.7486 25.3029 17.1325C25.4491 17.9021 25.8258 18.6086 26.3828 19.1578C27.154 19.9451 28.1284 20.5014 29.1971 20.7645C30.2657 21.0275 31.3862 20.9868 32.4331 20.647V20.658C33.3785 20.0817 34.1442 19.2513 34.6433 18.2609C35.1424 17.2705 35.355 16.1596 35.257 15.0542C35.2023 14.2732 34.9115 13.5274 34.4234 12.9164C34.1766 12.6163 33.8585 12.3835 33.4983 12.2393C33.1382 12.0951 32.7476 12.0442 32.3627 12.0913Z" fill="white"/>
</g>
<path d="M34.9029 31.281C34.5779 31.2698 34.2617 31.3879 34.0232 31.6097C33.7783 31.8737 33.565 32.1654 33.3876 32.479L33.4008 32.5518L33.3876 32.4746C33.1101 32.2447 32.8076 32.0471 32.4859 31.8855C32.1855 31.7631 31.8494 31.7631 31.549 31.8855C31.3819 31.9754 31.2399 32.1059 31.1362 32.2651C31.0324 32.4243 30.9702 32.6071 30.9552 32.7967C30.9319 33.1772 31.0248 33.5558 31.2213 33.8821C31.4883 34.351 31.8805 34.7358 32.3538 34.9931C32.8271 35.2504 33.3626 35.3699 33.9 35.3382C34.4165 35.181 34.8789 34.8819 35.2349 34.4749C35.5909 34.0679 35.8263 33.5691 35.9146 33.035C35.9814 32.6619 35.9339 32.2772 35.7782 31.9318C35.6993 31.7578 35.5776 31.6068 35.4245 31.4929C35.2713 31.379 35.0919 31.3061 34.9029 31.281Z" fill="url(#paint4_linear_2692_2699)"/>
<g opacity="0.8">
<path d="M34.9024 31.281C34.5774 31.2698 34.2612 31.3879 34.0227 31.6097C33.7778 31.8737 33.5645 32.1654 33.3871 32.479L33.4003 32.5518L33.3871 32.4746C33.1096 32.2447 32.8072 32.0471 32.4854 31.8855C32.185 31.7631 31.8489 31.7631 31.5485 31.8855C31.3814 31.9754 31.2395 32.1059 31.1357 32.2651C31.032 32.4243 30.9697 32.6071 30.9547 32.7967C30.9315 33.1772 31.0243 33.5558 31.2208 33.8821C31.4878 34.351 31.88 34.7358 32.3533 34.9931C32.8266 35.2504 33.3621 35.3699 33.8995 35.3382C34.416 35.181 34.8784 34.8819 35.2344 34.4749C35.5904 34.0679 35.8258 33.5691 35.9141 33.035C35.981 32.6619 35.9334 32.2772 35.7777 31.9318C35.6988 31.7578 35.5771 31.6068 35.424 31.4929C35.2708 31.379 35.0914 31.3061 34.9024 31.281Z" fill="white"/>
</g>
<path d="M33.4401 23.8834C33.2266 23.9482 33.0472 24.0949 32.9409 24.2916C32.8406 24.5191 32.7668 24.7575 32.7209 25.002L32.7451 25.0461L32.7187 24.9998C32.4876 24.9112 32.247 24.8498 32.0018 24.8167C31.8907 24.8114 31.7798 24.8282 31.6752 24.8661C31.5707 24.9039 31.4746 24.9621 31.3926 25.0373C31.3032 25.1328 31.2395 25.2495 31.2072 25.3764C31.1749 25.5033 31.1751 25.6363 31.2078 25.7631C31.2769 26.0164 31.4211 26.2426 31.6213 26.4118C31.8997 26.6551 32.2401 26.816 32.6044 26.8764C32.9687 26.9368 33.3426 26.8943 33.6842 26.7537C33.9864 26.5371 34.2218 26.2395 34.3634 25.895C34.5049 25.5505 34.547 25.173 34.4848 24.8056C34.4463 24.5453 34.3297 24.3029 34.1505 24.1107C34.0607 24.0159 33.9485 23.9453 33.8244 23.9056C33.7002 23.8659 33.568 23.8583 33.4401 23.8834Z" fill="url(#paint5_linear_2692_2699)"/>
<g opacity="0.8">
<path d="M33.4401 23.8834C33.2266 23.9482 33.0472 24.0949 32.9409 24.2916C32.8406 24.5191 32.7668 24.7575 32.7209 25.002L32.7451 25.0461L32.7187 24.9998C32.4876 24.9112 32.247 24.8498 32.0018 24.8167C31.8907 24.8114 31.7798 24.8282 31.6752 24.8661C31.5707 24.9039 31.4746 24.9621 31.3926 25.0373C31.3032 25.1328 31.2395 25.2495 31.2072 25.3764C31.1749 25.5033 31.1751 25.6363 31.2078 25.7631C31.2769 26.0164 31.4211 26.2426 31.6213 26.4118C31.8997 26.6551 32.2401 26.816 32.6044 26.8764C32.9687 26.9368 33.3426 26.8943 33.6842 26.7537C33.9864 26.5371 34.2218 26.2395 34.3634 25.895C34.5049 25.5505 34.547 25.173 34.4848 24.8056C34.4463 24.5453 34.3297 24.3029 34.1505 24.1107C34.0607 24.0159 33.9485 23.9453 33.8244 23.9056C33.7002 23.8659 33.568 23.8583 33.4401 23.8834Z" fill="white"/>
</g>
<path d="M54.446 34.8637C54.2388 34.7786 54.0066 34.7786 53.7994 34.8637C53.5757 34.9699 53.366 35.1033 53.1748 35.2608L53.1638 35.3116L53.1748 35.2564C53.051 35.0392 52.9035 34.8364 52.7349 34.6519C52.5727 34.4987 52.3573 34.4148 52.1345 34.4181C52.0039 34.4335 51.8794 34.4821 51.7728 34.5593C51.6662 34.6365 51.581 34.7398 51.5253 34.8593C51.4142 35.0973 51.3781 35.3636 51.4219 35.6227C51.4761 35.9893 51.6315 36.3335 51.8705 36.6162C52.1095 36.8989 52.4227 37.1088 52.7745 37.2222C53.1448 37.2531 53.5163 37.1789 53.8465 37.008C54.1767 36.8372 54.4523 36.5765 54.6417 36.2558C54.7799 36.0327 54.8467 35.7725 54.833 35.5101C54.8288 35.3782 54.791 35.2496 54.7232 35.1365C54.6555 35.0233 54.5601 34.9294 54.446 34.8637Z" fill="url(#paint6_linear_2692_2699)"/>
<g opacity="0.8">
<path d="M54.446 34.8637C54.2388 34.7786 54.0066 34.7786 53.7994 34.8637C53.5757 34.9699 53.366 35.1033 53.1748 35.2608L53.1638 35.3116L53.1748 35.2564C53.051 35.0392 52.9035 34.8364 52.7349 34.6519C52.5727 34.4987 52.3573 34.4148 52.1345 34.4181C52.0039 34.4335 51.8794 34.4821 51.7728 34.5593C51.6662 34.6365 51.581 34.7398 51.5253 34.8593C51.4142 35.0973 51.3781 35.3636 51.4219 35.6227C51.4761 35.9893 51.6315 36.3335 51.8705 36.6162C52.1095 36.8989 52.4227 37.1088 52.7745 37.2222C53.1448 37.2531 53.5163 37.1789 53.8465 37.008C54.1767 36.8372 54.4523 36.5765 54.6417 36.2558C54.7799 36.0327 54.8467 35.7725 54.833 35.5101C54.8288 35.3782 54.791 35.2496 54.7232 35.1365C54.6555 35.0233 54.5601 34.9294 54.446 34.8637Z" fill="white"/>
</g>
<path d="M70.1405 40.1191C60.3052 31.8965 49.8541 40.7369 49.8541 40.7369L49.8849 31.2501C49.9069 31.1972 49.9267 31.1927 49.9465 31.1883C50.5914 31.0547 51.1706 30.7018 51.5861 30.1893C52.0017 29.6767 52.2281 29.036 52.2272 28.3754V23.4401C52.0072 21.0463 44.5296 21.0816 44.0765 21.086C42.504 21.1059 36.9464 21.3221 36.7463 23.4401V28.3842C36.7452 29.0446 36.9713 29.685 37.3864 30.1975C37.8015 30.71 38.3802 31.0631 39.0247 31.1972L39.0885 31.2104L39.1171 40.4125C39.1171 40.4125 27.2123 31.1817 18.4546 39.8676C10.0687 48.1873 17.2208 61.4731 20.9772 66.8651C24.3598 71.7188 38.2704 84.6318 44.3646 85.1017C50.261 84.9275 62.4385 74.0706 65.5021 70.4547C70.7079 64.3191 79.9758 48.3395 70.1405 40.1191Z" fill="#FAFAFA"/>
<path d="M70.1402 40.1192L70.3601 40.3045L70.9759 40.8649C71.7452 41.6264 72.4074 42.4897 72.9443 43.4307C73.7902 44.9619 74.3008 46.6565 74.442 48.4013C74.5303 49.5033 74.5178 50.611 74.4046 51.7107C74.2603 52.9511 74.0206 54.1785 73.6877 55.3818C72.8962 58.1862 71.7724 60.8853 70.3403 63.4213C69.5416 64.8626 68.6695 66.2617 67.7275 67.6131C66.7297 69.0788 65.6131 70.4594 64.389 71.7409C63.12 73.0514 61.7388 74.3332 60.2851 75.6106C58.8314 76.888 57.294 78.1544 55.6666 79.3833C54.0076 80.6563 52.2736 81.8277 50.474 82.8912C49.5401 83.4394 48.5718 83.9265 47.5753 84.3495C46.5587 84.7989 45.474 85.0733 44.3665 85.1614C43.4498 85.0534 42.5548 84.8064 41.712 84.4289C40.8546 84.0558 40.0203 83.6315 39.2136 83.1581C37.5663 82.1811 35.9792 81.1054 34.4609 79.937C31.2829 77.5027 28.2704 74.8582 25.4437 72.0211C23.9613 70.5651 22.5708 69.0177 21.2805 67.3881C20.0372 65.6618 18.927 63.8431 17.9595 61.9475C16.9578 60.0232 16.1361 58.0099 15.5051 55.9334C14.8427 53.8246 14.5038 51.6271 14.5 49.4162C14.5088 47.9625 14.7312 46.5181 15.1598 45.1295C15.5957 43.7552 16.2654 42.4669 17.1392 41.3216C17.9993 40.1892 19.0238 39.1927 20.1786 38.3652C21.3217 37.5468 22.599 36.936 23.9526 36.5605C25.2883 36.1948 26.6738 36.0458 28.0565 36.1193C29.416 36.2015 30.7614 36.4413 32.0658 36.8341C34.6073 37.614 37.0036 38.8081 39.1586 40.3685L39.0662 40.4126C39.0574 37.2739 39.0486 34.2065 39.0398 31.2105L39.0838 31.2634C38.7016 31.195 38.3371 31.0499 38.0121 30.8369C37.6871 30.6238 37.4083 30.3472 37.1924 30.0235C36.9804 29.7024 36.8312 29.3437 36.7526 28.9667C36.6947 28.5939 36.6748 28.2162 36.6932 27.8393C36.6932 26.3509 36.6932 24.8845 36.6932 23.4401C36.7172 23.2417 36.7832 23.0506 36.8867 22.8798C36.9926 22.7124 37.1248 22.5634 37.2782 22.4385C37.5804 22.2009 37.9181 22.0125 38.2789 21.8803C38.98 21.6184 39.7069 21.432 40.4474 21.3244C41.1798 21.2075 41.9099 21.1346 42.6335 21.0883C43.3571 21.042 44.0806 21.0199 44.7932 21.0398C46.1944 21.0603 47.5918 21.1931 48.9719 21.4369C49.6446 21.5572 50.3024 21.7502 50.9337 22.0127C51.2461 22.147 51.5361 22.3285 51.7936 22.551C52.058 22.7751 52.2304 23.0895 52.2774 23.4335C52.2774 25.0191 52.2774 26.5583 52.2774 28.0511C52.2977 28.4259 52.2614 28.8015 52.1697 29.1653C52.0688 29.5224 51.9025 29.8576 51.6792 30.1537C51.4596 30.4458 51.1855 30.6923 50.8721 30.8795C50.7181 30.9726 50.5553 31.0502 50.386 31.1112C50.302 31.143 50.216 31.1695 50.1287 31.1906L49.999 31.2237C49.9418 31.2391 49.9484 31.2237 49.9308 31.2678V31.2524C49.9176 34.7051 49.9044 37.849 49.8934 40.7391L49.8362 40.7126C50.5032 40.18 51.2081 39.697 51.9453 39.2676C52.6374 38.8584 53.3527 38.4901 54.0875 38.1645C55.4213 37.5538 56.8246 37.1093 58.2661 36.8407C59.5068 36.6068 60.773 36.5393 62.0313 36.64C63.0792 36.7216 64.1132 36.9312 65.1104 37.2643C65.5656 37.3967 65.9703 37.5864 66.3574 37.7365C66.7445 37.8865 67.0853 38.085 67.4064 38.2483L68.2686 38.7513L68.9482 39.2124C69.0493 39.283 69.1461 39.3448 69.2341 39.4088L69.4694 39.5941L69.8345 39.8831C70.0302 40.0375 70.127 40.1192 70.127 40.1192L69.8279 39.8986L69.4606 39.6162L69.2231 39.4308L68.9372 39.2367L68.2554 38.78L67.3932 38.2836C67.0721 38.1225 66.7225 37.9483 66.3442 37.7762C65.9659 37.6041 65.5524 37.4408 65.0994 37.3107C64.1018 36.9811 63.0678 36.7752 62.0204 36.6973C60.7645 36.5992 59.5012 36.6696 58.2639 36.9069C56.8334 37.1706 55.4399 37.6069 54.1139 38.2064C53.3816 38.5329 52.6686 38.9013 51.9783 39.3095C51.2466 39.7401 50.5461 40.2223 49.8824 40.7524L49.823 40.8009V40.7237C49.823 37.8424 49.8384 34.6985 49.8472 31.2369V31.2215C49.8578 31.1922 49.877 31.1668 49.9022 31.1487C49.9262 31.1381 49.9513 31.13 49.977 31.1244L50.1045 31.0935C50.1891 31.0739 50.2722 31.0481 50.353 31.0163C50.5164 30.9576 50.674 30.8837 50.8237 30.7957C51.1281 30.6138 51.3941 30.374 51.6067 30.0897C51.8223 29.8017 51.9833 29.4764 52.0817 29.13C52.1705 28.774 52.2053 28.4066 52.1851 28.0401C52.1851 26.5458 52.1851 25.0066 52.1851 23.4225C52.1408 23.1015 51.9784 22.8087 51.7298 22.6018C51.4806 22.3853 51.1994 22.2089 50.8963 22.0789C50.2709 21.821 49.6199 21.6309 48.9543 21.5119C47.5791 21.2705 46.187 21.1392 44.791 21.1192C44.0806 21.1016 43.3637 21.1192 42.6401 21.1699C41.9165 21.2207 41.1907 21.2891 40.465 21.406C39.7313 21.5132 39.0111 21.6981 38.3163 21.9576C37.9675 22.0869 37.641 22.27 37.3486 22.5003C37.2053 22.6166 37.0807 22.7542 36.9791 22.9084C36.8849 23.0654 36.8249 23.2406 36.8031 23.4225V27.8371C36.7843 28.2059 36.8042 28.5757 36.8625 28.9403C36.9358 29.3033 37.0784 29.6487 37.2826 29.9573C37.49 30.2689 37.758 30.5352 38.0706 30.7403C38.3831 30.9454 38.7337 31.085 39.1014 31.1509H39.1476V31.1994C39.1564 34.194 39.1667 37.2614 39.1784 40.4016V40.5163L39.086 40.4479C36.9395 38.8918 34.5531 37.6993 32.0219 36.9179C30.724 36.5322 29.386 36.2983 28.0345 36.2208C26.6643 36.1504 25.2916 36.2994 23.968 36.662C22.6275 37.0358 21.3622 37.6413 20.2292 38.4513C19.0842 39.2718 18.0685 40.2602 17.2161 41.3833C16.3521 42.5179 15.6913 43.7944 15.2632 45.156C14.8363 46.5329 14.614 47.9654 14.6034 49.4074C14.6091 51.6061 14.9457 53.7913 15.6019 55.8892C16.232 57.958 17.0515 59.9639 18.0497 61.8813C19.0129 63.7714 20.1194 65.5843 21.3596 67.3042C22.6447 68.9351 24.0315 70.4826 25.5119 71.9373C28.3326 74.7721 31.3392 77.4144 34.5115 79.8466C36.0263 81.0132 37.6097 82.0874 39.2532 83.0633C40.0562 83.5338 40.886 83.9566 41.7384 84.3296C42.5709 84.7022 43.4547 84.9469 44.3599 85.0555C45.4545 84.9681 46.5266 84.6967 47.5313 84.2524C48.5238 83.8333 49.4878 83.3491 50.4168 82.8029C52.2133 81.7419 53.945 80.5742 55.6028 79.3061C57.2303 78.0794 58.7632 76.813 60.2213 75.54C61.6795 74.2671 63.054 72.9874 64.3252 71.6792C65.5446 70.4039 66.6589 69.0315 67.6572 67.5756C68.5978 66.2237 69.4692 64.8247 70.2677 63.3838C71.701 60.8553 72.827 58.1637 73.6217 55.3664C73.9563 54.1644 74.1989 52.9386 74.3474 51.6996C74.4602 50.6052 74.4749 49.5028 74.3914 48.4057C74.2541 46.6663 73.7504 44.9759 72.9135 43.4462C72.3803 42.506 71.7243 41.6416 70.9627 40.8759L70.3513 40.3111C70.2084 40.192 70.1402 40.1192 70.1402 40.1192Z" fill="#263238"/>
<path d="M40.5992 31.5303H48.7366V44.7566C48.7366 44.7566 49.3854 44.1918 49.7285 43.8873C49.7285 43.8873 59.6891 34.4778 68.2664 41.6259C77.178 49.0499 68.3566 63.4278 63.6479 68.9831C60.8768 72.2505 49.8561 82.0792 44.5139 82.2358C38.9981 81.81 25.9144 69.1684 23.3522 65.7355C20.4932 61.8923 12.3557 48.3351 21.2563 40.9001C29.4597 34.0476 39.4423 43.36 39.4423 43.36L40.6982 44.6043L40.6014 31.5347" fill="#F5F5F5"/>
<path d="M52.1458 23.4665C52.1458 24.8013 48.7808 25.9662 44.5318 25.9662C40.2827 25.9662 36.7309 24.8807 36.8342 23.5393C36.9618 21.9487 40.2805 21.1235 44.5318 21.1235C48.783 21.1235 52.1458 22.134 52.1458 23.4665Z" fill="#EBEBEB"/>
<path d="M43.5243 51.223C28.5119 46.8106 20.2315 52.7519 18.2147 54.4926C18.0412 54.6431 17.9245 54.849 17.8845 55.0756C17.8444 55.3022 17.8834 55.5358 17.9948 55.7369C18.9383 57.449 23.1786 61.4731 42.2267 63.1388C65.5658 65.1796 72.0713 50.9825 72.0713 50.9825C72.0713 50.9825 60.9736 56.3348 43.5243 51.223Z" fill="url(#paint7_linear_2692_2699)"/>
<path d="M18.0454 55.8408C19.4772 59.5318 21.5489 62.9823 23.2094 65.4423C26.6491 70.5386 38.8552 81.519 44.3711 81.9426C49.7044 81.786 60.7229 71.9572 63.505 68.692C66.639 64.9988 70.6813 59.4612 72.0823 50.9739C72.0823 50.9739 62.6957 57.3168 60.1445 57.2462C49.2051 56.9594 18.0454 55.8408 18.0454 55.8408Z" fill="url(#paint8_linear_2692_2699)"/>
<g opacity="0.4">
<path d="M43.5243 51.223C28.5119 46.8106 20.2315 52.7519 18.2147 54.4926C18.0412 54.6431 17.9245 54.849 17.8845 55.0756C17.8444 55.3022 17.8834 55.5358 17.9948 55.7369C18.9383 57.449 23.1786 61.4731 42.2267 63.1388C65.5658 65.1796 72.0713 50.9825 72.0713 50.9825C72.0713 50.9825 60.9736 56.3348 43.5243 51.223Z" fill="white"/>
</g>
<g opacity="0.2">
<path d="M54.6308 66.32C54.1754 66.1187 53.6593 66.1061 53.1946 66.2847C52.7284 66.4413 52.205 66.8848 51.7959 67.1672L51.7739 67.2797L51.7959 67.1606C51.5276 66.7502 51.2175 66.1369 50.8502 65.8081C50.4911 65.4637 50.012 65.2737 49.5152 65.2787C49.2273 65.3091 48.9517 65.4118 48.7138 65.5772C48.4759 65.7426 48.2833 65.9654 48.1538 66.2251C47.9023 66.7534 47.8178 67.3462 47.9119 67.9239C48.0296 68.7405 48.3715 69.5082 48.8993 70.141C49.4272 70.7738 50.1202 71.2467 50.9008 71.5068C51.7256 71.5794 52.5541 71.4188 53.2927 71.0434C54.0312 70.6679 54.6501 70.0924 55.0794 69.3822C55.3915 68.8872 55.545 68.3083 55.5193 67.7232C55.5008 67.4332 55.4097 67.1526 55.2544 66.9073C55.099 66.662 54.8846 66.46 54.6308 66.32Z" fill="black"/>
</g>
<g opacity="0.1">
<path d="M44.7271 67.9703C44.4792 68.0211 44.2612 68.1677 44.1201 68.3785C43.9822 68.6231 43.873 68.883 43.7946 69.1529L43.8188 69.2058L43.7946 69.1507C43.5434 69.0253 43.2784 68.9298 43.0051 68.866C42.7554 68.8291 42.5012 68.8916 42.2969 69.0403C42.1865 69.1384 42.1025 69.2628 42.0525 69.4019C42.0026 69.5411 41.9883 69.6906 42.011 69.8368C42.0602 70.1303 42.1984 70.4015 42.4069 70.6134C42.6939 70.9182 43.0601 71.1366 43.4643 71.2438C43.8684 71.351 44.2944 71.3428 44.6941 71.2201C45.0575 71.0081 45.3542 70.698 45.5506 70.3251C45.7469 69.9522 45.835 69.5315 45.8048 69.1109C45.7904 68.8142 45.6852 68.5292 45.5035 68.2946C45.4113 68.1799 45.292 68.09 45.1564 68.0334C45.0208 67.9767 44.8732 67.9551 44.7271 67.9703Z" fill="black"/>
</g>
<g opacity="0.1">
<path d="M60.9072 65.1994C60.6715 65.1257 60.4164 65.1479 60.1969 65.2612C59.9651 65.4054 59.7503 65.5757 59.5569 65.7686V65.8237V65.7664C59.4017 65.5409 59.2209 65.3344 59.018 65.1508C58.8211 65.002 58.5744 64.9356 58.3297 64.9655C58.1894 64.9965 58.0592 65.0628 57.9515 65.1581C57.8438 65.2534 57.762 65.3747 57.7139 65.5105C57.6183 65.7842 57.6091 66.0807 57.6875 66.3599C57.7908 66.7548 58.0013 67.1132 58.2957 67.3952C58.59 67.6772 58.9565 67.8717 59.3545 67.9572C59.7638 67.9466 60.162 67.8216 60.5043 67.5963C60.8467 67.371 61.1195 67.0544 61.2921 66.682C61.4183 66.4211 61.462 66.1279 61.4175 65.8414C61.3927 65.7001 61.333 65.5674 61.2439 65.4552C61.1547 65.3431 61.039 65.2551 60.9072 65.1994Z" fill="black"/>
</g>
<g opacity="0.2">
<path d="M50.7119 72.7382C50.5441 72.7699 50.3951 72.8656 50.2962 73.0051C50.2036 73.1691 50.1298 73.343 50.0763 73.5236L50.0917 73.5589L50.0763 73.5214C49.9085 73.4346 49.7315 73.3672 49.5485 73.3206C49.381 73.2928 49.2093 73.3307 49.069 73.4265C48.9927 73.4909 48.9339 73.5737 48.8981 73.667C48.8623 73.7604 48.8508 73.8614 48.8645 73.9604C48.8938 74.1587 48.9837 74.3429 49.1218 74.4877C49.3116 74.6984 49.5565 74.8514 49.8286 74.9293C50.1008 75.0073 50.3892 75.0072 50.6613 74.929C50.9088 74.791 51.1128 74.5862 51.2501 74.3378C51.3873 74.0893 51.4523 73.8073 51.4377 73.5236C51.4315 73.3228 51.364 73.1287 51.2441 72.9676C51.1822 72.8871 51.1008 72.8238 51.0077 72.7837C50.9145 72.7435 50.8127 72.7279 50.7119 72.7382Z" fill="white"/>
</g>
<g opacity="0.2">
<path d="M38.1384 72.8172C38.0628 72.7796 37.9806 72.7574 37.8965 72.7517C37.8123 72.746 37.7279 72.757 37.648 72.7841C37.4733 72.8567 37.3079 72.9501 37.1553 73.0621V73.0996V73.0599C37.0735 72.8894 36.9716 72.7294 36.8518 72.5833C36.7368 72.4615 36.579 72.3895 36.412 72.3826C36.3126 72.3884 36.2164 72.4196 36.1324 72.4733C36.0485 72.5269 35.9797 72.6013 35.9325 72.6892C35.8387 72.8656 35.8011 73.0666 35.8247 73.2651C35.8521 73.5466 35.9575 73.8148 36.1289 74.0393C36.3003 74.2639 36.5309 74.4359 36.7946 74.5358C37.0754 74.5737 37.3611 74.5318 37.6193 74.4148C37.8775 74.2977 38.0977 74.1104 38.255 73.874C38.369 73.7096 38.4297 73.5139 38.4287 73.3136C38.4267 73.2129 38.3989 73.1143 38.3481 73.0274C38.2973 72.9405 38.2251 72.8681 38.1384 72.8172Z" fill="white"/>
</g>
<g opacity="0.2">
<path d="M43.0958 64.9236C42.9602 64.8204 42.7899 64.7737 42.6208 64.7935C42.4363 64.8309 42.2569 64.8901 42.0863 64.9699L42.0688 65.0052L42.0863 64.9677C42.038 64.7849 41.9694 64.608 41.8818 64.4405C41.8372 64.3686 41.7788 64.3063 41.7101 64.2571C41.6415 64.2079 41.5638 64.1727 41.4815 64.1536C41.3831 64.1394 41.2826 64.1508 41.1898 64.1868C41.097 64.2227 41.0149 64.2819 40.9515 64.3588C40.8239 64.5134 40.7471 64.7037 40.7316 64.9038C40.7037 65.1847 40.7544 65.4679 40.8779 65.7216C41.0014 65.9752 41.1929 66.1894 41.431 66.34C41.6996 66.4298 41.9876 66.4435 42.2635 66.3797C42.5394 66.3158 42.7924 66.1769 42.9947 65.9782C43.1374 65.8379 43.2353 65.6582 43.2762 65.4619C43.2932 65.3642 43.2856 65.2638 43.2541 65.1698C43.2226 65.0758 43.1682 64.9912 43.0958 64.9236Z" fill="white"/>
</g>
<g opacity="0.2">
<path d="M64.4503 61.1068C64.2888 61.1601 64.1541 61.2739 64.0742 61.4245C63.9985 61.5982 63.9439 61.7804 63.9114 61.9672L63.9312 62.0003L63.9092 61.965C63.7326 61.8992 63.5487 61.8547 63.3616 61.8326C63.2776 61.8284 63.1935 61.8408 63.1143 61.8692C63.035 61.8976 62.9621 61.9414 62.8998 61.9981C62.8325 62.0719 62.7847 62.1615 62.7609 62.2586C62.7371 62.3558 62.7379 62.4573 62.7634 62.554C62.8193 62.7458 62.9312 62.9163 63.0845 63.0438C63.2988 63.2274 63.56 63.3473 63.8385 63.3902C64.1171 63.4331 64.402 63.3972 64.6614 63.2865C64.8895 63.118 65.066 62.8887 65.1709 62.6248C65.2759 62.3608 65.3051 62.0726 65.2552 61.7929C65.2237 61.5945 65.1324 61.4104 64.9935 61.2656C64.9231 61.1961 64.8367 61.1451 64.7419 61.1174C64.647 61.0897 64.5468 61.086 64.4503 61.1068Z" fill="white"/>
</g>
<g opacity="0.2">
<path d="M30.5198 67.1277C30.3841 67.0244 30.2139 66.9778 30.0447 66.9975C29.8599 67.0352 29.6799 67.0936 29.5081 67.1718C29.4618 66.9879 29.3939 66.8102 29.3058 66.6423C29.215 66.4982 29.0711 66.3959 28.9055 66.3577C28.8067 66.3435 28.7059 66.355 28.6128 66.3909C28.5196 66.4268 28.4372 66.486 28.3733 66.5629C28.2465 66.718 28.1698 66.908 28.1533 67.1078C28.1257 67.389 28.1767 67.6723 28.3006 67.926C28.4245 68.1797 28.6165 68.3937 28.8549 68.5441C29.1231 68.6354 29.4115 68.6497 29.6874 68.5854C29.9633 68.5211 30.2158 68.3807 30.4164 68.1801C30.5609 68.042 30.6593 67.8624 30.6979 67.666C30.7154 67.5685 30.7082 67.4682 30.6771 67.3741C30.646 67.2801 30.5919 67.1954 30.5198 67.1277Z" fill="white"/>
</g>
<g opacity="0.1">
<path d="M26.9699 62.5034C26.7349 62.4296 26.4804 62.4518 26.2617 62.5651C26.0291 62.7083 25.8143 62.8786 25.6217 63.0726V63.1299V63.0704C25.4651 62.846 25.2836 62.6402 25.0807 62.457C24.8853 62.3067 24.6389 62.2393 24.3945 62.2695C24.2541 62.3009 24.1239 62.3673 24.0159 62.4625C23.9079 62.5578 23.8255 62.6788 23.7765 62.8144C23.6821 63.0883 23.6729 63.3846 23.7501 63.6638C23.8533 64.0594 24.064 64.4185 24.3587 64.7009C24.6535 64.9834 25.0207 65.1781 25.4194 65.2633C25.8289 65.2526 26.2273 65.1273 26.5696 64.9016C26.9119 64.6759 27.1846 64.3588 27.357 63.9859C27.4824 63.7249 27.5254 63.4316 27.4801 63.1454C27.4557 63.004 27.3962 62.871 27.307 62.7588C27.2178 62.6466 27.1019 62.5587 26.9699 62.5034Z" fill="black"/>
</g>
<g opacity="0.2">
<path d="M38.3089 67.1079C37.9643 66.8839 37.5456 66.8047 37.1433 66.8873C36.7408 66.9491 36.2526 67.2381 35.8809 67.4058L35.8457 67.494L35.8831 67.3992C35.7181 67.0263 35.551 66.4836 35.2959 66.1659C35.1758 66.0005 35.0241 65.8608 34.8496 65.7547C34.6752 65.6487 34.4815 65.5784 34.2798 65.5481C34.04 65.5333 33.8003 65.5795 33.583 65.6825C33.3658 65.7855 33.178 65.9419 33.0372 66.1372C32.7567 66.5325 32.6033 67.0044 32.5973 67.4896C32.5803 68.1722 32.7532 68.8461 33.0966 69.4357C33.44 70.0253 33.9403 70.5073 34.5415 70.8276C35.2038 71.0015 35.9014 70.9858 36.5552 70.7822C37.2091 70.5787 37.793 70.1954 38.2408 69.676C38.5629 69.3149 38.7677 68.8639 38.828 68.3831C38.8553 68.1439 38.8221 67.9017 38.7313 67.6788C38.6406 67.4559 38.4953 67.2596 38.3089 67.1079Z" fill="black"/>
</g>
<g opacity="0.2">
<path d="M46.392 76.0782C46.1119 75.8938 45.7709 75.8265 45.4419 75.8907C45.0836 75.9913 44.7382 76.1334 44.4127 76.3143L44.3841 76.3849L44.4127 76.3099C44.2936 75.9569 44.1334 75.6192 43.9354 75.3038C43.7361 75.0325 43.4382 74.8509 43.1063 74.7986C42.9106 74.7872 42.7153 74.8253 42.5381 74.9093C42.361 74.9933 42.2077 75.1206 42.0924 75.2796C41.8666 75.6031 41.7439 75.9877 41.7405 76.3827C41.728 76.9405 41.8708 77.4908 42.1528 77.9718C42.4349 78.4527 42.845 78.8452 43.3372 79.1052C43.8772 79.2462 44.4457 79.233 44.9785 79.0669C45.5114 78.9008 45.9873 78.5885 46.3524 78.1653C46.6162 77.8713 46.7835 77.5032 46.8319 77.1107C46.8519 76.9153 46.822 76.7181 46.745 76.5374C46.6681 76.3568 46.5466 76.1988 46.392 76.0782Z" fill="black"/>
</g>
<path d="M60.7688 55.5735L60.6654 55.6021L60.3597 55.6794C60.2256 55.7103 60.0606 55.7566 59.8627 55.7963L59.1765 55.9243C57.7117 56.1594 56.2266 56.2422 54.7449 56.1713C52.55 56.0513 50.3697 55.7405 48.2284 55.2425C45.8091 54.7108 43.1832 53.9585 40.4032 53.2922C37.6233 52.626 34.9292 52.156 32.4528 52.1097C30.2575 52.0425 28.0659 52.3316 25.9626 52.9657C24.5523 53.4021 23.2171 54.0532 22.0039 54.8962L21.4452 55.3109C21.2847 55.4345 21.1593 55.5514 21.0516 55.6374L20.8118 55.8404L20.7261 55.9066C20.7261 55.9066 20.7525 55.8779 20.803 55.8316L21.0362 55.611C21.1417 55.5205 21.2561 55.4014 21.4233 55.2734L21.9775 54.8498C23.1858 53.9849 24.5215 53.3149 25.9362 52.8642C28.044 52.2174 30.2428 51.9194 32.4462 51.9817C34.9336 52.0214 37.6387 52.4936 40.4208 53.1576C43.203 53.8217 45.8245 54.5807 48.2416 55.1168C50.377 55.619 52.5511 55.9379 54.7405 56.0699C56.2173 56.1472 57.6981 56.077 59.1611 55.8603L59.8473 55.7433C60.0452 55.7058 60.2102 55.6661 60.3465 55.6374L60.6522 55.5735H60.7688Z" fill="white"/>
<path d="M64.202 55.8186C64.1547 55.8665 64.1032 55.9101 64.0481 55.9488L63.5906 56.2974L63.2585 56.5533C63.1354 56.6437 62.9968 56.7342 62.8494 56.8357C62.5525 57.0364 62.2248 57.2769 61.8356 57.4975L61.2352 57.8682C61.0152 57.9961 60.7953 58.1131 60.5754 58.241C60.1157 58.5058 59.6033 58.7463 59.0688 59.0088C56.7257 60.1009 54.2363 60.8441 51.6792 61.215C51.0898 61.29 50.5312 61.3695 50.0033 61.4003C49.7394 61.4202 49.4843 61.4467 49.2402 61.4555L48.5342 61.4776C48.0943 61.5018 47.6787 61.4776 47.3202 61.4776C47.142 61.4776 46.9771 61.4776 46.8231 61.4665L46.4075 61.4356L45.829 61.3915C45.7619 61.3879 45.695 61.3798 45.6289 61.3673C45.6962 61.3615 45.7639 61.3615 45.8312 61.3673L46.4097 61.3893L46.8253 61.4092C46.9793 61.4092 47.1442 61.4092 47.3224 61.4092C47.6787 61.4092 48.0833 61.4224 48.532 61.3937L49.2336 61.365C49.4777 61.3518 49.7306 61.3231 49.9945 61.3033C50.5202 61.268 51.0766 61.1841 51.6638 61.1047C52.9335 60.9064 54.189 60.6256 55.4224 60.2641C56.6509 59.8891 57.8536 59.4336 59.0227 58.9007C59.5571 58.6426 60.0695 58.4065 60.527 58.1484C60.7579 58.0204 60.9866 57.9057 61.1978 57.7821L61.8004 57.4203C62.1897 57.1997 62.5218 56.9614 62.8209 56.7585C62.9682 56.6592 63.109 56.5709 63.2343 56.4849L63.573 56.2378L64.0415 55.9024C64.0934 55.8715 64.147 55.8435 64.202 55.8186Z" fill="white"/>
<path d="M67.2655 61.9297C67.2557 61.9502 67.2447 61.9701 67.2326 61.9893L67.127 62.1525L66.7179 62.7791C66.5398 63.0527 66.3176 63.3836 66.0449 63.7586C65.7722 64.1337 65.4775 64.5683 65.119 65.0272L64.5648 65.7531C64.3713 66.0046 64.1579 66.2583 63.9424 66.5252C63.5179 67.0614 63.0341 67.6107 62.5304 68.1932C61.5034 69.3404 60.3311 70.5626 59.0358 71.7761C57.7404 72.9895 56.4296 74.0683 55.2134 75.0104C54.5976 75.4737 54.0169 75.9171 53.4539 76.3032C53.1724 76.4974 52.9063 76.6937 52.6402 76.868L51.877 77.371C51.3954 77.6953 50.9401 77.9623 50.5574 78.205C50.1748 78.4477 49.8207 78.6462 49.5348 78.8051L48.875 79.1691L48.7034 79.2618L48.644 79.2904C48.6608 79.2751 48.6792 79.2618 48.699 79.2507L48.864 79.1492L49.5062 78.7631C49.7855 78.5999 50.1264 78.3969 50.5157 78.1476C50.9049 77.8983 51.3558 77.6292 51.8352 77.2982L52.594 76.793C52.8557 76.6143 53.1218 76.4179 53.4011 76.2216C53.962 75.8333 54.5382 75.3876 55.1606 74.9243C56.3702 73.9779 57.6678 72.8946 58.9676 71.69C60.2674 70.4854 61.433 69.2632 62.4601 68.1181C62.9659 67.5401 63.452 66.9952 63.8786 66.4613C64.0985 66.1965 64.3185 65.945 64.5054 65.6957L65.064 64.9765C65.4269 64.5198 65.7238 64.094 66.0053 63.7189C66.2869 63.3439 66.509 63.0218 66.6915 62.7526L67.1204 62.1393C67.1688 62.0753 67.2062 62.0224 67.2348 61.9804C67.2436 61.9627 67.2539 61.9457 67.2655 61.9297Z" fill="white"/>
<path d="M72.0713 50.9739C72.0713 50.9739 72.0515 51.0224 72.0076 51.1173L71.8162 51.5298L71.6733 51.8343C71.6161 51.9446 71.5457 52.0549 71.4731 52.1895C71.3126 52.4863 71.1364 52.7742 70.9453 53.0521C70.8397 53.211 70.7254 53.3787 70.6088 53.5529L70.2019 54.0913C70.1294 54.1817 70.0568 54.2766 69.982 54.3715C69.9072 54.4663 69.8193 54.5546 69.7379 54.6494C69.5685 54.837 69.4058 55.0421 69.2145 55.2341C68.3688 56.1235 67.4458 56.9357 66.4565 57.6609C65.2605 58.5431 63.993 59.3231 62.6671 59.9929C61.1416 60.7544 59.5537 61.3833 57.921 61.8726C54.1706 62.9768 50.2736 63.4976 46.3659 63.417C38.0635 63.2184 30.6145 61.8726 25.3999 60.3283C24.2325 59.9568 23.1023 59.4767 22.024 58.8942C21.2108 58.4523 20.438 57.9392 19.7147 57.3609C19.4134 57.127 19.1671 56.8954 18.945 56.699C18.7228 56.5027 18.5513 56.3284 18.4127 56.185L18.0982 55.854L17.9927 55.7393L18.107 55.8452L18.4281 56.1673C18.5711 56.3085 18.7558 56.474 18.9692 56.6725C19.1825 56.8711 19.442 57.0895 19.7433 57.319C20.4686 57.8891 21.242 58.3947 22.0548 58.8302C23.1332 59.4041 24.2617 59.8775 25.4263 60.2444C30.6321 61.7579 38.0811 63.0926 46.3681 63.289C50.2638 63.3726 54.1494 62.8585 57.8902 61.7645C59.5177 61.2797 61.101 60.6568 62.6231 59.9025C63.9457 59.2381 65.211 58.4648 66.4059 57.5903C67.3946 56.8724 68.3182 56.0685 69.1661 55.1878C69.3574 54.998 69.5202 54.7951 69.6895 54.6097L69.9358 54.334L70.1558 54.056L70.5648 53.5331L70.9057 53.0389C71.1256 52.73 71.2906 52.4344 71.4401 52.1829C71.5127 52.0549 71.5853 51.9402 71.6447 51.8321L71.792 51.5298C71.88 51.3534 71.9482 51.2188 71.9944 51.1217C72.0406 51.0246 72.0713 50.9739 72.0713 50.9739Z" fill="white"/>
<path d="M61.5319 53.8704C61.4993 53.8782 61.4662 53.8834 61.4329 53.8859L61.1382 53.9212C60.8787 53.9543 60.4938 53.9785 59.9989 54.005C59.0071 54.0491 57.5797 54.0447 55.8005 53.9454C54.0212 53.8462 51.9253 53.6542 49.6028 53.3255C48.4438 53.16 47.2276 52.9549 45.985 52.6636C44.7424 52.3724 43.4712 52.0172 42.1648 51.6686C40.8584 51.32 39.5784 51.0068 38.3248 50.7707C37.1213 50.5519 35.9046 50.4141 34.6828 50.3581C33.5149 50.3008 32.4021 50.314 31.3618 50.3581C30.3215 50.4023 29.3605 50.5258 28.4829 50.6472C27.1001 50.8504 25.7338 51.1535 24.3944 51.5539L23.7654 51.7481L23.3102 51.9069L23.0287 52.0018C22.9964 52.0138 22.9634 52.0234 22.9297 52.0304C22.9601 52.0146 22.9917 52.0013 23.0243 51.9907L23.3014 51.8848L23.7544 51.715C23.9348 51.6532 24.1437 51.587 24.3812 51.5098C25.7185 51.0915 27.0852 50.7744 28.4697 50.5611C29.3495 50.4354 30.3149 50.3184 31.3574 50.2566C32.4663 50.1933 33.5776 50.1867 34.6872 50.2368C35.9147 50.2905 37.1372 50.4261 38.3468 50.6427C39.6048 50.8634 40.887 51.1921 42.1956 51.5429C43.5042 51.8937 44.7732 52.2467 46.0114 52.5379C47.2496 52.8291 48.4614 53.0453 49.6204 53.2152C51.9363 53.5505 54.0388 53.7425 55.8049 53.8594C57.5709 53.9763 59.0071 53.9874 59.9967 53.9565C60.4916 53.9366 60.8765 53.919 61.136 53.8947L61.4307 53.8726L61.5319 53.8704Z" fill="white"/>
<path d="M48.1382 45.2904C48.1382 45.2904 48.1558 45.2683 48.1954 45.233C48.235 45.1977 48.2965 45.1382 48.3713 45.072L49.0553 44.4675C49.6535 43.949 50.5244 43.1989 51.6725 42.365C53.0117 41.3768 54.4761 40.5718 56.0271 39.9712C57.9377 39.2435 59.9732 38.9031 62.0158 38.9696C63.0722 39.0115 64.1192 39.1864 65.1322 39.4903C66.0745 39.7799 66.9711 40.2018 67.7956 40.7434C69.1919 41.6722 70.3277 42.9445 71.0945 44.4388C71.3755 45.0146 71.5966 45.6179 71.7543 46.2391C71.8159 46.5149 71.8687 46.773 71.9039 47.0113C71.9391 47.2495 71.9632 47.4724 71.9698 47.6731C71.9764 47.8739 71.9698 48.0482 71.9808 48.2026C71.9918 48.3571 71.961 48.485 71.9544 48.5887L71.9346 48.827C71.9343 48.8538 71.9306 48.8805 71.9237 48.9064C71.9207 48.8793 71.9207 48.8519 71.9237 48.8248C71.9237 48.7652 71.9237 48.688 71.9237 48.5887C71.9237 48.4894 71.939 48.3548 71.939 48.2026C71.939 48.0504 71.9237 47.8739 71.9171 47.6775C71.9105 47.4812 71.8687 47.2628 71.8423 47.0157C71.8159 46.7686 71.7477 46.5237 71.6839 46.2501C71.5179 45.6359 71.2902 45.0401 71.0043 44.4719C70.2351 42.9997 69.1071 41.7466 67.7252 40.8294C66.9077 40.2964 66.0192 39.8819 65.086 39.5984C64.0849 39.2996 63.0506 39.1269 62.007 39.0843C59.9823 39.0185 57.9645 39.3537 56.0689 40.0705C54.5235 40.666 53.0625 41.4618 51.7231 42.4378C50.5728 43.2607 49.6953 43.9998 49.0839 44.5072L48.3955 45.0896L48.213 45.2419C48.1894 45.2601 48.1644 45.2763 48.1382 45.2904Z" fill="white"/>
<path d="M41.3202 45.348L41.2718 45.2951L41.1376 45.1362C41.0189 44.9972 40.8429 44.792 40.601 44.5427C39.9145 43.843 39.1732 43.1997 38.3841 42.6189C37.8871 42.2461 37.3351 41.8467 36.739 41.4253C36.143 41.004 35.4986 40.5627 34.7927 40.1479C34.0576 39.709 33.2812 39.3439 32.4746 39.0581C31.6067 38.7571 30.7058 38.5623 29.7914 38.4778C28.8772 38.3904 27.9559 38.4118 27.0467 38.5418C26.1995 38.6593 25.3686 38.8739 24.5703 39.1816C23.2191 39.705 21.9761 40.4747 20.9041 41.4518C20.1768 42.1066 19.5314 42.8475 18.9819 43.658C18.7927 43.9493 18.6454 44.1743 18.5574 44.3354C18.5112 44.4082 18.476 44.4677 18.4496 44.5141C18.4232 44.5604 18.41 44.5736 18.4078 44.5714C18.4056 44.5692 18.4078 44.5494 18.4386 44.5074L18.5354 44.3221C18.619 44.1589 18.7553 43.9272 18.9423 43.6316C20.2904 41.5726 22.2433 39.9851 24.5307 39.089C25.3357 38.7715 26.175 38.5494 27.0313 38.4271C28.8742 38.16 30.754 38.3385 32.5142 38.9478C33.327 39.2359 34.1088 39.6054 34.8476 40.0509C35.558 40.4701 36.2024 40.9157 36.7962 41.3415C37.39 41.7673 37.9399 42.1711 38.4347 42.5483C39.2225 43.1377 39.9583 43.7939 40.634 44.5096C40.8715 44.7634 41.0409 44.9752 41.1552 45.1186L41.2806 45.2862C41.3092 45.3259 41.3224 45.3458 41.3202 45.348Z" fill="white"/>
<path d="M52.1457 23.7092C52.114 23.7553 52.0787 23.7989 52.0402 23.8394C51.9349 23.9586 51.8225 24.0713 51.7037 24.1769C51.2589 24.5645 50.7487 24.8693 50.1972 25.0771C49.3897 25.3986 48.5463 25.6209 47.6856 25.739C46.6307 25.8774 45.5666 25.9328 44.5032 25.9044C42.5732 25.8663 40.6542 25.6027 38.785 25.119C38.0658 24.9381 37.5072 24.6557 37.2147 24.3512C37.0997 24.2385 37.0032 24.1082 36.9288 23.9652C36.903 23.9152 36.8823 23.8627 36.8672 23.8085C36.9664 23.9975 37.0948 24.1695 37.2477 24.3181C37.6989 24.6843 38.2341 24.9315 38.8048 25.0374C40.6728 25.4949 42.5851 25.7457 44.5076 25.7853C45.5649 25.8127 46.6227 25.7611 47.6724 25.6308C48.5264 25.5146 49.3641 25.2991 50.1686 24.9888C50.7154 24.79 51.2247 24.4998 51.6751 24.1306C51.8312 23.9982 51.9478 23.8879 52.0248 23.8107C52.0614 23.7726 52.1019 23.7386 52.1457 23.7092Z" fill="#263238"/>
<path d="M41.5779 46.2083C41.5449 46.2083 41.5186 44.7611 41.5186 42.9762C41.5186 41.1914 41.5405 39.7507 41.5779 39.7507C41.6153 39.7507 41.6395 41.198 41.6395 42.9851C41.6395 44.7721 41.6065 46.2083 41.5779 46.2083Z" fill="white"/>
<path d="M37.4738 26.105C37.404 26.8286 37.418 27.5578 37.5155 28.2781C37.6147 29.0045 37.9613 29.674 38.4964 30.1733C38.7406 30.3939 39.1078 30.5439 39.3762 30.3608C39.4752 30.2752 39.5456 30.1611 39.5778 30.0341C39.6101 29.907 39.6026 29.7731 39.5565 29.6504C39.4601 29.4068 39.3362 29.1751 39.187 28.9599C38.9762 28.5899 38.857 28.1745 38.8395 27.7486C38.8263 27.4685 38.8593 27.1861 38.8571 26.9037C38.8664 26.6209 38.7987 26.341 38.6614 26.094C38.5917 25.9711 38.4895 25.87 38.366 25.8019C38.2426 25.7337 38.1027 25.7012 37.962 25.7079C37.8928 25.7152 37.8258 25.7364 37.765 25.7702C37.7041 25.8041 37.6507 25.8498 37.6078 25.9047C37.5649 25.9597 37.5335 26.0227 37.5154 26.0901C37.4973 26.1575 37.4928 26.2278 37.5024 26.2969" fill="white"/>
<path d="M49.3126 22.9016C49.2286 22.9935 49.1366 23.0777 49.0377 23.1531C48.7783 23.3719 48.5058 23.5745 48.2217 23.7598C47.798 24.0373 47.3385 24.2555 46.8559 24.4085C46.2612 24.5867 45.6423 24.6701 45.0217 24.6556C44.4048 24.6509 43.789 24.603 43.1787 24.5121C42.679 24.4379 42.1901 24.3031 41.7228 24.1106C41.4123 23.9798 41.1172 23.8148 40.843 23.6186C40.7669 23.5665 40.6935 23.5106 40.6231 23.451C40.5971 23.4317 40.5735 23.4095 40.5527 23.3848C40.6614 23.4429 40.7665 23.5078 40.8672 23.5789C41.1516 23.7595 41.4528 23.9117 41.7668 24.0334C42.2313 24.2117 42.7146 24.336 43.2073 24.404C43.8131 24.4867 44.4235 24.5309 45.0349 24.5364C45.6429 24.5496 46.2494 24.4708 46.8339 24.3026C47.3098 24.1579 47.7646 23.9509 48.1865 23.687C48.5494 23.4664 48.8287 23.259 49.0201 23.1156C49.1113 23.036 49.2091 22.9644 49.3126 22.9016Z" fill="#263238"/>
<g opacity="0.3">
<path d="M48.1249 23.709L50.5728 22.008C50.5728 22.008 49.0332 21.4101 48.2811 21.3704C47.5289 21.3307 48.1249 23.709 48.1249 23.709Z" fill="black"/>
</g>
<path d="M62.1059 48.9727C61.7518 47.8056 61.191 46.6694 60.298 45.8421C59.4051 45.0147 58.1383 44.5316 56.9485 44.7809C55.7917 45.0236 54.8724 45.884 53.7881 46.3561C52.9741 46.7046 52.0801 46.8214 51.2043 46.6938C50.3284 46.5663 49.5045 46.1991 48.8229 45.6328C48.1413 45.0664 47.6284 44.3227 47.3404 43.4832C47.0524 42.6437 47.0004 41.7408 47.1902 40.8737C47.4255 39.8014 48.0259 38.7733 47.9094 37.6813C47.795 36.6289 47.0297 35.7751 46.603 34.8132C46.1763 33.8513 46.2951 32.7349 47.2012 31.698L44.9645 31.8039C44.3531 32.5033 44.7006 34.18 44.9821 35.0669C45.2636 35.9538 45.6881 36.8319 45.5957 37.7673C45.4637 39.091 44.3047 40.1147 44.0254 41.4186C43.6757 43.0402 44.7402 44.5978 45.7717 45.8928C46.8031 47.1879 47.9995 48.5403 49.6248 48.8183C51.8373 49.1977 53.8871 47.4394 56.1304 47.3533C58.7321 47.2519 61.0744 49.8596 60.7115 52.4431C61.4395 52.4629 62.0641 51.8342 62.262 51.1304C62.46 50.4266 62.317 49.6787 62.1059 48.9727Z" fill="url(#paint9_linear_2692_2699)"/>
<g opacity="0.8">
<path d="M62.1059 48.9727C61.7518 47.8056 61.191 46.6694 60.298 45.8421C59.4051 45.0147 58.1383 44.5316 56.9485 44.7809C55.7917 45.0236 54.8724 45.884 53.7881 46.3561C52.9741 46.7046 52.0801 46.8214 51.2043 46.6938C50.3284 46.5663 49.5045 46.1991 48.8229 45.6328C48.1413 45.0664 47.6284 44.3227 47.3404 43.4832C47.0524 42.6437 47.0004 41.7408 47.1902 40.8737C47.4255 39.8014 48.0259 38.7733 47.9094 37.6813C47.795 36.6289 47.0297 35.7751 46.603 34.8132C46.1763 33.8513 46.2951 32.7349 47.2012 31.698L44.9645 31.8039C44.3531 32.5033 44.7006 34.18 44.9821 35.0669C45.2636 35.9538 45.6881 36.8319 45.5957 37.7673C45.4637 39.091 44.3047 40.1147 44.0254 41.4186C43.6757 43.0402 44.7402 44.5978 45.7717 45.8928C46.8031 47.1879 47.9995 48.5403 49.6248 48.8183C51.8373 49.1977 53.8871 47.4394 56.1304 47.3533C58.7321 47.2519 61.0744 49.8596 60.7115 52.4431C61.4395 52.4629 62.0641 51.8342 62.262 51.1304C62.46 50.4266 62.317 49.6787 62.1059 48.9727Z" fill="white"/>
</g>
<path d="M72.2273 47.5144C72.2303 47.5327 72.2303 47.5513 72.2273 47.5696C72.2273 47.6137 72.2273 47.6688 72.2273 47.735C72.2273 47.8895 72.2273 48.1013 72.2273 48.3682C72.2273 48.5072 72.2273 48.6594 72.2273 48.8271L72.1922 49.372C72.179 49.5684 72.1658 49.7758 72.1504 49.9986C72.135 50.2214 72.0932 50.4509 72.0624 50.6958C71.9174 51.8411 71.6962 52.9754 71.4004 54.0911C71.0201 55.4522 70.5634 56.7906 70.0324 58.0999C69.4562 59.4898 68.825 60.776 68.2136 61.9254C67.6022 63.0749 66.9842 64.0721 66.4256 64.884C66.2892 65.0892 66.1617 65.2855 66.0341 65.4686L65.6668 65.9761C65.4469 66.2938 65.2402 66.5629 65.0664 66.7769L64.6705 67.2711L64.565 67.3969C64.5415 67.4248 64.5283 67.438 64.5254 67.4366C64.5328 67.4199 64.5424 67.4043 64.554 67.3902L64.6508 67.2557L65.029 66.7482C65.1984 66.5276 65.3919 66.2562 65.614 65.9363L65.9725 65.4245C66.0979 65.2414 66.2211 65.0428 66.3552 64.8376C66.9028 64.0213 67.4901 63.0087 68.1147 61.8725C68.7393 60.7363 69.3463 59.4456 69.9181 58.0535C70.449 56.7487 70.9078 55.4156 71.2926 54.0603C71.5994 52.9522 71.8345 51.8254 71.9964 50.687C72.0294 50.4443 72.0668 50.2126 72.0932 49.992C72.1196 49.7714 72.1262 49.564 72.1438 49.3698C72.1614 49.1757 72.1746 48.9948 72.1878 48.8271C72.201 48.6594 72.1878 48.5072 72.1988 48.3704C72.1988 48.1035 72.2098 47.8917 72.212 47.7372C72.212 47.671 72.212 47.6159 72.212 47.5718C72.2138 47.5519 72.219 47.5325 72.2273 47.5144Z" fill="#263238"/>
<path d="M48.2178 47.8519C48.1466 47.8257 48.0793 47.7901 48.0176 47.746C47.8413 47.6395 47.6717 47.5223 47.5096 47.3952C46.424 46.5627 45.5797 45.4545 45.064 44.1851C44.9853 43.9951 44.9177 43.8006 44.8616 43.6027C44.8358 43.5315 44.8188 43.4574 44.811 43.3821C44.8308 43.3821 44.9298 43.6843 45.1409 44.1543C45.4181 44.7674 45.7626 45.3475 46.168 45.8839C46.5771 46.4174 47.0448 46.9029 47.5624 47.3312C47.956 47.6577 48.2288 47.8342 48.2178 47.8519Z" fill="white"/>
<path d="M60.219 48.8556C60.1883 48.882 59.6956 48.2202 58.8665 47.6642C58.3589 47.3419 57.8221 47.0686 57.2632 46.8479C57.4421 46.8625 57.6175 46.9064 57.7822 46.9781C58.1895 47.124 58.5768 47.3212 58.9347 47.5649C59.2934 47.8071 59.6194 48.0948 59.9045 48.4209C60.0303 48.5493 60.1363 48.6958 60.219 48.8556Z" fill="white"/>
<g opacity="0.2">
<path d="M62.1103 70.6089C58.4337 75.8695 53.2965 79.9296 47.3376 82.2842C46.2643 82.7056 45.1383 83.074 43.9902 83.0542C42.2814 83.0255 40.7089 82.1518 39.2573 81.2473C35.2612 78.7565 31.287 75.264 28.4565 71.4958C28.4565 71.4958 37.0338 79.9588 43.6317 81.9908C43.6317 81.9908 44.2673 82.5357 46.9065 81.5915C51.3535 80.0008 62.1103 70.6089 62.1103 70.6089Z" fill="black"/>
</g>
<path d="M43.4737 81.4659C43.4159 81.4506 43.3598 81.4291 43.3065 81.4019L42.8381 81.1967C42.6336 81.1085 42.3982 80.996 42.1057 80.8548C41.8132 80.7136 41.4965 80.5613 41.1468 80.3694C40.443 80.0032 39.6205 79.5333 38.7276 78.9795C37.8347 78.4257 36.8736 77.7793 35.8949 77.0645C33.9331 75.6349 32.2572 74.2118 31.0696 73.1529C30.4758 72.6256 30.003 72.191 29.6797 71.8843L29.3102 71.5313C29.2655 71.4915 29.2243 71.4479 29.187 71.4011C29.2363 71.4347 29.2826 71.4723 29.3256 71.5136L29.7104 71.849C30.0425 72.1446 30.5242 72.5704 31.1246 73.0911C32.3254 74.1302 34.0079 75.54 35.9631 76.9674C36.9418 77.68 37.9007 78.3242 38.7848 78.8868C39.6689 79.4494 40.4892 79.9193 41.1886 80.2944C41.5317 80.4907 41.8484 80.6474 42.1343 80.793C42.4202 80.9386 42.6577 81.06 42.8579 81.1548L43.3175 81.3754C43.3723 81.4006 43.4246 81.4309 43.4737 81.4659Z" fill="white"/>
<path d="M64.5252 67.4343C64.5051 67.4701 64.4831 67.5047 64.4592 67.538C64.4152 67.6064 64.347 67.7057 64.2525 67.8337C64.0677 68.0918 63.784 68.4668 63.3903 68.9368C62.9072 69.508 62.3932 70.0522 61.8508 70.5672C61.5341 70.8716 61.1756 71.1783 60.7886 71.4982L59.5877 72.5417L56.799 74.9686C56.291 75.4098 55.7741 75.8687 55.2155 76.3232C54.6569 76.7777 54.0543 77.2057 53.4209 77.6469C52.1541 78.5073 50.7817 79.3634 49.2972 80.1995C48.5582 80.6165 47.7973 81.0357 46.9901 81.4085C46.5804 81.596 46.1569 81.7517 45.7233 81.874C45.2775 82.0119 44.8085 82.0584 44.3444 82.0108C43.882 81.9528 43.4262 81.8508 42.983 81.7064C42.5431 81.5674 42.1033 81.4019 41.6502 81.2188C40.7589 80.8378 39.8934 80.3985 39.0594 79.9039C38.635 79.6524 38.2127 79.3854 37.8014 79.0964L36.572 78.2139C35.7517 77.616 34.9269 77.0027 34.1088 76.3629C31.6617 74.4839 29.3483 72.436 27.1854 70.234C26.1583 69.1684 25.206 68.0852 24.3131 66.9975C23.4202 65.9098 22.6328 64.7913 21.9247 63.6882C21.7333 63.419 21.5904 63.1256 21.4276 62.8476C21.2649 62.5696 21.1153 62.2872 20.9614 62.0114C20.6535 61.4599 20.35 60.9216 20.0531 60.3921C19.4547 59.4003 18.9489 58.3553 18.5421 57.2703C17.7746 55.2097 17.4425 53.2439 17.4909 51.565C17.3156 49.996 17.3899 48.4091 17.7108 46.8635C17.8178 46.3122 17.9648 45.7695 18.1507 45.2397C18.1507 45.2397 18.1507 45.275 18.1221 45.3456C18.0935 45.4162 18.0715 45.5199 18.0319 45.6545C17.9571 45.9281 17.8471 46.334 17.7416 46.8723C17.4362 48.415 17.3724 49.996 17.5524 51.5584C17.5019 53.2174 17.8493 55.1788 18.6213 57.2261C19.0277 58.3061 19.5343 59.3454 20.1344 60.3303L21.0449 61.9474L21.5134 62.7814C21.6639 63.0684 21.8291 63.3475 22.0082 63.6176C22.7164 64.7207 23.528 65.8105 24.3967 66.907C25.2654 68.0035 26.2375 69.0713 27.2558 70.1325C29.4167 72.3284 31.7264 74.3718 34.1682 76.2482C34.9841 76.888 35.8111 77.4991 36.6292 78.097L37.8564 78.9795C38.2655 79.2663 38.6833 79.531 39.1056 79.7825C39.9396 80.274 40.8051 80.7096 41.6964 81.0864C42.1363 81.2695 42.5761 81.4328 43.016 81.5718C43.4508 81.716 43.8987 81.8173 44.3532 81.874C44.7977 81.9138 45.2457 81.8674 45.6727 81.7373C46.1001 81.6171 46.5177 81.4645 46.9219 81.2806C47.7225 80.9099 48.4856 80.4929 49.2246 80.0782C50.7003 79.2464 52.0837 78.3948 53.3439 77.5388C53.9773 77.0976 54.5777 76.674 55.1385 76.2151C55.6994 75.7562 56.2118 75.3017 56.722 74.8671L59.5218 72.4579L60.727 71.421C61.114 71.1033 61.4747 70.801 61.7914 70.4988C62.3334 69.9888 62.8473 69.4497 63.3309 68.8838C63.7268 68.4205 64.0149 68.0499 64.2107 67.7961L64.4306 67.5071C64.4988 67.4674 64.5252 67.4343 64.5252 67.4343Z" fill="#263238"/>
<path d="M50.1859 24.5563C50.1469 24.5752 50.1065 24.5906 50.0649 24.6026L49.7108 24.7174C49.5591 24.7659 49.3699 24.8233 49.1478 24.8784C48.9257 24.9336 48.675 25.0064 48.3912 25.0593C48.1075 25.1123 47.8018 25.1851 47.4653 25.2336C47.1288 25.2822 46.7726 25.3329 46.3921 25.377C45.5691 25.4563 44.7421 25.4851 43.9157 25.4631C43.0889 25.4325 42.2648 25.3507 41.448 25.2182C41.0742 25.1498 40.7179 25.088 40.388 24.9976C40.0581 24.9071 39.7524 24.8431 39.4753 24.7769C39.1982 24.7107 38.9496 24.6159 38.7319 24.5453C38.5142 24.4747 38.3294 24.4085 38.1799 24.3489L37.8346 24.2121C37.7927 24.1993 37.7527 24.1808 37.7158 24.157C37.7592 24.1644 37.8019 24.1755 37.8434 24.1901L38.1953 24.3048C38.347 24.3577 38.5318 24.4195 38.7517 24.4835C38.9716 24.5475 39.2179 24.6269 39.4973 24.7041C39.7766 24.7813 40.0779 24.8541 40.41 24.9247C40.7421 24.9953 41.094 25.0593 41.4656 25.1255C42.2787 25.2498 43.0982 25.3279 43.9201 25.3594C44.7419 25.3807 45.5643 25.3549 46.3833 25.2822C46.7594 25.2402 47.1178 25.2071 47.4499 25.152C47.782 25.0968 48.0921 25.0483 48.3736 24.9931C48.6552 24.938 48.9081 24.8784 49.1324 24.8277C49.3567 24.7769 49.5437 24.7306 49.6998 24.6865L50.0583 24.596C50.0988 24.577 50.1417 24.5636 50.1859 24.5563Z" fill="white"/>
<path d="M41.9013 33.8864C41.4301 33.9516 40.9517 33.9442 40.4827 33.8644C40.008 33.8225 39.5423 33.7087 39.1016 33.5268C39.1016 33.4915 39.7262 33.6482 40.4981 33.7474C41.2701 33.8467 41.9013 33.8511 41.9013 33.8864Z" fill="white"/>
<path d="M42.9705 33.8776C42.9705 33.9106 42.9002 33.9348 42.8166 33.9304C42.733 33.926 42.6648 33.8952 42.667 33.8622C42.6692 33.8292 42.7374 33.8072 42.8232 33.8116C42.909 33.816 42.9727 33.8446 42.9705 33.8776Z" fill="white"/>
<path d="M40.8079 23.5061L39.5015 15.2615C39.5015 15.2615 39.6906 13.6377 44.9997 13.9025C50.3088 14.1672 49.9482 15.5638 49.9482 15.5638L48.6154 23.3473C48.6154 23.3473 47.1924 24.7174 44.617 24.5607C41.1487 24.3489 40.8079 23.5061 40.8079 23.5061Z" fill="#455A64"/>
<path d="M49.9465 15.5705C49.9465 15.5705 49.9201 15.6124 49.8519 15.672C49.7496 15.7564 49.639 15.8303 49.522 15.8926C49.0884 16.13 48.6188 16.294 48.132 16.3779C47.4133 16.4912 46.6867 16.5473 45.9591 16.5456C45.1388 16.5633 44.2393 16.5456 43.2936 16.5191H43.1066H42.9879L43.0626 16.4265L44.0105 15.2329L44.0787 15.3234L41.798 16.3096C40.9887 16.2743 40.3157 16.1198 39.9308 15.8462C39.7791 15.7469 39.6562 15.6092 39.5745 15.4469C39.5432 15.3912 39.528 15.3278 39.5306 15.2638C39.5492 15.322 39.572 15.3788 39.5987 15.4337C39.6866 15.5846 39.8106 15.7113 39.9594 15.8021C40.3399 16.0536 40.9997 16.1904 41.8002 16.2147H41.7804L44.0611 15.2064L44.2811 15.1116L44.1359 15.2947L43.1902 16.4905L43.1462 16.3934H43.3332C44.2767 16.4265 45.1762 16.4397 45.9921 16.4309C46.7146 16.4365 47.4364 16.3886 48.1518 16.2875C48.6326 16.2117 49.0991 16.0629 49.5352 15.8462C49.6523 15.7855 49.7648 15.7162 49.8717 15.6389C49.8955 15.6148 49.9204 15.592 49.9465 15.5705Z" fill="#263238"/>
<g opacity="0.2">
<path d="M44.0539 15.2683L43.1082 16.4619L42.5451 19.9168L41.7974 16.3913L41.771 16.2677L44.0539 15.2683Z" fill="black"/>
</g>
<path d="M42.5715 19.8946C42.4944 19.7295 42.4382 19.5553 42.4044 19.3761C42.3208 19.0518 42.2175 18.5973 42.1119 18.0965C42.0063 17.5957 41.9293 17.1853 41.8524 16.8125C41.8069 16.6363 41.7796 16.4559 41.771 16.2742C41.8455 16.4401 41.9008 16.6141 41.9359 16.7926C42.0217 17.1192 42.1251 17.5714 42.2285 18.0722C42.3318 18.5731 42.4132 18.9834 42.488 19.3563C42.5333 19.5325 42.5613 19.7128 42.5715 19.8946Z" fill="#263238"/>
<g opacity="0.2">
<path d="M46.2343 18.8667C46.212 18.8119 46.1739 18.765 46.125 18.732C46.076 18.699 46.0184 18.6814 45.9594 18.6814C45.9132 18.6861 45.8689 18.7023 45.8305 18.7285C45.7921 18.7547 45.7608 18.79 45.7394 18.8314C45.6983 18.9225 45.6744 19.0205 45.6691 19.1204C45.5769 19.7359 45.5372 20.3581 45.5503 20.9803C45.5482 21.0737 45.5694 21.1662 45.6119 21.2494C45.6349 21.2893 45.6697 21.3209 45.7115 21.3399C45.7533 21.3589 45.8 21.3643 45.845 21.3553C45.8822 21.3365 45.9151 21.31 45.9416 21.2778C45.9681 21.2455 45.9876 21.208 45.999 21.1678C46.2475 20.5589 46.2695 19.8816 46.2871 19.2219C46.2999 19.1009 46.2817 18.9787 46.2343 18.8667Z" fill="black"/>
</g>
<g opacity="0.2">
<path d="M45.1981 14.88C45.1459 14.9061 45.1025 14.947 45.0732 14.9975C45.0439 15.0481 45.03 15.1062 45.0332 15.1646C45.0385 15.2125 45.0564 15.2581 45.0849 15.2968C45.1135 15.3356 45.1518 15.3661 45.1959 15.3852C45.2892 15.4213 45.3884 15.44 45.4884 15.4403C46.106 15.4944 46.7271 15.4944 47.3446 15.4403C47.4377 15.4377 47.5286 15.4111 47.6085 15.3631C47.6483 15.3395 47.6789 15.3032 47.6957 15.26C47.7124 15.2168 47.7143 15.1692 47.7009 15.1249C47.6804 15.0883 47.6523 15.0566 47.6185 15.0319C47.5848 15.0071 47.5461 14.9899 47.5052 14.9815C46.8828 14.7608 46.2076 14.7917 45.5522 14.816C45.4306 14.8056 45.3084 14.8276 45.1981 14.88Z" fill="black"/>
</g>
<g opacity="0.2">
<path d="M41.3161 19.4843C41.2789 19.4385 41.2288 19.405 41.1723 19.3881C41.1159 19.3712 41.0556 19.3716 40.9994 19.3894C40.957 19.4076 40.9197 19.4361 40.891 19.4723C40.8622 19.5084 40.8428 19.5512 40.8345 19.5968C40.8227 19.6963 40.8287 19.7972 40.8521 19.8946C40.946 20.51 41.0932 21.1161 41.292 21.7059C41.3169 21.7955 41.3638 21.8774 41.4283 21.9442C41.4616 21.9757 41.5038 21.9961 41.5491 22.0024C41.5945 22.0088 41.6407 22.0007 41.6812 21.9795C41.7109 21.951 41.7344 21.9168 41.7503 21.8788C41.7662 21.8409 41.7741 21.8 41.7736 21.7589C41.8352 21.097 41.6548 20.4484 41.4789 19.8152C41.455 19.6923 41.3988 19.5781 41.3161 19.4843Z" fill="black"/>
</g>
<g opacity="0.2">
<path d="M48.9718 16.4551C48.9492 16.4005 48.9111 16.3537 48.8622 16.3208C48.8133 16.2878 48.7558 16.2701 48.6968 16.2698C48.6506 16.2743 48.6062 16.2904 48.5678 16.3166C48.5293 16.3428 48.4981 16.3783 48.4769 16.4198C48.4341 16.5104 48.4094 16.6086 48.4043 16.7088C48.3118 17.3242 48.2728 17.9465 48.2878 18.5687C48.286 18.6618 48.3063 18.7541 48.3472 18.8378C48.3701 18.8777 48.405 18.9093 48.4468 18.9283C48.4886 18.9473 48.5353 18.9527 48.5803 18.9437C48.6177 18.9252 48.6508 18.8989 48.6773 18.8665C48.7039 18.8342 48.7233 18.7966 48.7342 18.7562C48.985 18.1473 49.0048 17.47 49.0223 16.8125C49.036 16.691 49.0186 16.568 48.9718 16.4551Z" fill="black"/>
</g>
<path d="M49.4293 15.1291C49.3124 15.0944 49.1989 15.0486 49.0906 14.9923C48.961 14.935 48.8281 14.8856 48.6925 14.8445L48.4418 14.7607L48.1537 14.6856C47.097 14.4284 46.0147 14.2915 44.9273 14.2775C43.8397 14.2427 42.7511 14.2973 41.6724 14.4408L41.1159 14.5356L40.7025 14.6283C40.5881 14.6695 40.4704 14.7005 40.3506 14.7209C40.4598 14.6667 40.573 14.6209 40.6893 14.5842L41.1027 14.4694C41.2655 14.4341 41.4524 14.3966 41.6592 14.3591C42.7412 14.1884 43.837 14.1212 44.9317 14.1584C46.0271 14.1702 47.1167 14.3184 48.1757 14.5996L48.4638 14.6834L48.7145 14.7783C48.8497 14.8245 48.9812 14.8806 49.1082 14.946C49.2199 14.9984 49.3273 15.0597 49.4293 15.1291Z" fill="white"/>
<path d="M41.0173 23.385C40.9886 23.2961 40.9695 23.2044 40.9601 23.1114C40.9293 22.9349 40.8897 22.6702 40.8457 22.3591C40.7556 21.6972 40.6412 20.828 40.5136 19.8683C40.3861 18.9086 40.2607 18.0173 40.1661 17.3819C40.1222 17.0877 40.0848 16.8362 40.054 16.6273C40.0349 16.5359 40.0253 16.4428 40.0254 16.3494C40.0612 16.4357 40.0863 16.5261 40.1002 16.6185C40.1398 16.795 40.1903 17.0598 40.2497 17.3664C40.3663 17.9996 40.5026 18.8777 40.6302 19.8528C40.7578 20.828 40.8501 21.7083 40.9293 22.3481C40.9579 22.6481 40.9843 22.9018 41.0063 23.1048C41.0211 23.1974 41.0248 23.2915 41.0173 23.385Z" fill="white"/>
<path d="M43.7244 15.1821C43.159 15.5437 42.5283 15.7903 41.8682 15.908C42.1649 15.7567 42.473 15.6291 42.7897 15.5263C43.0916 15.3868 43.4042 15.2717 43.7244 15.1821Z" fill="white"/>
<path d="M31.9599 42.0584C31.8961 41.3105 31.0999 40.631 30.1652 40.514C27.2798 39.7264 23.9566 40.9398 22.1246 43.3093C21.7404 43.7711 21.4672 44.3154 21.3262 44.9C21.2582 45.1922 21.2571 45.4961 21.323 45.7888C21.3889 46.0815 21.5201 46.3554 21.7067 46.59C22.3291 47.307 23.4662 47.3092 24.3459 46.9628C25.2256 46.6165 25.9822 45.9987 26.8465 45.6126C27.545 45.34 28.2624 45.1188 28.993 44.9508C29.726 44.7829 30.4169 44.466 31.023 44.0197C31.6036 43.5366 32.0237 42.8085 31.9599 42.0584Z" fill="white"/>
<path d="M22.7672 54.9427C22.4011 53.4014 22.2757 51.8124 22.3956 50.2325C22.4412 49.9519 22.4231 49.6645 22.3428 49.3919C22.2191 49.1923 22.0276 49.0444 21.8036 48.9754C21.5796 48.9065 21.3384 48.9212 21.1244 49.0168C20.2138 49.4581 19.9697 49.9302 19.7454 50.923C19.5211 51.9158 19.6222 52.9549 19.7894 53.9588C19.9565 54.9626 20.1984 55.9444 20.8428 56.6857C21.2101 57.1137 21.8061 57.4512 22.3252 57.2306C22.5141 57.1311 22.6729 56.9827 22.785 56.8007C22.8972 56.6187 22.9587 56.4098 22.963 56.1959C22.9629 55.7705 22.8969 55.3477 22.7672 54.9427Z" fill="white"/>
<path d="M67.5295 52.2357C67.4037 53.8156 67.0327 55.3662 66.4299 56.8312C66.3003 57.0834 66.2296 57.3618 66.2231 57.6453C66.2799 57.8749 66.4183 58.0758 66.6123 58.2103C66.8062 58.3447 67.0425 58.4035 67.2766 58.3756C68.2817 58.2344 68.6578 57.866 69.1768 56.9923C69.6958 56.1186 69.9224 55.0994 70.0719 54.0911C70.2215 53.0829 70.2919 52.0835 69.9114 51.1723C69.6914 50.6494 69.2296 50.1442 68.6688 50.1949C68.4596 50.2317 68.2641 50.3238 68.1024 50.462C67.9408 50.6001 67.8189 50.7791 67.7495 50.9803C67.6131 51.3852 67.5389 51.8085 67.5295 52.2357Z" fill="white"/>
<path d="M69.6559 45.0874C69.5657 44.4256 69.1874 43.4813 67.6897 43.7946L67.2498 44.0284C67.005 44.2617 66.8378 44.5649 66.7709 44.8969C66.704 45.2289 66.7406 45.5735 66.876 45.8839C67.0145 46.188 67.251 46.4365 67.5474 46.5893C67.8438 46.7422 68.1829 46.7906 68.51 46.7266C69.161 46.5899 69.746 45.7471 69.6559 45.0874Z" fill="white"/>
<g opacity="0.3">
<path d="M39.0884 31.2102V32.2802C41.1039 32.6225 43.1733 32.4379 45.0969 31.7441C45.0969 31.7441 40.1924 31.6404 39.0884 31.2102Z" fill="black"/>
</g>
<path d="M38.6392 31.0935C38.7917 31.1171 38.943 31.1487 39.0922 31.1884C39.3825 31.2524 39.8026 31.334 40.3282 31.409C41.6995 31.5927 43.0817 31.6827 44.4651 31.6782C45.8478 31.685 47.2292 31.5966 48.5998 31.4134C49.1254 31.3384 49.5477 31.2546 49.838 31.1928C49.9863 31.1518 50.1369 31.1194 50.2889 31.0957C50.2527 31.1133 50.2152 31.1281 50.1767 31.1398C50.1019 31.1641 49.992 31.1994 49.849 31.2391C49.5609 31.3163 49.1386 31.4134 48.613 31.4995C47.2405 31.7107 45.8537 31.814 44.4651 31.8083C43.0767 31.8147 41.6899 31.7129 40.3172 31.5039C39.7894 31.4178 39.3693 31.323 39.0812 31.2457C38.9361 31.2082 38.8261 31.1729 38.7513 31.1465C38.7124 31.1324 38.6748 31.1146 38.6392 31.0935Z" fill="#263238"/>
<path d="M7.952 106.033H3.504L2.768 108.161H0.416L4.432 96.9774H7.04L11.056 108.161H8.688L7.952 106.033ZM7.344 104.241L5.728 99.5694L4.112 104.241H7.344ZM24.7331 96.9934V108.161H22.4931V100.897L19.5011 108.161H17.8051L14.7971 100.897V108.161H12.5571V96.9934H15.1011L18.6531 105.297L22.2051 96.9934H24.7331ZM32.1318 108.273C31.0864 108.273 30.1264 108.028 29.2518 107.537C28.3771 107.047 27.6838 106.369 27.1718 105.505C26.6598 104.631 26.4038 103.644 26.4038 102.545C26.4038 101.457 26.6598 100.481 27.1718 99.6174C27.6838 98.7427 28.3771 98.06 29.2518 97.5694C30.1264 97.0787 31.0864 96.8334 32.1318 96.8334C33.1878 96.8334 34.1478 97.0787 35.0118 97.5694C35.8864 98.06 36.5744 98.7427 37.0758 99.6174C37.5878 100.481 37.8438 101.457 37.8438 102.545C37.8438 103.644 37.5878 104.631 37.0758 105.505C36.5744 106.369 35.8864 107.047 35.0118 107.537C34.1371 108.028 33.1771 108.273 32.1318 108.273ZM32.1318 106.273C32.8038 106.273 33.3958 106.124 33.9078 105.825C34.4198 105.516 34.8198 105.079 35.1078 104.513C35.3958 103.948 35.5398 103.292 35.5398 102.545C35.5398 101.799 35.3958 101.148 35.1078 100.593C34.8198 100.028 34.4198 99.596 33.9078 99.2974C33.3958 98.9987 32.8038 98.8494 32.1318 98.8494C31.4598 98.8494 30.8624 98.9987 30.3398 99.2974C29.8278 99.596 29.4278 100.028 29.1398 100.593C28.8518 101.148 28.7078 101.799 28.7078 102.545C28.7078 103.292 28.8518 103.948 29.1398 104.513C29.4278 105.079 29.8278 105.516 30.3398 105.825C30.8624 106.124 31.4598 106.273 32.1318 106.273ZM45.2703 108.161L42.8063 103.809H41.7503V108.161H39.5103V96.9934H43.7023C44.5663 96.9934 45.3023 97.148 45.9103 97.4574C46.5183 97.756 46.9716 98.1667 47.2703 98.6894C47.5796 99.2014 47.7343 99.7774 47.7343 100.417C47.7343 101.153 47.5209 101.82 47.0943 102.417C46.6676 103.004 46.0329 103.409 45.1903 103.633L47.8623 108.161H45.2703ZM41.7503 102.129H43.6223C44.2303 102.129 44.6836 101.985 44.9823 101.697C45.2809 101.399 45.4303 100.988 45.4303 100.465C45.4303 99.9534 45.2809 99.5587 44.9823 99.2814C44.6836 98.9934 44.2303 98.8494 43.6223 98.8494H41.7503V102.129ZM52.0003 98.8014V101.601H55.7603V103.377H52.0003V106.337H56.2403V108.161H49.7603V96.9774H56.2403V98.8014H52.0003ZM70.4519 96.9934V108.161H68.2119V100.897L65.2199 108.161H63.5239L60.5159 100.897V108.161H58.2759V96.9934H60.8199L64.3719 105.297L67.9239 96.9934H70.4519ZM74.9065 96.9934V108.161H72.6665V96.9934H74.9065ZM82.3036 108.273C81.2583 108.273 80.2983 108.028 79.4236 107.537C78.549 107.047 77.8556 106.369 77.3436 105.505C76.8316 104.631 76.5756 103.644 76.5756 102.545C76.5756 101.457 76.8316 100.481 77.3436 99.6174C77.8556 98.7427 78.549 98.06 79.4236 97.5694C80.2983 97.0787 81.2583 96.8334 82.3036 96.8334C83.3596 96.8334 84.3196 97.0787 85.1836 97.5694C86.0583 98.06 86.7463 98.7427 87.2476 99.6174C87.7596 100.481 88.0156 101.457 88.0156 102.545C88.0156 103.644 87.7596 104.631 87.2476 105.505C86.7463 106.369 86.0583 107.047 85.1836 107.537C84.309 108.028 83.349 108.273 82.3036 108.273ZM82.3036 106.273C82.9756 106.273 83.5676 106.124 84.0796 105.825C84.5916 105.516 84.9916 105.079 85.2796 104.513C85.5676 103.948 85.7116 103.292 85.7116 102.545C85.7116 101.799 85.5676 101.148 85.2796 100.593C84.9916 100.028 84.5916 99.596 84.0796 99.2974C83.5676 98.9987 82.9756 98.8494 82.3036 98.8494C81.6316 98.8494 81.0343 98.9987 80.5116 99.2974C79.9996 99.596 79.5996 100.028 79.3116 100.593C79.0236 101.148 78.8796 101.799 78.8796 102.545C78.8796 103.292 79.0236 103.948 79.3116 104.513C79.5996 105.079 79.9996 105.516 80.5116 105.825C81.0343 106.124 81.6316 106.273 82.3036 106.273Z" fill="white"/>
<defs>
<linearGradient id="paint0_linear_2692_2699" x1="34.1949" y1="-7.22091e-07" x2="40.6512" y2="26.8683" gradientUnits="userSpaceOnUse">
<stop stop-color="#DA286F"/>
<stop offset="1" stop-color="#EE4433"/>
</linearGradient>
<linearGradient id="paint1_linear_2692_2699" x1="53.3307" y1="9.09277" x2="54.1948" y2="13.9405" gradientUnits="userSpaceOnUse">
<stop stop-color="#DA286F"/>
<stop offset="1" stop-color="#EE4433"/>
</linearGradient>
<linearGradient id="paint2_linear_2692_2699" x1="51.1142" y1="3.02783" x2="51.663" y2="6.24862" gradientUnits="userSpaceOnUse">
<stop stop-color="#DA286F"/>
<stop offset="1" stop-color="#EE4433"/>
</linearGradient>
<linearGradient id="paint3_linear_2692_2699" x1="25.627" y1="12.0742" x2="27.5073" y2="22.2419" gradientUnits="userSpaceOnUse">
<stop stop-color="#DA286F"/>
<stop offset="1" stop-color="#EE4433"/>
</linearGradient>
<linearGradient id="paint4_linear_2692_2699" x1="31.1309" y1="31.2803" x2="31.9277" y2="35.966" gradientUnits="userSpaceOnUse">
<stop stop-color="#DA286F"/>
<stop offset="1" stop-color="#EE4433"/>
</linearGradient>
<linearGradient id="paint5_linear_2692_2699" x1="31.3026" y1="23.8689" x2="31.9642" y2="27.3434" gradientUnits="userSpaceOnUse">
<stop stop-color="#DA286F"/>
<stop offset="1" stop-color="#EE4433"/>
</linearGradient>
<linearGradient id="paint6_linear_2692_2699" x1="51.527" y1="34.418" x2="52.0818" y2="37.6587" gradientUnits="userSpaceOnUse">
<stop stop-color="#DA286F"/>
<stop offset="1" stop-color="#EE4433"/>
</linearGradient>
<linearGradient id="paint7_linear_2692_2699" x1="19.8149" y1="49.6252" x2="20.6728" y2="65.8538" gradientUnits="userSpaceOnUse">
<stop stop-color="#DA286F"/>
<stop offset="1" stop-color="#EE4433"/>
</linearGradient>
<linearGradient id="paint8_linear_2692_2699" x1="19.9852" y1="50.9739" x2="24.3237" y2="87.2031" gradientUnits="userSpaceOnUse">
<stop stop-color="#DA286F"/>
<stop offset="1" stop-color="#EE4433"/>
</linearGradient>
<linearGradient id="paint9_linear_2692_2699" x1="44.618" y1="31.698" x2="50.1129" y2="55.0209" gradientUnits="userSpaceOnUse">
<stop stop-color="#DA286F"/>
<stop offset="1" stop-color="#EE4433"/>
</linearGradient>
</defs>
</svg>
