<svg width="86" height="88" viewBox="0 0 86 88" fill="none" xmlns="http://www.w3.org/2000/svg">
<path d="M42.9993 88.0001C42.7396 88.0002 42.4804 87.9785 42.2245 87.9354C41.9238 87.8874 39.1738 87.3918 35.1909 85.7085C32.8321 84.7076 30.5576 83.5216 28.3894 82.1619C25.6238 80.427 23.0313 78.4352 20.6469 76.2134C14.5842 70.5728 9.76754 63.4374 6.33139 55.0054C4.32277 50.0763 2.77128 44.6434 1.72049 38.8647C0.580108 32.578 -0.000976558 25.717 -0.000976558 18.4727C-0.00101747 17.5878 0.258506 16.7219 0.746032 15.9803C1.23356 15.2388 1.92808 14.6535 2.74513 14.2958L34.5111 0.390604C35.0648 0.14822 35.6612 0.0162488 36.2664 0.00222539C36.8716 -0.0117981 37.4736 0.0924009 38.0381 0.308873C38.6026 0.525345 39.1186 0.849852 39.5565 1.26386C39.9944 1.67788 40.3458 2.17329 40.5904 2.72181C40.8351 3.27033 40.9683 3.86122 40.9825 4.46075C40.9966 5.06027 40.8914 5.65669 40.6729 6.21594C40.4544 6.7752 40.1269 7.28634 39.709 7.72019C39.291 8.15403 38.791 8.50208 38.2373 8.74446L9.25328 21.4321C9.52348 32.7818 11.3616 42.7864 14.7281 51.207C17.5947 58.3778 21.5757 64.4247 26.5599 69.1802C30.9849 73.4017 35.4214 75.8258 38.3612 77.1152C40.3466 77.9864 41.9446 78.4743 42.8831 78.7214C43.8273 78.4258 45.4413 77.855 47.4509 76.8864C50.4207 75.4549 54.8994 72.8309 59.366 68.4587C64.3837 63.5478 68.3873 57.4529 71.2666 50.343C74.6248 42.051 76.4634 32.3376 76.7428 21.4312L66.3593 16.8858L43.4835 57.0087C43.1339 57.6217 42.646 58.1464 42.0578 58.5416C41.4696 58.9369 40.7972 59.1921 40.093 59.2872C39.3888 59.3824 38.6719 59.315 37.9984 59.0902C37.3248 58.8655 36.7128 58.4895 36.2103 57.9917L24.1934 46.0864C23.7654 45.6624 23.4259 45.159 23.1942 44.6049C22.9626 44.0509 22.8434 43.4571 22.8434 42.8574C22.8434 41.6463 23.329 40.4848 24.1934 39.6284C25.0579 38.772 26.2303 38.2909 27.4528 38.2909C28.6754 38.2909 29.8478 38.772 30.7122 39.6284L38.4402 47.2843L60.3868 8.78908C60.9496 7.80196 61.863 7.05754 62.9492 6.70066C64.0354 6.34377 65.2167 6.39992 66.2635 6.8582L83.2529 14.2939C84.0704 14.6517 84.7652 15.2372 85.2528 15.9791C85.7405 16.721 85.9999 17.5874 85.9995 18.4727C85.9995 31.9332 83.8689 43.9354 79.6594 54.1448C76.232 62.4627 71.4337 69.6105 65.3981 75.3887C54.9904 85.3545 44.4549 87.79 44.0113 87.8888C43.6792 87.9629 43.3397 88.0003 42.9993 88.0001Z" fill="url(#paint0_linear_378_17087)"/>
<defs>
<linearGradient id="paint0_linear_378_17087" x1="1.20332" y1="17.3391" x2="84.0586" y2="65.1059" gradientUnits="userSpaceOnUse">
<stop stop-color="#8CE39B"/>
<stop offset="1" stop-color="#28A09D"/>
</linearGradient>
</defs>
</svg>
