<svg width="18" height="18" viewBox="0 0 18 18" fill="none" xmlns="http://www.w3.org/2000/svg">
<path d="M1.53586e-06 3.75013C-1.53686e-06 2.93588 0.265033 2.14376 0.755054 1.49347C1.24508 0.843171 1.93345 0.370039 2.71617 0.145566C3.49888 -0.0789068 4.33339 -0.0425211 5.09359 0.249225C5.8538 0.540971 6.49838 1.07222 6.92994 1.7627C8.28758 1.41149 9.71226 1.41149 11.0699 1.7627C11.3577 1.30218 11.7421 0.909654 12.1964 0.612269C12.6508 0.314884 13.1644 0.119736 13.7016 0.0403179C14.2388 -0.0390999 14.7869 -0.000892058 15.3079 0.152299C15.8289 0.305491 16.3104 0.57001 16.7191 0.927567C17.1279 1.28512 17.4541 1.72719 17.6751 2.22318C17.8962 2.71918 18.007 3.25728 17.9997 3.80028C17.9924 4.34327 17.8672 4.8782 17.6329 5.36807C17.3985 5.85795 17.0605 6.29108 16.6424 6.63752C17.0339 7.59748 17.2498 8.64744 17.2498 9.7499C17.253 11.6794 16.5771 13.5486 15.3404 15.0297L17.0308 16.7186C17.1675 16.8601 17.2431 17.0495 17.2414 17.2462C17.2396 17.4428 17.1608 17.6309 17.0217 17.77C16.8827 17.909 16.6946 17.9879 16.4979 17.9896C16.3013 17.9913 16.1118 17.9157 15.9704 17.7791L14.2799 16.0902C12.7987 17.3268 10.9295 18.0028 8.99992 17.9996C7.07033 18.0028 5.20116 17.3268 3.71997 16.0902L2.03098 17.7806C1.96125 17.8502 1.87849 17.9054 1.78742 17.9431C1.69635 17.9807 1.59875 18.0001 1.50021 18C1.40166 17.9999 1.3041 17.9804 1.21308 17.9427C1.12206 17.9049 1.03938 17.8496 0.969743 17.7798C0.90011 17.7101 0.844894 17.6273 0.807246 17.5363C0.769599 17.4452 0.750258 17.3476 0.750328 17.2491C0.750468 17.0501 0.829664 16.8593 0.970493 16.7186L2.65948 15.0297C1.42278 13.5486 0.746795 11.6794 0.749995 9.7499C0.749995 8.64894 0.965993 7.59748 1.35749 6.63752C0.932413 6.28601 0.590293 5.84489 0.355615 5.34573C0.120936 4.84657 -0.000498151 4.3017 1.53586e-06 3.75013ZM5.46445 2.29368C5.27106 2.06721 5.03464 1.88138 4.76888 1.74697C4.50313 1.61257 4.21333 1.53225 3.9163 1.51069C3.61927 1.48913 3.32092 1.52675 3.03854 1.62137C2.75616 1.71598 2.49537 1.86572 2.2713 2.06189C2.04723 2.25805 1.86433 2.49675 1.73322 2.76414C1.6021 3.03153 1.52537 3.32228 1.50748 3.61955C1.48959 3.91681 1.5309 4.21467 1.629 4.49586C1.7271 4.77704 1.88005 5.03595 2.07898 5.25757C2.91247 3.97625 4.08417 2.95046 5.46445 2.29368ZM15.9194 5.25757C16.1183 5.03595 16.2712 4.77704 16.3693 4.49586C16.4674 4.21467 16.5088 3.91681 16.4909 3.61955C16.473 3.32228 16.3962 3.03153 16.2651 2.76414C16.134 2.49675 15.9511 2.25805 15.727 2.06189C15.503 1.86572 15.2422 1.71598 14.9598 1.62137C14.6774 1.52675 14.3791 1.48913 14.082 1.51069C13.785 1.53225 13.4952 1.61257 13.2295 1.74697C12.9637 1.88138 12.7273 2.06721 12.5339 2.29368C13.9148 2.95017 15.087 3.97599 15.9209 5.25757H15.9194ZM8.24993 5.25007C8.05102 5.25007 7.86025 5.32908 7.7196 5.46973C7.57895 5.61038 7.49994 5.80113 7.49994 6.00004V10.4999C7.49994 10.6988 7.57895 10.8895 7.7196 11.0302C7.86025 11.1708 8.05102 11.2498 8.24993 11.2498H11.2499C11.4488 11.2498 11.6396 11.1708 11.7802 11.0302C11.9209 10.8895 11.9999 10.6988 11.9999 10.4999C11.9999 10.301 11.9209 10.1102 11.7802 9.96956C11.6396 9.82891 11.4488 9.7499 11.2499 9.7499H8.99992V6.00004C8.99992 5.80113 8.9209 5.61038 8.78025 5.46973C8.6396 5.32908 8.44884 5.25007 8.24993 5.25007Z" fill="#EE4433"/>
</svg>
