<svg width="24" height="24" viewBox="0 0 24 24" fill="none" xmlns="http://www.w3.org/2000/svg">
<path d="M6 13C6 16.31 8.69 19 12 19C15.31 19 18 16.31 18 13C18 9.69 15.31 7 12 7V11L7 6L12 1V5C16.42 5 20 8.58 20 13C20 17.42 16.42 21 12 21C7.58 21 4 17.42 4 13H6Z" fill="url(#paint0_linear_1316_8564)"/>
<path d="M10.6696 15.9999V11.7299H10.5796L8.80957 12.3599V13.0499L9.81957 12.7399V15.9999H10.6696ZM14.0896 11.7799C13.9096 11.7099 13.7196 11.6799 13.4996 11.6799C13.2796 11.6799 13.0896 11.7099 12.9096 11.7799C12.7296 11.8499 12.5796 11.9599 12.4596 12.1099C12.3396 12.2599 12.2296 12.4499 12.1696 12.6799C12.1096 12.9099 12.0696 13.1799 12.0696 13.4999V14.2399C12.0696 14.5599 12.1096 14.8399 12.1796 15.0599C12.2496 15.2799 12.3496 15.4799 12.4796 15.6299C12.6096 15.7799 12.7596 15.8899 12.9396 15.9599C13.1196 16.0299 13.3096 16.0599 13.5296 16.0599C13.7496 16.0599 13.9396 16.0299 14.1196 15.9599C14.2996 15.8899 14.4496 15.7799 14.5696 15.6299C14.6896 15.4799 14.7896 15.2899 14.8596 15.0599C14.9296 14.8299 14.9596 14.5599 14.9596 14.2399V13.4999C14.9596 13.1799 14.9196 12.8999 14.8496 12.6799C14.7796 12.4599 14.6796 12.2599 14.5496 12.1099C14.4196 11.9599 14.2596 11.8499 14.0896 11.7799ZM14.0996 14.3499C14.0996 14.5399 14.0896 14.6999 14.0596 14.8299C14.0296 14.9599 13.9996 15.0699 13.9496 15.1499C13.8996 15.2299 13.8396 15.2899 13.7596 15.3199C13.6796 15.3499 13.5996 15.3699 13.5096 15.3699C13.4196 15.3699 13.3296 15.3499 13.2596 15.3199C13.1896 15.2899 13.1196 15.2299 13.0696 15.1499C13.0196 15.0699 12.9796 14.9599 12.9496 14.8299C12.9196 14.6999 12.9096 14.5399 12.9096 14.3499V13.3799C12.9096 13.1899 12.9196 13.0299 12.9496 12.8999C12.9796 12.7699 13.0096 12.6699 13.0696 12.5899C13.1296 12.5099 13.1796 12.4499 13.2596 12.4199C13.3396 12.3899 13.4196 12.3699 13.5096 12.3699C13.5996 12.3699 13.6896 12.3899 13.7596 12.4199C13.8296 12.4499 13.8996 12.5099 13.9496 12.5899C13.9996 12.6699 14.0396 12.7699 14.0696 12.8999C14.0996 13.0299 14.1096 13.1899 14.1096 13.3799V14.3499H14.0996Z" fill="url(#paint1_linear_1316_8564)"/>
<defs>
<linearGradient id="paint0_linear_1316_8564" x1="20" y1="1" x2="1.48956" y2="10.1977" gradientUnits="userSpaceOnUse">
<stop stop-color="white"/>
<stop offset="1" stop-color="#FFBFBF"/>
</linearGradient>
<linearGradient id="paint1_linear_1316_8564" x1="8.80957" y1="11.6799" x2="13.8486" y2="16.0746" gradientUnits="userSpaceOnUse">
<stop stop-color="white"/>
<stop offset="1" stop-color="#FFBFBF"/>
</linearGradient>
</defs>
</svg>
