<svg width="12" height="12" viewBox="0 0 12 12" fill="none" xmlns="http://www.w3.org/2000/svg">
<path d="M6 1.5C6.41309 1.5 6.81152 1.55273 7.19531 1.6582C7.5791 1.76367 7.93652 1.91602 8.26758 2.11523C8.59863 2.31445 8.90186 2.54883 9.17725 2.81836C9.45264 3.08789 9.68848 3.39111 9.88477 3.72803C10.0811 4.06494 10.2319 4.42383 10.3374 4.80469C10.4429 5.18555 10.4971 5.58398 10.5 6C10.5 6.53906 10.4077 7.05762 10.2231 7.55566C10.0386 8.05371 9.77051 8.50928 9.41895 8.92236L3.07764 2.58105C3.48779 2.22949 3.94189 1.96143 4.43994 1.77686C4.93799 1.59229 5.45801 1.5 6 1.5ZM1.5 6C1.5 5.46094 1.59229 4.94238 1.77686 4.44434C1.96143 3.94629 2.22949 3.49072 2.58105 3.07764L8.92236 9.41895C8.51221 9.77051 8.05811 10.0386 7.56006 10.2231C7.06201 10.4077 6.54199 10.5 6 10.5C5.58691 10.5 5.18848 10.4473 4.80469 10.3418C4.4209 10.2363 4.06348 10.084 3.73242 9.88477C3.40137 9.68555 3.09814 9.45117 2.82275 9.18164C2.54736 8.91211 2.31152 8.60889 2.11523 8.27197C1.91895 7.93506 1.76807 7.57617 1.6626 7.19531C1.55713 6.81445 1.50293 6.41602 1.5 6Z" fill="#DA2828"/>
</svg>
