<svg width="34" height="34" viewBox="0 0 34 34" fill="none" xmlns="http://www.w3.org/2000/svg">
<path d="M16.8819 33.3785C14.5998 33.3785 12.4552 32.9455 10.448 32.0794C8.44089 31.2133 6.69494 30.0378 5.21019 28.5531C3.72544 27.0683 2.55002 25.3224 1.68392 23.3152C0.817816 21.3081 0.384766 19.1634 0.384766 16.8813C0.384766 14.5992 0.817816 12.4546 1.68392 10.4474C2.55002 8.44028 3.72544 6.69433 5.21019 5.20958C6.69494 3.72483 8.44089 2.54941 10.448 1.68331C12.4552 0.817206 14.5998 0.384155 16.8819 0.384155C19.1641 0.384155 21.3087 0.817206 23.3158 1.68331C25.323 2.54941 27.069 3.72483 28.5537 5.20958C30.0384 6.69433 31.2139 8.44028 32.08 10.4474C32.9461 12.4546 33.3791 14.5992 33.3791 16.8813C33.3791 19.1634 32.9461 21.3081 32.08 23.3152C31.2139 25.3224 30.0384 27.0683 28.5537 28.5531C27.069 30.0378 25.323 31.2133 23.3158 32.0794C21.3087 32.9455 19.1641 33.3785 16.8819 33.3785ZM16.8819 30.0791C20.5663 30.0791 23.687 28.8005 26.2441 26.2435C28.8012 23.6864 30.0797 20.5657 30.0797 16.8813C30.0797 15.3966 29.8391 13.9668 29.3579 12.5921C28.8768 11.2173 28.1825 9.95252 27.2752 8.79772L8.79833 27.2746C9.95313 28.1819 11.2179 28.8762 12.5927 29.3573C13.9674 29.8385 15.3972 30.0791 16.8819 30.0791ZM6.48872 24.9649L24.9656 6.48811C23.8108 5.58077 22.546 4.88651 21.1712 4.40534C19.7964 3.92417 18.3667 3.68359 16.8819 3.68359C13.1976 3.68359 10.0769 4.96212 7.5198 7.51918C4.96273 10.0762 3.6842 13.197 3.6842 16.8813C3.6842 18.3661 3.92478 19.7958 4.40595 21.1706C4.88712 22.5454 5.58138 23.8101 6.48872 24.9649Z" fill="#EE4433"/>
</svg>
