<svg width="32" height="32" viewBox="0 0 32 32" fill="none" xmlns="http://www.w3.org/2000/svg">
<path fill-rule="evenodd" clip-rule="evenodd" d="M2.79786 16.2684C2.79786 9.11842 8.59375 3.32254 15.7438 3.32254C22.8938 3.32254 28.6897 9.11842 28.6897 16.2684C28.6897 23.4185 22.8938 29.2144 15.7438 29.2144C13.8362 29.217 11.9518 28.7965 10.2262 27.9832L4.35267 29.1872C4.14295 29.23 3.92588 29.2202 3.72088 29.1586C3.51589 29.097 3.32936 28.9856 3.178 28.8342C3.02665 28.6829 2.91518 28.4963 2.85358 28.2913C2.79199 28.0863 2.78218 27.8693 2.82505 27.6596L4.02902 21.786C3.21575 20.0605 2.79527 18.176 2.79786 16.2684ZM9.91811 14.3266C9.40309 14.3266 8.90916 14.5312 8.54499 14.8953C8.18082 15.2595 7.97623 15.7534 7.97623 16.2684V16.2814C7.97623 16.7964 8.18082 17.2903 8.54499 17.6545C8.90916 18.0187 9.40309 18.2233 9.91811 18.2233H9.93106C10.4461 18.2233 10.94 18.0187 11.3042 17.6545C11.6684 17.2903 11.8729 16.7964 11.8729 16.2814V16.2684C11.8729 15.7534 11.6684 15.2595 11.3042 14.8953C10.94 14.5312 10.4461 14.3266 9.93106 14.3266H9.91811ZM15.7438 14.3266C15.2287 14.3266 14.7348 14.5312 14.3706 14.8953C14.0065 15.2595 13.8019 15.7534 13.8019 16.2684V16.2814C13.8019 16.7964 14.0065 17.2903 14.3706 17.6545C14.7348 18.0187 15.2287 18.2233 15.7438 18.2233H15.7567C16.2717 18.2233 16.7657 18.0187 17.1298 17.6545C17.494 17.2903 17.6986 16.7964 17.6986 16.2814V16.2684C17.6986 15.7534 17.494 15.2595 17.1298 14.8953C16.7657 14.5312 16.2717 14.3266 15.7567 14.3266H15.7438ZM19.6275 16.2684C19.6275 15.7534 19.8321 15.2595 20.1963 14.8953C20.5605 14.5312 21.0544 14.3266 21.5694 14.3266H21.5824C22.0974 14.3266 22.5913 14.5312 22.9555 14.8953C23.3197 15.2595 23.5243 15.7534 23.5243 16.2684V16.2814C23.5243 16.7964 23.3197 17.2903 22.9555 17.6545C22.5913 18.0187 22.0974 18.2233 21.5824 18.2233H21.5694C21.0544 18.2233 20.5605 18.0187 20.1963 17.6545C19.8321 17.2903 19.6275 16.7964 19.6275 16.2814V16.2684Z" fill="white"/>
</svg>
