<svg width="22" height="22" viewBox="0 0 22 22" fill="none" xmlns="http://www.w3.org/2000/svg">
<path d="M19.0002 7.83319C17.9597 7.8331 16.9454 7.50667 16.1002 6.89985C16.0529 7.02639 15.9683 7.13558 15.8576 7.21297C15.7469 7.29035 15.6152 7.33227 15.4802 7.33319H6.52016C6.34335 7.33319 6.17378 7.26295 6.04876 7.13792C5.92373 7.0129 5.8535 6.84333 5.8535 6.66652C5.8535 6.48971 5.92373 6.32014 6.04876 6.19512C6.17378 6.07009 6.34335 5.99985 6.52016 5.99985H15.1335C14.5885 5.32826 14.228 4.52614 14.0877 3.67267C13.9474 2.81921 14.0321 1.94391 14.3335 1.13319C13.2498 0.821803 12.1277 0.664703 11.0002 0.666519C5.12016 0.666519 0.333496 4.85319 0.333496 9.99985C0.333496 15.1465 5.12016 19.3332 11.0002 19.3332C12.1003 19.3319 13.195 19.1794 14.2535 18.8799L17.9402 21.2265C18.0408 21.2911 18.157 21.3274 18.2765 21.3317C18.396 21.3359 18.5144 21.3079 18.6194 21.2507C18.7244 21.1934 18.812 21.109 18.8731 21.0062C18.9343 20.9034 18.9666 20.7861 18.9668 20.6665V16.1799C19.801 15.3796 20.4666 14.4206 20.9246 13.3593C21.3826 12.298 21.6236 11.1557 21.6335 9.99985C21.6306 9.09204 21.4774 8.19097 21.1802 7.33319C20.5009 7.66321 19.7554 7.8342 19.0002 7.83319ZM13.5002 13.9999H8.50016C8.32335 13.9999 8.15378 13.9296 8.02876 13.8046C7.90373 13.6796 7.8335 13.51 7.8335 13.3332C7.8335 13.1564 7.90373 12.9868 8.02876 12.8618C8.15378 12.7368 8.32335 12.6665 8.50016 12.6665H13.5002C13.677 12.6665 13.8465 12.7368 13.9716 12.8618C14.0966 12.9868 14.1668 13.1564 14.1668 13.3332C14.1668 13.51 14.0966 13.6796 13.9716 13.8046C13.8465 13.9296 13.677 13.9999 13.5002 13.9999ZM15.6668 10.6665H6.3335C6.15669 10.6665 5.98712 10.5963 5.86209 10.4713C5.73707 10.3462 5.66683 10.1767 5.66683 9.99985C5.66683 9.82304 5.73707 9.65347 5.86209 9.52845C5.98712 9.40343 6.15669 9.33319 6.3335 9.33319H15.6668C15.8436 9.33319 16.0132 9.40343 16.1382 9.52845C16.2633 9.65347 16.3335 9.82304 16.3335 9.99985C16.3335 10.1767 16.2633 10.3462 16.1382 10.4713C16.0132 10.5963 15.8436 10.6665 15.6668 10.6665Z" fill="#EE4433"/>
</svg>
