<svg width="24" height="24" viewBox="0 0 24 24" fill="none" xmlns="http://www.w3.org/2000/svg">
<path fill-rule="evenodd" clip-rule="evenodd" d="M6.53477 3.25C6.24662 3.25009 5.96295 3.32134 5.70895 3.45741C5.45495 3.59348 5.23848 3.79017 5.07877 4.03L1.48977 9.412C1.27077 9.742 1.24477 10.164 1.42177 10.518C3.38585 14.4461 6.11533 17.9419 9.44977 20.8L11.1998 22.301C11.4227 22.4921 11.7066 22.5971 12.0003 22.5971C12.2939 22.5971 12.5778 22.4921 12.8008 22.301L14.5508 20.801C17.8857 17.9427 20.6155 14.4465 22.5798 10.518C22.7568 10.164 22.7298 9.742 22.5108 9.412L18.9198 4.03C18.76 3.79049 18.5437 3.59409 18.2899 3.4582C18.0361 3.32232 17.7527 3.25115 17.4648 3.251L6.53477 3.25ZM6.32677 4.861C6.34963 4.82682 6.38058 4.7988 6.41686 4.77944C6.45314 4.76008 6.49364 4.74997 6.53477 4.75H8.87477L6.95977 9.346C6.9159 9.45115 6.88241 9.56034 6.85977 9.672C6.15551 9.61942 5.45209 9.55608 4.74977 9.482L3.34477 9.335L6.32677 4.861ZM3.27977 10.836C5.07417 14.1281 7.44278 17.0727 10.2738 19.531L7.14877 11.197C6.29616 11.1384 5.44469 11.0644 4.59477 10.975L3.27977 10.836ZM8.78577 11.29L11.9998 19.864L15.2148 11.29C13.0725 11.3874 10.927 11.3874 8.78477 11.29H8.78577ZM16.8528 11.197L13.7278 19.531C16.5588 17.0727 18.9274 14.1281 20.7218 10.836L19.4068 10.975C18.5568 11.064 17.7058 11.138 16.8528 11.197ZM20.6558 9.335L19.2498 9.483C18.5474 9.55709 17.844 9.62043 17.1398 9.673C17.1175 9.56103 17.0844 9.4515 17.0408 9.346L15.1248 4.75H17.4648C17.5059 4.74997 17.5464 4.76008 17.5827 4.77944C17.619 4.7988 17.6499 4.82682 17.6728 4.861L20.6558 9.335ZM15.5928 9.77C13.1998 9.894 10.8028 9.894 8.40877 9.77L10.4998 4.75H13.4998L15.5918 9.77H15.5928Z" fill="#EE4433"/>
</svg>
