<svg width="12" height="12" viewBox="0 0 12 12" fill="none" xmlns="http://www.w3.org/2000/svg">
<g clip-path="url(#clip0_1539_4119)">
<path d="M2.25 6.375H5.25V7.125H2.25V6.375Z" fill="url(#paint0_linear_1539_4119)"/>
<path d="M1.125 7.125C1.33211 7.125 1.5 6.95711 1.5 6.75C1.5 6.54289 1.33211 6.375 1.125 6.375C0.917893 6.375 0.75 6.54289 0.75 6.75C0.75 6.95711 0.917893 7.125 1.125 7.125Z" fill="url(#paint1_linear_1539_4119)"/>
<path d="M4.875 5.625C5.08211 5.625 5.25 5.45711 5.25 5.25C5.25 5.04289 5.08211 4.875 4.875 4.875C4.66789 4.875 4.5 5.04289 4.5 5.25C4.5 5.45711 4.66789 5.625 4.875 5.625Z" fill="url(#paint2_linear_1539_4119)"/>
<path d="M0.75 4.875H3.75V5.625H0.75V4.875ZM2.25 3.375H5.25V4.125H2.25V3.375Z" fill="url(#paint3_linear_1539_4119)"/>
<path d="M1.125 4.125C1.33211 4.125 1.5 3.95711 1.5 3.75C1.5 3.54289 1.33211 3.375 1.125 3.375C0.917893 3.375 0.75 3.54289 0.75 3.75C0.75 3.95711 0.917893 4.125 1.125 4.125Z" fill="url(#paint4_linear_1539_4119)"/>
<path d="M11.2498 10.725L8.47481 7.95C9.03731 7.2 9.37481 6.2625 9.37481 5.25C9.37481 2.775 7.3498 0.75 4.8748 0.75C3.6373 0.75 2.4748 1.2375 1.6123 2.175L2.1748 2.7C2.8498 1.9125 3.8248 1.5 4.8748 1.5C6.9373 1.5 8.62481 3.1875 8.62481 5.25C8.62481 7.3125 6.9373 9 4.8748 9C3.7498 9 2.6998 8.5125 1.9873 7.65L1.4248 8.1375C2.2498 9.15 3.5248 9.75 4.8748 9.75C6.0748 9.75 7.16231 9.2625 7.98731 8.5125L10.7248 11.25L11.2498 10.725Z" fill="url(#paint5_linear_1539_4119)"/>
</g>
<defs>
<linearGradient id="paint0_linear_1539_4119" x1="2.35769" y1="6.375" x2="2.40406" y2="7.26256" gradientUnits="userSpaceOnUse">
<stop stop-color="#DA286F"/>
<stop offset="1" stop-color="#EE4433"/>
</linearGradient>
<linearGradient id="paint1_linear_1539_4119" x1="0.776923" y1="6.375" x2="0.955107" y2="7.22775" gradientUnits="userSpaceOnUse">
<stop stop-color="#DA286F"/>
<stop offset="1" stop-color="#EE4433"/>
</linearGradient>
<linearGradient id="paint2_linear_1539_4119" x1="4.52692" y1="4.875" x2="4.70511" y2="5.72775" gradientUnits="userSpaceOnUse">
<stop stop-color="#DA286F"/>
<stop offset="1" stop-color="#EE4433"/>
</linearGradient>
<linearGradient id="paint3_linear_1539_4119" x1="0.911539" y1="3.375" x2="1.18747" y2="6.01611" gradientUnits="userSpaceOnUse">
<stop stop-color="#DA286F"/>
<stop offset="1" stop-color="#EE4433"/>
</linearGradient>
<linearGradient id="paint4_linear_1539_4119" x1="0.776923" y1="3.375" x2="0.955107" y2="4.22775" gradientUnits="userSpaceOnUse">
<stop stop-color="#DA286F"/>
<stop offset="1" stop-color="#EE4433"/>
</linearGradient>
<linearGradient id="paint5_linear_1539_4119" x1="1.7775" y1="0.75" x2="4.4277" y2="12.6179" gradientUnits="userSpaceOnUse">
<stop stop-color="#DA286F"/>
<stop offset="1" stop-color="#EE4433"/>
</linearGradient>
<clipPath id="clip0_1539_4119">
<rect width="12" height="12" fill="white"/>
</clipPath>
</defs>
</svg>
