<svg width="12" height="12" viewBox="0 0 12 12" fill="none" xmlns="http://www.w3.org/2000/svg">
<g clip-path="url(#clip0_375_13630)">
<path d="M6.00024 10.5C9.3143 10.5 12.0002 8.31797 12.0002 5.625C12.0002 2.93203 9.3143 0.75 6.00024 0.75C2.68618 0.75 0.000241104 2.93203 0.000241104 5.625C0.000241104 6.68203 0.415085 7.65937 1.11821 8.45859C1.07368 9.03281 0.851022 9.54375 0.616647 9.93281C0.487741 10.1484 0.356491 10.3219 0.260397 10.4391C0.211179 10.4977 0.173679 10.5422 0.145554 10.5727C0.131491 10.5867 0.122116 10.5984 0.115085 10.6055L0.108054 10.6125C0.000241105 10.7203 -0.0302276 10.8797 0.0283661 11.0203C0.0869599 11.1609 0.222897 11.2523 0.375241 11.2523C1.0479 11.2523 1.72524 11.0437 2.28774 10.8C2.82446 10.5656 3.28149 10.2867 3.5604 10.0828C4.30571 10.3523 5.13071 10.5023 6.00024 10.5023V10.5ZM6.46899 3.1875V3.51328C6.64477 3.54141 6.81118 3.58125 6.96352 3.62344C7.2143 3.68906 7.36196 3.94688 7.29633 4.19766C7.23071 4.44844 6.9729 4.59609 6.72212 4.53047C6.4643 4.4625 6.21587 4.41328 5.99087 4.40859C5.80571 4.40625 5.61587 4.45078 5.48696 4.52578C5.37446 4.59141 5.34165 4.65703 5.34165 4.74375C5.34165 4.78594 5.34399 4.82578 5.46587 4.90078C5.61352 4.98984 5.82915 5.05781 6.12915 5.14688L6.14555 5.15156C6.40805 5.23125 6.74555 5.33203 7.01508 5.50313C7.31743 5.69297 7.58462 6.00234 7.59165 6.47812C7.59868 6.96797 7.34555 7.32422 7.0104 7.53281C6.84165 7.63828 6.65415 7.70391 6.46665 7.74375V8.0625C6.46665 8.32031 6.25571 8.53125 5.9979 8.53125C5.74008 8.53125 5.52915 8.32031 5.52915 8.0625V7.72031C5.28774 7.66875 5.0604 7.59141 4.86821 7.52344C4.81899 7.50703 4.77212 7.49062 4.72524 7.47422C4.47915 7.39219 4.3479 7.12734 4.42993 6.88125C4.51196 6.63516 4.7768 6.50391 5.0229 6.58594C5.08149 6.60469 5.13774 6.62578 5.19165 6.64219C5.5104 6.75 5.75415 6.83203 6.0143 6.84141C6.21587 6.84844 6.40102 6.80391 6.51587 6.73125C6.61196 6.67266 6.65649 6.60234 6.65415 6.48516C6.65415 6.41719 6.6354 6.36797 6.51587 6.29297C6.36821 6.19922 6.15493 6.13125 5.85962 6.04219L5.81977 6.03047C5.5643 5.95312 5.24321 5.85703 4.9854 5.70234C4.68774 5.52187 4.40883 5.22188 4.40649 4.74844C4.40415 4.25391 4.68305 3.91172 5.01118 3.71953C5.1729 3.62344 5.35102 3.56016 5.53149 3.52031V3.1875C5.53149 2.92969 5.74243 2.71875 6.00024 2.71875C6.25805 2.71875 6.46899 2.92969 6.46899 3.1875Z" fill="url(#paint0_linear_375_13630)"/>
</g>
<defs>
<linearGradient id="paint0_linear_375_13630" x1="0.429837" y1="0.75" x2="2.63495" y2="12.8093" gradientUnits="userSpaceOnUse">
<stop stop-color="#DA286F"/>
<stop offset="1" stop-color="#EE4433"/>
</linearGradient>
<clipPath id="clip0_375_13630">
<rect width="12" height="12" fill="white"/>
</clipPath>
</defs>
</svg>
