<svg width="18" height="19" viewBox="0 0 18 19" fill="none" xmlns="http://www.w3.org/2000/svg">
<path fill-rule="evenodd" clip-rule="evenodd" d="M3.75 15.4828H14.25C14.4489 15.4828 14.6397 15.5618 14.7803 15.7025C14.921 15.8431 15 16.0339 15 16.2328C15 16.4317 14.921 16.6225 14.7803 16.7631C14.6397 16.9038 14.4489 16.9828 14.25 16.9828H3.75C3.55109 16.9828 3.36032 16.9038 3.21967 16.7631C3.07902 16.6225 3 16.4317 3 16.2328C3 16.0339 3.07902 15.8431 3.21967 15.7025C3.36032 15.5618 3.55109 15.4828 3.75 15.4828ZM3 11.7328L10.5 4.23279L12.75 6.48279L5.25 13.9828H3V11.7328ZM11.25 3.48279L12.75 1.98279L15 4.23279L13.4993 5.73354L11.25 3.48279Z" fill="#FF0404"/>
</svg>
