<svg width="25" height="24" viewBox="0 0 25 24" fill="none" xmlns="http://www.w3.org/2000/svg">
<rect width="25" height="24" fill="#969696"/>
<g id="Profile">
<rect x="-47" y="-1312" width="390" height="1560" rx="30" fill="url(#paint0_linear_0_1)"/>
<g id="Frame 36714">
<g id="Frame 36715">
<g id="Frame 134">
<g id="Input">
<g id="Input_2" filter="url(#filter0_d_0_1)">
<rect x="-13.5" y="-11" width="320" height="46" rx="12" fill="white"/>
<g id="zondicons:education" clip-path="url(#clip0_0_1)">
<path id="Vector" d="M4.496 9.6L12.5 14.4L24.5 7.2L12.5 0L0.5 7.2H12.5V9.6H4.496ZM0.5 9.6V19.2L2.9 16.536V11.04L0.5 9.6ZM12.5 24L6.5 20.4L4.1 18.96V11.76L12.5 16.8L20.9 11.76V18.96L12.5 24Z" fill="#A3A3A4"/>
</g>
</g>
</g>
</g>
</g>
</g>
</g>
<defs>
<filter id="filter0_d_0_1" x="-37.5" y="-35" width="368" height="94" filterUnits="userSpaceOnUse" color-interpolation-filters="sRGB">
<feFlood flood-opacity="0" result="BackgroundImageFix"/>
<feColorMatrix in="SourceAlpha" type="matrix" values="0 0 0 0 0 0 0 0 0 0 0 0 0 0 0 0 0 0 127 0" result="hardAlpha"/>
<feOffset/>
<feGaussianBlur stdDeviation="12"/>
<feComposite in2="hardAlpha" operator="out"/>
<feColorMatrix type="matrix" values="0 0 0 0 0 0 0 0 0 0 0 0 0 0 0 0 0 0 0.1 0"/>
<feBlend mode="normal" in2="BackgroundImageFix" result="effect1_dropShadow_0_1"/>
<feBlend mode="normal" in="SourceGraphic" in2="effect1_dropShadow_0_1" result="shape"/>
</filter>
<linearGradient id="paint0_linear_0_1" x1="-47" y1="-1312" x2="502.347" y2="-1226.7" gradientUnits="userSpaceOnUse">
<stop stop-color="#DA286F"/>
<stop offset="1" stop-color="#EE4433"/>
</linearGradient>
<clipPath id="clip0_0_1">
<rect width="24" height="24" fill="white" transform="translate(0.5)"/>
</clipPath>
</defs>
</svg>
