<svg width="24" height="24" viewBox="0 0 24 24" fill="none" xmlns="http://www.w3.org/2000/svg">
<path d="M8 12C9.06087 12 10.0783 11.5786 10.8284 10.8284C11.5786 10.0783 12 9.06087 12 8C12 6.93913 11.5786 5.92172 10.8284 5.17157C10.0783 4.42143 9.06087 4 8 4C6.93913 4 5.92172 4.42143 5.17157 5.17157C4.42143 5.92172 4 6.93913 4 8C4 9.06087 4.42143 10.0783 5.17157 10.8284C5.92172 11.5786 6.93913 12 8 12ZM17 12C17.7956 12 18.5587 11.6839 19.1213 11.1213C19.6839 10.5587 20 9.79565 20 9C20 8.20435 19.6839 7.44129 19.1213 6.87868C18.5587 6.31607 17.7956 6 17 6C16.2044 6 15.4413 6.31607 14.8787 6.87868C14.3161 7.44129 14 8.20435 14 9C14 9.79565 14.3161 10.5587 14.8787 11.1213C15.4413 11.6839 16.2044 12 17 12ZM4.25 14C3.65326 14 3.08097 14.2371 2.65901 14.659C2.23705 15.081 2 15.6533 2 16.25V16.5C2 16.5 2 21 8 21C14 21 14 16.5 14 16.5V16.25C14 15.6533 13.7629 15.081 13.341 14.659C12.919 14.2371 12.3467 14 11.75 14H4.25ZM17 19.5C15.829 19.5 14.932 19.319 14.245 19.042C14.6448 18.3672 14.8958 17.6147 14.981 16.835C14.9907 16.7403 14.9971 16.6452 15 16.55V16.25C15.0013 15.4122 14.678 14.6065 14.098 14.002C14.132 14.0006 14.166 13.9999 14.2 14H19.8C20.3835 14 20.9431 14.2318 21.3556 14.6444C21.7682 15.0569 22 15.6165 22 16.2C22 16.2 22 19.5 17 19.5Z" fill="url(#paint0_linear_363_3247)"/>
<defs>
<linearGradient id="paint0_linear_363_3247" x1="2" y1="4" x2="20.8081" y2="17.7436" gradientUnits="userSpaceOnUse">
<stop stop-color="#DA286F"/>
<stop offset="1" stop-color="#EE4433"/>
</linearGradient>
</defs>
</svg>
