<svg width="33" height="32" viewBox="0 0 33 32" fill="none" xmlns="http://www.w3.org/2000/svg">
<path d="M16.7411 19.9749C18.9475 19.9749 20.7361 18.1862 20.7361 15.9799C20.7361 13.7735 18.9475 11.9849 16.7411 11.9849C14.5347 11.9849 12.7461 13.7735 12.7461 15.9799C12.7461 18.1862 14.5347 19.9749 16.7411 19.9749Z" fill="white"/>
<path d="M31.4024 14.8938C29.7507 12.3395 27.6078 10.1697 25.2058 8.61852C22.5485 6.90067 19.6146 5.99243 16.722 5.99243C14.0678 5.99243 11.458 6.75086 8.96485 8.24649C6.4224 9.77145 4.11904 11.9993 2.11842 14.8676C1.89256 15.1917 1.76818 15.5757 1.76107 15.9707C1.75395 16.3658 1.86443 16.754 2.07847 17.086C3.72703 19.6659 5.84875 21.8388 8.21329 23.3688C10.8756 25.0935 13.7407 25.9674 16.722 25.9674C19.6377 25.9674 22.5778 25.0667 25.2239 23.3632C27.6246 21.817 29.7632 19.6391 31.4086 17.0636C31.6153 16.7392 31.7246 16.3624 31.7234 15.9778C31.7223 15.5932 31.6109 15.217 31.4024 14.8938ZM16.7432 21.9724C15.558 21.9724 14.3994 21.621 13.414 20.9625C12.4285 20.304 11.6604 19.3681 11.2069 18.2732C10.7533 17.1782 10.6347 15.9733 10.8659 14.8109C11.0971 13.6484 11.6678 12.5807 12.5059 11.7426C13.344 10.9045 14.4117 10.3338 15.5742 10.1026C16.7366 9.87135 17.9415 9.99003 19.0365 10.4436C20.1315 10.8971 21.0674 11.6652 21.7258 12.6507C22.3843 13.6361 22.7357 14.7947 22.7357 15.9799C22.7339 17.5687 22.102 19.0918 20.9786 20.2153C19.8552 21.3387 18.332 21.9706 16.7432 21.9724Z" fill="white"/>
</svg>
