<svg width="40" height="40" viewBox="0 0 40 40" fill="none" xmlns="http://www.w3.org/2000/svg">
<mask id="mask0_1174_125" style="mask-type:alpha" maskUnits="userSpaceOnUse" x="0" y="0" width="40" height="40">
<rect x="0.0849609" y="0.0847168" width="39.5932" height="39.5932" rx="9.84835" fill="#D9D9D9"/>
</mask>
<g mask="url(#mask0_1174_125)">
<path d="M21.0174 34.7911C20.2264 35.499 19.0296 35.499 18.2387 34.7911C15.4737 32.2999 13.1988 30.1607 11.409 28.3709C9.62624 26.5881 8.23652 25.0155 7.22198 23.6498C6.20627 22.2825 5.54553 21.0897 5.18491 20.066C4.81432 19.014 4.63086 17.9451 4.63086 16.8525C4.63086 14.6414 5.35568 12.8722 6.78982 11.438C8.22397 10.0039 9.99323 9.27905 12.2043 9.27905C13.4148 9.27905 14.5586 9.5334 15.6514 10.0449C18.067 11.1756 21.1891 11.1756 23.6046 10.0449C24.6974 9.5334 25.8413 9.27905 27.0518 9.27905C29.2628 9.27905 31.0321 10.0039 32.4662 11.438C33.9004 12.8722 34.6252 14.6414 34.6252 16.8525C34.6252 17.9451 34.4418 19.014 34.0712 20.066C33.7105 21.0897 33.0498 22.2825 32.0341 23.6498C31.0196 25.0155 29.6298 26.5881 27.847 28.3709C26.0572 30.1607 23.7824 32.2999 21.0174 34.7911Z" fill="white" stroke="white" stroke-width="3"/>
</g>
</svg>
