<svg width="24" height="24" viewBox="0 0 24 24" fill="none" xmlns="http://www.w3.org/2000/svg">
<path d="M21.1431 6.85713H8.57171M6.28599 6.85713H2.85742M21.1431 18.2857H8.57171M6.28599 18.2857H2.85742M15.4289 12.5714H2.85742M21.1431 12.5714H17.7146M7.42885 4.57141C7.73196 4.57141 8.02265 4.69182 8.23697 4.90615C8.4513 5.12047 8.57171 5.41116 8.57171 5.71427V7.99998C8.57171 8.30309 8.4513 8.59378 8.23697 8.8081C8.02265 9.02243 7.73196 9.14284 7.42885 9.14284C7.12575 9.14284 6.83506 9.02243 6.62073 8.8081C6.4064 8.59378 6.28599 8.30309 6.28599 7.99998V5.71427C6.28599 5.41116 6.4064 5.12047 6.62073 4.90615C6.83506 4.69182 7.12575 4.57141 7.42885 4.57141ZM7.42885 16C7.73196 16 8.02265 16.1204 8.23697 16.3347C8.4513 16.549 8.57171 16.8397 8.57171 17.1428V19.4286C8.57171 19.7317 8.4513 20.0224 8.23697 20.2367C8.02265 20.451 7.73196 20.5714 7.42885 20.5714C7.12575 20.5714 6.83506 20.451 6.62073 20.2367C6.4064 20.0224 6.28599 19.7317 6.28599 19.4286V17.1428C6.28599 16.8397 6.4064 16.549 6.62073 16.3347C6.83506 16.1204 7.12575 16 7.42885 16ZM16.5717 10.2857C16.8748 10.2857 17.1655 10.4061 17.3798 10.6204C17.5942 10.8348 17.7146 11.1254 17.7146 11.4286V13.7143C17.7146 14.0174 17.5942 14.3081 17.3798 14.5224C17.1655 14.7367 16.8748 14.8571 16.5717 14.8571C16.2686 14.8571 15.9779 14.7367 15.7636 14.5224C15.5493 14.3081 15.4289 14.0174 15.4289 13.7143V11.4286C15.4289 11.1254 15.5493 10.8348 15.7636 10.6204C15.9779 10.4061 16.2686 10.2857 16.5717 10.2857Z" stroke="#EE4433" stroke-width="1.4" stroke-linecap="round" stroke-linejoin="round"/>
</svg>
