<svg width="32" height="32" viewBox="0 0 32 32" fill="none" xmlns="http://www.w3.org/2000/svg">
<g clip-path="url(#clip0_1506_4269)">
<path d="M28.6505 7.99995C24.0685 5.74095 19.486 3.47995 14.9055 1.22095C14.5935 1.06745 14.2645 0.854448 13.9005 0.963948C13.676 1.03245 13.4555 1.19595 13.2545 1.30995C12.1995 1.91195 11.143 2.51245 10.0875 3.11545C7.28946 4.71295 4.49096 6.30895 1.69046 7.90645C1.32946 8.11345 0.966958 8.31795 0.604958 8.52495C0.498513 8.55801 0.401032 8.61496 0.319958 8.69145C-0.0780424 8.95495 -0.0790424 9.40345 0.127958 9.73045C0.186458 9.84645 0.278958 9.95295 0.406958 10.0409L13.452 18.8484C13.7565 19.0534 14.0615 19.2599 14.365 19.4659C14.5825 19.6114 14.964 19.6014 15.1745 19.4464C19.38 16.3124 23.588 13.1774 27.7945 10.0419C28.091 9.82245 28.386 9.60295 28.68 9.38345C29.1335 9.04695 29.23 8.28795 28.6495 7.99995" fill="#D07929"/>
<path d="M15.4678 18.6451C15.3673 18.3116 15.0238 18.1301 14.7528 17.9446C10.3188 14.9196 5.88475 11.8996 1.45075 8.86961C1.4028 8.79749 1.34007 8.73639 1.26671 8.69036C1.19335 8.64433 1.11105 8.61442 1.02525 8.60261C0.604752 8.42711 0.230252 8.71161 0.0947517 9.09611C0.016681 9.25872 -0.00580517 9.44247 0.0307517 9.61911C0.481252 12.0486 0.934752 14.4801 1.38625 16.9101L2.19175 21.2401C2.30275 21.8296 2.30675 22.3521 2.80425 22.7401L14.4343 31.8151C14.9623 32.2266 15.8048 31.9691 15.7873 31.2181L15.6118 23.6581C15.5798 22.2696 15.5463 20.8821 15.5163 19.4931C15.5098 19.2241 15.5448 18.9001 15.4678 18.6401" fill="#F6921E"/>
<path d="M0.473251 11.9194C0.633251 11.8319 0.823751 11.8044 1.02525 11.8884C1.19275 11.9159 1.34725 12.0009 1.45075 12.1559L14.7528 21.2309C15.0238 21.4164 15.3673 21.5974 15.4678 21.9309C15.5448 22.1924 15.5098 22.5144 15.5168 22.7834C15.5473 24.1724 15.5803 25.5614 15.6123 26.9504L15.7163 31.4754C15.7603 31.3759 15.7903 31.2664 15.7878 31.1354L15.6123 23.5754C15.5803 22.1869 15.5468 20.7974 15.5168 19.4084C15.5098 19.1409 15.5453 18.8169 15.4678 18.5559C15.3673 18.2234 15.0238 18.0409 14.7528 17.8559C10.3188 14.8309 5.88475 11.8109 1.45075 8.78093C1.4025 8.70905 1.33969 8.64809 1.2664 8.60201C1.1931 8.55593 1.11095 8.52576 1.02525 8.51343C0.604751 8.33893 0.230251 8.62393 0.094751 9.00793C0.0166829 9.17036 -0.00580546 9.35396 0.030751 9.53043C0.176751 10.3269 0.324751 11.1229 0.473251 11.9194Z" fill="#9A5524"/>
<path d="M27.8748 8.07C23.7518 11.122 19.6293 14.176 15.5053 17.2285C15.2293 17.4315 14.9533 17.637 14.6793 17.8405C14.6508 17.861 14.6293 17.8805 14.6063 17.9C14.4248 18.0315 14.3018 18.245 14.3078 18.5425C14.4073 22.777 14.5048 27.014 14.6033 31.249C14.6208 32 15.4528 32.2185 15.9463 31.7835C19.5718 28.596 23.1993 25.4085 26.8278 22.2235C27.2353 21.8645 27.2083 20.895 27.2833 20.403C27.5143 18.9055 27.7423 17.4085 27.9718 15.911C28.3288 13.5885 28.6848 11.27 29.0398 8.949C29.1368 8.32 28.4828 7.622 27.8748 8.0725" fill="#D07929"/>
<path d="M14.6053 20.9895C14.6283 20.972 14.6508 20.9525 14.6783 20.933C14.9513 20.7375 15.2283 20.539 15.5043 20.3455C19.6273 17.4055 23.7508 14.4665 27.8748 11.53C28.1378 11.341 28.4093 11.369 28.6248 11.5025C28.7623 10.6395 28.9008 9.77402 29.0373 8.91002C29.1358 8.30552 28.4818 7.63352 27.8748 8.06552C23.7508 11.0035 19.6273 13.943 15.5043 16.881C15.2283 17.0775 14.9513 17.274 14.6783 17.4695C14.6508 17.489 14.6283 17.5085 14.6053 17.527C14.4248 17.6535 14.3018 17.8595 14.3078 18.145C14.3333 19.1815 14.3578 20.219 14.3828 21.257C14.4358 21.147 14.5108 21.0555 14.6053 20.9895Z" fill="#9A5524"/>
<path d="M18.7536 3.12207L4.78809 11.0601L9.28809 14.1301L22.3281 4.88607L18.7536 3.12207Z" fill="#BE202E"/>
<path d="M9.71323 3.33154L23.8082 10.964L18.7182 14.59L6.36523 5.24354L9.71323 3.33154Z" fill="#BE202E"/>
<path d="M9.29059 14.1299L9.90309 28.2849L5.84909 25.1199L4.78809 11.0599M18.7166 14.5899V29.3499L23.3376 25.2904L23.8066 10.9639" fill="#CC2F42"/>
<path d="M13.0299 3.01487C11.2644 4.47887 10.3089 7.13087 10.0904 9.10287C9.85639 11.2069 9.81339 13.4104 8.49489 15.1969C8.30589 15.4534 8.47339 15.6114 8.73889 15.4504C9.50439 14.9814 10.1629 14.4194 10.7724 13.7809C11.1614 14.5709 11.0329 15.5064 10.9449 16.3694C10.9039 16.7614 11.4879 16.2769 11.5739 16.1874C13.3639 14.2279 12.7764 11.8129 13.2564 9.37937C14.5279 2.93787 14.2784 1.98087 13.0299 3.01487Z" fill="#CC2F42"/>
<path d="M15.5503 9.32686C16.6778 11.5354 16.7678 14.0194 19.0273 15.4154C19.1308 15.4779 19.8273 15.7849 19.6813 15.4194C19.3638 14.6129 18.9818 13.7484 19.1418 12.8834C19.9008 13.3329 20.6878 13.6939 21.5548 13.9349C21.8553 14.0169 21.9683 13.8219 21.7163 13.6249C19.9628 12.2649 19.3188 10.1584 18.5208 8.19786C17.7698 6.35936 16.1293 4.06636 14.0303 3.14286C12.5468 2.48836 12.5703 3.47686 15.5503 9.32686Z" fill="#CC2F42"/>
<path d="M7.06016 1.74246C8.95916 1.47746 13.2832 2.25446 13.5152 3.91946C13.7462 5.58346 9.79816 7.50896 7.90066 7.77396C6.00266 8.03746 4.86016 6.81796 4.62866 5.15396C4.39466 3.48746 5.16316 2.00596 7.06016 1.74246ZM19.1352 0.062956C17.2352 0.328956 13.2877 2.25446 13.5202 3.91946C13.7512 5.58346 18.0772 6.35896 19.9712 6.09646C21.8732 5.83146 22.6377 4.34846 22.4057 2.68346C22.1752 1.01496 21.0337 -0.200044 19.1352 0.062956Z" fill="#CC2F42"/>
<path d="M16.9673 3.08758C17.0099 3.39398 16.9917 3.70577 16.9137 4.00512C16.8357 4.30447 16.6995 4.58551 16.5128 4.83218C16.3262 5.07885 16.0927 5.28631 15.8258 5.44269C15.5589 5.59908 15.2638 5.70132 14.9573 5.74358L12.6298 6.06808C12.0114 6.15461 11.384 5.99201 10.8855 5.61602C10.3869 5.24003 10.0581 4.68145 9.97134 4.06308C9.88599 3.44416 10.0497 2.81666 10.4265 2.31833C10.8034 1.81999 11.3626 1.49155 11.9813 1.40508L14.3123 1.08058C14.9312 0.995512 15.5585 1.15935 16.0566 1.53615C16.5548 1.91296 16.8832 2.47197 16.9698 3.09058" fill="#EF556C"/>
</g>
<defs>
<clipPath id="clip0_1506_4269">
<rect width="32" height="32" fill="white"/>
</clipPath>
</defs>
</svg>
