<svg width="28" height="28" viewBox="0 0 28 28" fill="none" xmlns="http://www.w3.org/2000/svg">
<path fill-rule="evenodd" clip-rule="evenodd" d="M22.1506 16.3188C22.9253 15.1033 23.3358 13.6914 23.3336 12.25C23.3336 8.06167 19.9386 4.66667 15.7503 4.66667C14.2528 4.66667 12.8569 5.10067 11.6815 5.84909C10.8993 5.89297 10.125 6.02965 9.375 6.25626C10.1923 5.38485 11.1799 4.69057 12.2766 4.21646C13.3732 3.74234 14.5555 3.49849 15.7503 3.50001C20.5826 3.50001 24.5002 7.41767 24.5002 12.25C24.5017 13.4447 24.2578 14.627 23.7837 15.7237C23.3096 16.8203 22.6154 17.8079 21.744 18.6253C21.9663 17.8885 22.1057 17.1162 22.1506 16.3188Z" fill="#DAAA00"/>
<path fill-rule="evenodd" clip-rule="evenodd" d="M23.2945 16.6851C22.8721 17.402 22.3501 18.0552 21.744 18.6253C21.9663 17.8885 22.1057 17.1162 22.1506 16.3188C22.9253 15.1033 23.3358 13.6914 23.3336 12.25C23.3336 8.06168 19.9386 4.66668 15.7503 4.66668C14.2528 4.66668 12.8569 5.10068 11.6815 5.84909C10.8993 5.89297 10.125 6.02965 9.375 6.25626C9.94507 5.6502 10.5983 5.12815 11.3152 4.70576C12.6589 3.91397 14.1906 3.49755 15.7503 3.50001C20.5826 3.50001 24.5003 7.41768 24.5003 12.25C24.503 13.8097 24.0866 15.3415 23.2945 16.6851Z" fill="#DAAA00"/>
<path fill-rule="evenodd" clip-rule="evenodd" d="M21 15.75C21 20.5823 17.0823 24.5 12.25 24.5C7.41767 24.5 3.5 20.5823 3.5 15.75C3.5 10.9177 7.41767 7 12.25 7C17.0823 7 21 10.9177 21 15.75ZM11.6667 12.8333C11.3572 12.8333 11.0605 12.9562 10.8417 13.175C10.6229 13.3938 10.5 13.6906 10.5 14C10.5 14.3094 10.6229 14.6062 10.8417 14.825C11.0605 15.0437 11.3572 15.1667 11.6667 15.1667V12.8333ZM12.8333 11.6667V11.0833H11.6667V11.6667C11.0478 11.6667 10.4543 11.9125 10.0168 12.3501C9.57917 12.7877 9.33333 13.3812 9.33333 14C9.33333 14.6188 9.57917 15.2123 10.0168 15.6499C10.4543 16.0875 11.0478 16.3333 11.6667 16.3333V18.6667C11.1592 18.6667 10.7269 18.3429 10.5659 17.8891C10.542 17.8148 10.5035 17.7461 10.4526 17.687C10.4017 17.6279 10.3395 17.5796 10.2696 17.545C10.1997 17.5104 10.1235 17.4901 10.0457 17.4855C9.96783 17.4808 9.88983 17.4917 9.81628 17.5177C9.74274 17.5437 9.67516 17.5842 9.61753 17.6367C9.5599 17.6893 9.5134 17.7529 9.48077 17.8237C9.44814 17.8946 9.43005 17.9712 9.42757 18.0492C9.42509 18.1271 9.43827 18.2048 9.46633 18.2776C9.62724 18.7326 9.92523 19.1265 10.3193 19.4051C10.7133 19.6837 11.1841 19.8333 11.6667 19.8333V20.4167H12.8333V19.8333C13.4522 19.8333 14.0457 19.5875 14.4832 19.1499C14.9208 18.7123 15.1667 18.1188 15.1667 17.5C15.1667 16.8812 14.9208 16.2877 14.4832 15.8501C14.0457 15.4125 13.4522 15.1667 12.8333 15.1667V12.8333C13.3408 12.8333 13.7731 13.1571 13.9341 13.6109C13.958 13.6852 13.9965 13.7539 14.0474 13.813C14.0983 13.8721 14.1605 13.9204 14.2304 13.955C14.3003 13.9896 14.3765 14.0099 14.4543 14.0145C14.5322 14.0192 14.6102 14.0083 14.6837 13.9823C14.7573 13.9563 14.8248 13.9158 14.8825 13.8633C14.9401 13.8107 14.9866 13.7471 15.0192 13.6763C15.0519 13.6054 15.0699 13.5288 15.0724 13.4508C15.0749 13.3729 15.0617 13.2952 15.0337 13.2224C14.8728 12.7674 14.5748 12.3735 14.1807 12.0949C13.7867 11.8163 13.3159 11.6667 12.8333 11.6667ZM12.8333 16.3333V18.6667C13.1428 18.6667 13.4395 18.5437 13.6583 18.325C13.8771 18.1062 14 17.8094 14 17.5C14 17.1906 13.8771 16.8938 13.6583 16.675C13.4395 16.4562 13.1428 16.3333 12.8333 16.3333Z" fill="#DAAA00"/>
</svg>
