<svg width="62" height="62" viewBox="0 0 62 62" fill="none" xmlns="http://www.w3.org/2000/svg">
<path d="M36.167 23.25C36.167 22.2223 36.5752 21.2367 37.302 20.51C38.0287 19.7833 39.0143 19.375 40.042 19.375C41.0697 19.375 42.0553 19.7833 42.782 20.51C43.5087 21.2367 43.917 22.2223 43.917 23.25C43.917 24.2777 43.5087 25.2633 42.782 25.99C42.0553 26.7167 41.0697 27.125 40.042 27.125C39.0143 27.125 38.0287 26.7167 37.302 25.99C36.5752 25.2633 36.167 24.2777 36.167 23.25Z" fill="black"/>
<path fill-rule="evenodd" clip-rule="evenodd" d="M18.7753 12.0333C26.9103 11.3261 35.0914 11.3261 43.2265 12.0333L47.1273 12.3743C48.9409 12.5322 50.6485 13.2959 51.9752 14.5424C53.3018 15.789 54.1703 17.4458 54.4408 19.246C55.6123 27.0383 55.6123 34.962 54.4408 42.7543C54.1703 44.5545 53.3018 46.2113 51.9752 47.4578C50.6485 48.7044 48.9409 49.4681 47.1273 49.626L43.2265 49.9644C35.089 50.6722 26.9102 50.6722 18.7753 49.9644L14.8744 49.626C13.0604 49.4686 11.3522 48.7052 10.025 47.4586C8.69783 46.212 7.82897 44.5549 7.55842 42.7543C6.38678 34.962 6.38678 27.0383 7.55842 19.246C7.82886 17.4458 8.69735 15.789 10.024 14.5424C11.3507 13.2959 13.0583 12.5322 14.8718 12.3743L18.7753 12.0333ZM42.8907 15.8954C34.9782 15.2075 27.021 15.2075 19.1085 15.8954L15.2077 16.2338C14.2616 16.3166 13.3708 16.7152 12.6787 17.3656C11.9866 18.016 11.5334 18.8803 11.3921 19.8195C10.7279 24.2387 10.459 28.7083 10.5887 33.1753L20.5888 23.1726C20.7754 22.9863 20.9981 22.84 21.2433 22.7428C21.4884 22.6456 21.7509 22.5994 22.0145 22.6071C22.2781 22.6149 22.5374 22.6764 22.7764 22.7878C23.0154 22.8993 23.2292 23.0583 23.4046 23.2553L32.8906 33.9245L39.4264 31.7441C39.7847 31.6242 40.1703 31.6116 40.5357 31.708C40.901 31.8044 41.2302 32.0055 41.4828 32.2866L50.5735 42.3875C51.7211 34.9095 51.7333 27.3011 50.6097 19.8195C50.4682 18.8799 50.0147 18.0153 49.3221 17.3649C48.6294 16.7144 47.7381 16.316 46.7915 16.2338L42.8907 15.8954ZM48.1013 45.4358L39.4497 35.8232L32.9035 38.0036C32.5438 38.1237 32.1566 38.1356 31.7902 38.0378C31.4237 37.94 31.094 37.7367 30.842 37.4533L21.8753 27.3654L10.9116 38.3265C11.0382 39.613 11.1958 40.8995 11.3895 42.1782C11.5304 43.1182 11.9837 43.9834 12.6764 44.6344C13.3691 45.2853 14.2607 45.6841 15.2077 45.7665L19.1085 46.1049C27.0213 46.7921 34.9779 46.7921 42.8907 46.1049L46.7915 45.7665C47.2513 45.7251 47.6957 45.6115 48.1013 45.4358Z" fill="#3F3F3F"/>
</svg>
