<svg width="33" height="33" viewBox="0 0 33 33" fill="none" xmlns="http://www.w3.org/2000/svg">
<circle cx="16.7437" cy="16.2923" r="15.98" fill="#EE4433"/>
<mask id="mask0_942_2096" style="mask-type:alpha" maskUnits="userSpaceOnUse" x="7" y="7" width="19" height="18">
<rect x="7.80566" y="7.35425" width="17.3342" height="17.3342" rx="8.66712" fill="#D9D9D9"/>
</mask>
<g mask="url(#mask0_942_2096)">
<path d="M17.0796 22.671C16.6708 23.0373 16.0518 23.0373 15.6429 22.671C14.4312 21.5792 13.433 20.6406 12.6468 19.8544C11.8627 19.0704 11.2484 18.3757 10.7979 17.7692C10.347 17.1623 10.0481 16.6254 9.88299 16.1568C9.71466 15.679 9.63109 15.1925 9.63109 14.6953C9.63109 13.6864 9.9639 12.8692 10.6244 12.2087C11.2849 11.5481 12.1022 11.2153 13.1111 11.2153C13.6651 11.2153 14.1896 11.3319 14.6899 11.5661C15.7033 12.0405 17.0192 12.0405 18.0326 11.5661C18.5329 11.3319 19.0575 11.2153 19.6114 11.2153C20.6204 11.2153 21.4376 11.5481 22.0981 12.2087C22.7586 12.8692 23.0915 13.6864 23.0915 14.6953C23.0915 15.1925 23.0079 15.679 22.8396 16.1568C22.6745 16.6254 22.3755 17.1623 21.9246 17.7692C21.4741 18.3757 20.8598 19.0704 20.0758 19.8544C19.2895 20.6406 18.2913 21.5792 17.0796 22.671Z" fill="white" stroke="white" stroke-width="0.984835"/>
</g>
</svg>
