<svg width="12" height="12" viewBox="0 0 12 12" fill="none" xmlns="http://www.w3.org/2000/svg">
<path fill-rule="evenodd" clip-rule="evenodd" d="M11 6C11 8.7615 8.76151 11 6.00001 11C5.20001 11 4.44401 10.812 3.77401 10.478C3.59702 10.3865 3.39271 10.3629 3.19951 10.4115L2.08651 10.7095C1.97634 10.7389 1.86038 10.7388 1.75027 10.7092C1.64016 10.6796 1.53976 10.6216 1.45916 10.5409C1.37857 10.4603 1.3206 10.3599 1.29108 10.2497C1.26157 10.1396 1.26154 10.0236 1.29101 9.9135L1.58851 8.8005C1.63689 8.6074 1.61307 8.40327 1.52151 8.2265C1.17732 7.53483 0.998782 6.77257 1.00001 6C1.00001 3.2385 3.23851 1 6.00001 1C8.76151 1 11 3.2385 11 6ZM3.75001 5.554C3.75001 6.2385 4.40951 6.9565 5.01451 7.471C5.42601 7.821 5.63201 7.9965 6.00001 7.9965C6.36801 7.9965 6.57401 7.8215 6.98551 7.471C7.59051 6.956 8.25001 6.2385 8.25001 5.554C8.25001 4.2155 7.01251 3.716 6.00001 4.75C4.98751 3.716 3.75001 4.2155 3.75001 5.554Z" fill="url(#paint0_linear_1539_4133)"/>
<defs>
<linearGradient id="paint0_linear_1539_4133" x1="1.35897" y1="1" x2="3.73476" y2="12.37" gradientUnits="userSpaceOnUse">
<stop stop-color="#DA286F"/>
<stop offset="1" stop-color="#EE4433"/>
</linearGradient>
</defs>
</svg>
