<svg width="17" height="17" viewBox="0 0 17 17" fill="none" xmlns="http://www.w3.org/2000/svg">
<mask id="mask0_371_13000" style="mask-type:alpha" maskUnits="userSpaceOnUse" x="0" y="0" width="17" height="17">
<rect width="16.5246" height="16.5246" fill="#D9D9D9"/>
</mask>
<g mask="url(#mask0_371_13000)">
<path d="M8.2622 15.1476C7.30974 15.1476 6.41466 14.9668 5.57695 14.6054C4.73925 14.2439 4.01056 13.7533 3.39089 13.1336C2.77122 12.514 2.28064 11.7853 1.91917 10.9476C1.55769 10.1099 1.37695 9.21478 1.37695 8.26232C1.37695 7.30986 1.55769 6.41478 1.91917 5.57708C2.28064 4.73937 2.77122 4.01068 3.39089 3.39101C4.01056 2.77134 4.73925 2.28076 5.57695 1.91929C6.41466 1.55781 7.30974 1.37708 8.2622 1.37708H13.7704C14.1491 1.37708 14.4733 1.51191 14.7429 1.78158C15.0126 2.05126 15.1474 2.37544 15.1474 2.75412V8.26232C15.1474 9.21478 14.9667 10.1099 14.6052 10.9476C14.2438 11.7853 13.7532 12.514 13.1335 13.1336C12.5138 13.7533 11.7852 14.2439 10.9474 14.6054C10.1097 14.9668 9.21466 15.1476 8.2622 15.1476ZM4.81958 10.3279H9.63925V8.95085L11.7048 10.3279V6.19675L9.63925 7.5738V6.19675H4.81958V10.3279Z" fill="#EE4433"/>
</g>
</svg>
