<svg width="14" height="14" viewBox="0 0 14 14" fill="none" xmlns="http://www.w3.org/2000/svg">
<path d="M6.61742 12.1323C5.64315 12.1323 4.84812 11.9783 4.23231 11.6702C3.6165 11.3621 3.30859 10.9647 3.30859 10.4779C3.30859 10.1562 3.44187 9.87588 3.70841 9.63691C3.97495 9.39794 4.3426 9.20952 4.81135 9.07166L5.12845 10.1194C4.9722 10.1654 4.82973 10.2229 4.70106 10.2921C4.57238 10.3612 4.48506 10.4231 4.43911 10.4779C4.55859 10.625 4.83433 10.7536 5.26631 10.8639C5.6983 10.9742 6.14867 11.0294 6.61742 11.0294C7.08617 11.0294 7.53892 10.9742 7.97569 10.8639C8.41245 10.7536 8.6904 10.625 8.80951 10.4779C8.76356 10.4228 8.67624 10.3606 8.54756 10.2915C8.41889 10.2224 8.27642 10.165 8.12017 10.1194L8.43727 9.07166C8.90602 9.20952 9.27146 9.39794 9.53359 9.63691C9.79573 9.87588 9.92661 10.1562 9.92624 10.4779C9.92624 10.965 9.61834 11.3626 9.00253 11.6707C8.38672 11.9788 7.59168 12.1327 6.61742 12.1323ZM6.61742 10.4779C6.51631 10.4779 6.4244 10.4479 6.34168 10.388C6.25896 10.3281 6.19922 10.2478 6.16245 10.147C5.95106 9.49445 5.68451 8.94757 5.36282 8.5064C5.04113 8.06522 4.72863 7.64243 4.42532 7.23802C4.1312 6.8336 3.87624 6.41541 3.66043 5.98342C3.44462 5.55143 3.33654 5.01835 3.33617 4.38416C3.33617 3.46504 3.65326 2.68838 4.28745 2.05419C4.92165 1.42 5.6983 1.10291 6.61742 1.10291C7.53653 1.10291 8.31319 1.42 8.94738 2.05419C9.58157 2.68838 9.89867 3.46504 9.89867 4.38416C9.89867 5.01835 9.79297 5.55143 9.58157 5.98342C9.37017 6.41541 9.11282 6.8336 8.80951 7.23802C8.5154 7.64243 8.20529 8.06522 7.87918 8.5064C7.55308 8.94757 7.28415 9.49445 7.07238 10.147C7.03562 10.2481 6.97587 10.3286 6.89315 10.3886C6.81043 10.4485 6.71852 10.4783 6.61742 10.4779ZM6.61742 5.55603C6.93911 5.55603 7.21484 5.44114 7.44462 5.21136C7.6744 4.98158 7.78929 4.70585 7.78929 4.38416C7.78929 4.06246 7.6744 3.78673 7.44462 3.55695C7.21484 3.32717 6.93911 3.21228 6.61742 3.21228C6.29573 3.21228 6.01999 3.32717 5.79021 3.55695C5.56043 3.78673 5.44554 4.06246 5.44554 4.38416C5.44554 4.70585 5.56043 4.98158 5.79021 5.21136C6.01999 5.44114 6.29573 5.55603 6.61742 5.55603Z" fill="white"/>
</svg>
