<svg width="28" height="34" viewBox="0 0 28 34" fill="none" xmlns="http://www.w3.org/2000/svg">
<path d="M14.0003 0.333344C9.40532 0.333344 5.66699 4.07168 5.66699 8.66668V12H4.00033C2.16199 12 0.666992 13.495 0.666992 15.3333V30.3333C0.666992 32.1717 2.16199 33.6667 4.00033 33.6667H24.0003C25.8387 33.6667 27.3337 32.1717 27.3337 30.3333V15.3333C27.3337 13.495 25.8387 12 24.0003 12H22.3337V8.66668C22.3337 4.07168 18.5953 0.333344 14.0003 0.333344ZM9.00033 8.66668C9.00033 5.91001 11.2437 3.66668 14.0003 3.66668C16.757 3.66668 19.0003 5.91001 19.0003 8.66668V12H9.00033V8.66668ZM24.0037 30.3333H15.667V26.5367C16.6587 25.9583 17.3337 24.895 17.3337 23.6667C17.3337 21.8283 15.8387 20.3333 14.0003 20.3333C12.162 20.3333 10.667 21.8283 10.667 23.6667C10.667 24.8933 11.342 25.9583 12.3337 26.5367V30.3333H4.00033V15.3333H24.0003L24.0037 30.3333Z" fill="#EE4433"/>
</svg>
