<svg width="12" height="12" viewBox="0 0 12 12" fill="none" xmlns="http://www.w3.org/2000/svg">
<path d="M1.5 9.5L3.75 6L1.5 2.5H7.5C7.66667 2.5 7.823 2.5375 7.969 2.6125C8.115 2.6875 8.23367 2.79167 8.325 2.925L10.3375 5.7625C10.1375 5.67917 9.90617 5.6125 9.6435 5.5625C9.38083 5.5125 9.14133 5.49167 8.925 5.5C7.94167 5.51667 7.125 5.873 6.475 6.569C5.825 7.265 5.5 8.07933 5.5 9.012C5.5 9.09533 5.50217 9.17667 5.5065 9.256C5.51083 9.33533 5.52117 9.4165 5.5375 9.4995L1.5 9.5ZM9 11.5C8.30833 11.5 7.71867 11.2562 7.231 10.7685C6.74333 10.2808 6.49967 9.69133 6.5 9C6.5 8.30833 6.74383 7.71867 7.2315 7.231C7.71917 6.74333 8.30867 6.49967 9 6.5C9.69167 6.5 10.2813 6.74383 10.769 7.2315C11.2567 7.71917 11.5003 8.30867 11.5 9C11.5 9.69167 11.2562 10.2813 10.7685 10.769C10.2808 11.2567 9.69133 11.5003 9 11.5ZM8.6375 10.125L10.375 8.4L9.85 7.875L8.6375 9.0625L8.15 8.575L7.625 9.1125L8.6375 10.125Z" fill="url(#paint0_linear_1539_4126)"/>
<defs>
<linearGradient id="paint0_linear_1539_4126" x1="1.85897" y1="2.5" x2="3.79878" y2="12.815" gradientUnits="userSpaceOnUse">
<stop stop-color="#DA286F"/>
<stop offset="1" stop-color="#EE4433"/>
</linearGradient>
</defs>
</svg>
