<svg width="22" height="22" viewBox="0 0 22 22" fill="none" xmlns="http://www.w3.org/2000/svg">
<path d="M14.4375 11C14.4375 11.6799 14.2359 12.3445 13.8582 12.9098C13.4805 13.4751 12.9436 13.9157 12.3155 14.1758C11.6874 14.436 10.9962 14.5041 10.3294 14.3714C9.66257 14.2388 9.05006 13.9114 8.56932 13.4307C8.08858 12.9499 7.76119 12.3374 7.62855 11.6706C7.49591 11.0038 7.56399 10.3126 7.82416 9.68453C8.08434 9.05641 8.52493 8.51954 9.09023 8.14182C9.65552 7.76411 10.3201 7.5625 11 7.5625C11.9117 7.5625 12.786 7.92466 13.4307 8.56932C14.0753 9.21398 14.4375 10.0883 14.4375 11ZM21.3125 5.5V16.5C21.3125 16.6823 21.2401 16.8572 21.1111 16.9861C20.9822 17.1151 20.8073 17.1875 20.625 17.1875H1.375C1.19266 17.1875 1.0178 17.1151 0.888864 16.9861C0.759933 16.8572 0.6875 16.6823 0.6875 16.5V5.5C0.6875 5.31766 0.759933 5.1428 0.888864 5.01386C1.0178 4.88493 1.19266 4.8125 1.375 4.8125H20.625C20.8073 4.8125 20.9822 4.88493 21.1111 5.01386C21.2401 5.1428 21.3125 5.31766 21.3125 5.5ZM19.9375 9.4832C19.1568 9.25238 18.4463 8.82991 17.8707 8.25428C17.2951 7.67865 16.8726 6.96815 16.6418 6.1875H5.3582C5.12738 6.96815 4.70491 7.67865 4.12928 8.25428C3.55365 8.82991 2.84315 9.25238 2.0625 9.4832V12.5168C2.84315 12.7476 3.55365 13.1701 4.12928 13.7457C4.70491 14.3213 5.12738 15.0318 5.3582 15.8125H16.6418C16.8726 15.0318 17.2951 14.3213 17.8707 13.7457C18.4463 13.1701 19.1568 12.7476 19.9375 12.5168V9.4832Z" fill="black"/>
</svg>
