<svg width="12" height="12" viewBox="0 0 12 12" fill="none" xmlns="http://www.w3.org/2000/svg">
<path d="M7.99822 3.35853C7.77134 2.77915 7.47322 2.30478 7.03372 2.05203C7.12579 1.90903 7.17766 1.74388 7.18386 1.57392C7.19006 1.40396 7.15036 1.23546 7.06895 1.08614C6.98754 0.936818 6.86741 0.81218 6.72118 0.725322C6.57496 0.638465 6.40804 0.592594 6.23797 0.592529C6.06787 0.592618 5.90093 0.638526 5.7547 0.72543C5.60848 0.812334 5.48836 0.937024 5.40698 1.0864C5.3256 1.23577 5.28596 1.4043 5.29223 1.57429C5.29849 1.74427 5.35044 1.90943 5.44259 2.0524C3.95272 2.91003 4.07122 6.2749 3.13934 7.85928C2.33309 8.07115 1.83247 8.36665 1.83247 8.69253V9.1144C1.83247 9.21565 1.87634 9.31128 1.95322 9.40465L7.99822 3.35815V3.35853ZM6.23834 0.966779C6.39012 0.967077 6.5356 1.0275 6.64292 1.13483C6.75025 1.24215 6.81067 1.38763 6.81097 1.5394C6.81097 1.6789 6.75847 1.8049 6.67597 1.90465C6.53348 1.8666 6.38657 1.84769 6.23909 1.8484C6.08084 1.8484 5.93609 1.86865 5.80147 1.90465C5.71507 1.80233 5.6673 1.67295 5.66647 1.53903C5.66647 1.22328 5.92222 0.967154 6.23834 0.966404V0.966779ZM9.33697 7.85928C8.91509 7.14153 8.70772 6.05853 8.46997 5.00853L3.39997 10.0793C3.92272 10.206 4.54747 10.2994 5.23559 10.3455C5.23484 10.3635 5.23034 10.3815 5.23034 10.3999C5.23746 10.6625 5.34675 10.9119 5.53497 11.0951C5.7232 11.2784 5.97549 11.3809 6.23816 11.381C6.50084 11.381 6.75316 11.2786 6.94145 11.0954C7.12974 10.9123 7.23913 10.6629 7.24634 10.4003C7.24634 10.3815 7.24184 10.3639 7.24034 10.3459C9.18584 10.2147 10.6386 9.7129 10.6386 9.11478V8.69253C10.645 8.36628 10.144 8.07115 9.33697 7.85928ZM10.0045 1.8829L1.35547 10.5315L1.88647 11.0625L10.534 2.41315L10.0045 1.8829Z" fill="#DA2828"/>
</svg>
