<svg width="25" height="24" viewBox="0 0 25 24" fill="none" xmlns="http://www.w3.org/2000/svg">
<path d="M6.1 20H18.9C19.3243 20 19.7313 19.8314 20.0314 19.5314C20.3314 19.2313 20.5 18.8243 20.5 18.4V5.6C20.5 5.17565 20.3314 4.76869 20.0314 4.46863C19.7313 4.16857 19.3243 4 18.9 4H9.3C8.87565 4 8.46869 4.16857 8.16863 4.46863C7.86857 4.76869 7.7 5.17565 7.7 5.6V18.4C7.7 18.8243 7.53143 19.2313 7.23137 19.5314C6.93131 19.8314 6.52435 20 6.1 20ZM6.1 20C5.67565 20 5.26869 19.8314 4.96863 19.5314C4.66857 19.2313 4.5 18.8243 4.5 18.4V11.2C4.5 10.32 5.22 9.6 6.1 9.6H7.7M17.3 13.6H10.9M14.9 16.8H10.9" stroke="#A3A3A4" stroke-width="2" stroke-linecap="round" stroke-linejoin="round"/>
<path d="M10.9004 7.2002H17.3004V10.4002H10.9004V7.2002Z" stroke="#A3A3A4" stroke-width="2" stroke-linecap="round" stroke-linejoin="round"/>
</svg>
