<svg width="24" height="24" viewBox="0 0 24 24" fill="none" xmlns="http://www.w3.org/2000/svg">
<path d="M17.9995 9C18.7952 9 19.5582 8.68393 20.1208 8.12132C20.6834 7.55871 20.9995 6.79565 20.9995 6C20.9995 5.20435 20.6834 4.44129 20.1208 3.87868C19.5582 3.31607 18.7952 3 17.9995 3C17.2039 3 16.4408 3.31607 15.8782 3.87868C15.3156 4.44129 14.9995 5.20435 14.9995 6C14.9995 6.79565 15.3156 7.55871 15.8782 8.12132C16.4408 8.68393 17.2039 9 17.9995 9Z" stroke="#EE4433" stroke-width="2" stroke-linecap="round" stroke-linejoin="round"/>
<path d="M16.6686 13.5915V16.0334C16.6686 16.6542 16.9154 17.2528 17.3563 17.6921C17.7956 18.1331 18.5406 18.3798 19.163 18.3798H1.65283C2.27524 18.3798 3.02022 18.1331 3.45957 17.6921C3.67776 17.4745 3.85082 17.216 3.96883 16.9314C4.08684 16.6467 4.14747 16.3416 4.14724 16.0334V10.3012C4.14724 8.64078 4.80685 7.04835 5.98096 5.87424C7.15506 4.70013 8.7475 4.04053 10.4079 4.04053" stroke="#EE4433" stroke-width="2" stroke-linecap="round" stroke-linejoin="round"/>
<path d="M8.81592 22.3467H11.9996" stroke="#EE4433" stroke-width="2" stroke-linecap="round" stroke-linejoin="round"/>
</svg>
