<svg width="24" height="24" viewBox="0 0 24 24" fill="none" xmlns="http://www.w3.org/2000/svg">
<path d="M11.931 2.05818C12.0548 1.90322 12.2082 1.77436 12.3822 1.67906C12.5561 1.58377 12.7473 1.52392 12.9445 1.503C13.1418 1.48207 13.3412 1.50048 13.5313 1.55716C13.7214 1.61383 13.8984 1.70765 14.052 1.83318L18.945 5.82918C19.2141 6.04888 19.3986 6.35518 19.467 6.69576C19.5354 7.03635 19.4834 7.39012 19.32 7.69668C18.8922 7.56593 18.4473 7.4997 18 7.50018H17.55L17.997 6.99018L15.42 4.88568L13.2945 7.50168H11.361L14.2575 3.93768L13.1025 2.99418L9.5055 7.50018H7.5855L11.931 2.05818ZM15.75 15.0002C15.5511 15.0002 15.3603 15.0792 15.2197 15.2198C15.079 15.3605 15 15.5513 15 15.7502C15 15.9491 15.079 16.1399 15.2197 16.2805C15.3603 16.4212 15.5511 16.5002 15.75 16.5002H17.25C17.4489 16.5002 17.6397 16.4212 17.7803 16.2805C17.921 16.1399 18 15.9491 18 15.7502C18 15.5513 17.921 15.3605 17.7803 15.2198C17.6397 15.0792 17.4489 15.0002 17.25 15.0002H15.75ZM4.5 8.25018C4.5 8.05126 4.57902 7.8605 4.71967 7.71985C4.86032 7.57919 5.05109 7.50018 5.25 7.50018H6.087L7.2795 6.00018H5.25C4.65326 6.00018 4.08097 6.23723 3.65901 6.65919C3.23705 7.08114 3 7.65344 3 8.25018V17.2502C3 18.2447 3.39509 19.1986 4.09835 19.9018C4.80161 20.6051 5.75544 21.0002 6.75 21.0002H18C18.7956 21.0002 19.5587 20.6841 20.1213 20.1215C20.6839 19.5589 21 18.7958 21 18.0002V12.0002C21 11.2045 20.6839 10.4415 20.1213 9.87886C19.5587 9.31625 18.7956 9.00018 18 9.00018H5.25C5.05109 9.00018 4.86032 8.92116 4.71967 8.78051C4.57902 8.63985 4.5 8.44909 4.5 8.25018ZM4.5 17.2502V10.3727C4.734 10.4552 4.9875 10.5002 5.25 10.5002H18C18.3978 10.5002 18.7794 10.6582 19.0607 10.9395C19.342 11.2208 19.5 11.6024 19.5 12.0002V18.0002C19.5 18.398 19.342 18.7795 19.0607 19.0608C18.7794 19.3421 18.3978 19.5002 18 19.5002H6.75C6.15326 19.5002 5.58097 19.2631 5.15901 18.8412C4.73705 18.4192 4.5 17.8469 4.5 17.2502Z" fill="#EE4433"/>
</svg>
