<svg width="24" height="24" viewBox="0 0 24 24" fill="none" xmlns="http://www.w3.org/2000/svg">
<g clip-path="url(#clip0_816_6170)">
<path d="M1.47352 3.3098C1.70752 5.1118 2.50852 8.9518 2.87152 10.5728C2.96652 11.0318 3.07252 11.4258 3.16952 11.5858C3.67052 12.4508 4.07652 11.2988 4.07652 11.2988C5.64352 6.6158 3.16952 3.5968 2.37952 2.7868C2.24052 2.6368 1.99552 2.4548 1.77152 2.3908C1.45152 2.2958 1.39752 2.4768 1.39752 2.6268C1.40752 2.7748 1.46252 3.1918 1.47252 3.3088L1.47352 3.3098ZM23.3085 1.8468C23.6185 2.0708 24.6945 3.2018 23.3085 3.3728C21.3245 3.6068 17.5485 3.7458 11.2865 8.9828C8.91952 10.9678 3.60652 16.3108 0.759517 22.9568C0.742755 22.9979 0.711498 23.0313 0.67168 23.0509C0.631862 23.0704 0.586255 23.0747 0.543517 23.0628C0.288517 22.9888 -0.170483 22.7108 0.0635174 21.6448C0.383517 20.2048 3.26452 12.7068 10.8805 6.0928C13.3655 3.9378 19.2965 -1.1392 23.3065 1.8478L23.3085 1.8468Z" fill="url(#paint0_linear_816_6170)"/>
</g>
<defs>
<linearGradient id="paint0_linear_816_6170" x1="0.860574" y1="0.930175" x2="-0.479114" y2="26.645" gradientUnits="userSpaceOnUse">
<stop stop-color="#DA9328"/>
<stop offset="1" stop-color="#EE4433"/>
</linearGradient>
<clipPath id="clip0_816_6170">
<rect width="24" height="24" fill="white"/>
</clipPath>
</defs>
</svg>
