<svg width="55" height="55" viewBox="0 0 55 55" fill="none" xmlns="http://www.w3.org/2000/svg">
<path d="M5.7949 9.4619C5.44002 9.557 5.1186 9.74897 4.86659 10.0163C4.61459 10.2837 4.44194 10.6159 4.36797 10.9758L0.8175 28.326C0.740321 28.6998 0.772801 29.0879 0.911031 29.4436C1.04926 29.7993 1.28735 30.1075 1.59664 30.3311L34.6592 54.2698C34.8977 54.4424 35.1716 54.5597 35.4611 54.613C35.7506 54.6664 36.0483 54.6546 36.3326 54.5784C36.6169 54.5022 36.8807 54.3636 37.1047 54.1726C37.3287 53.9817 37.5073 53.7432 37.6275 53.4745L54.2912 16.2116C54.448 15.8636 54.5008 15.4777 54.4433 15.1003C54.3859 14.7229 54.2205 14.3702 53.9672 14.0846L42.2173 0.834067C41.9729 0.558884 41.6565 0.357288 41.3039 0.25191C40.9512 0.146532 40.5761 0.141545 40.2208 0.23751L5.7949 9.4619ZM5.33894 25.983L8.00179 12.9703L15.8432 10.8692L16.0492 23.1132L5.33894 25.983ZM7.28572 29.5611L17.1659 26.9137L28.6286 45.0133L7.28572 29.5611ZM21.1708 25.8406L35.0942 22.1098L34.1007 46.2487L21.1708 25.8406ZM39.1029 21.0357L48.9793 18.3893L38.2219 42.4427L39.1029 21.0357ZM48.8762 14.3172L38.1659 17.187L32.2223 6.48042L40.0638 4.37931L48.8762 14.3172ZM34.2223 18.2437L19.9929 22.0565L19.7869 9.81248L28.2786 7.53713L34.2223 18.2437Z" fill="url(#paint0_linear_353_2143)"/>
<defs>
<linearGradient id="paint0_linear_353_2143" x1="-1.84606" y1="11.5093" x2="24.426" y2="65.422" gradientUnits="userSpaceOnUse">
<stop stop-color="#DA286F"/>
<stop offset="1" stop-color="#EE4433"/>
</linearGradient>
</defs>
</svg>
