<svg width="19" height="17" viewBox="0 0 19 17" fill="none" xmlns="http://www.w3.org/2000/svg">
<path d="M18.395 5.96912L14.2397 10.15C14.0446 10.3463 13.7799 10.4566 13.5039 10.4566C13.2279 10.4566 12.9632 10.3463 12.7681 10.15C12.5729 9.95363 12.4633 9.68731 12.4633 9.40962C12.4633 9.13193 12.5729 8.86562 12.7681 8.66926L15.1496 6.27485H12.5525C10.94 6.27432 9.373 6.81308 8.09802 7.80642C6.82304 8.79975 5.91238 10.1913 5.50925 11.7622C5.47514 11.8951 5.41535 12.02 5.33329 12.1297C5.25123 12.2393 5.1485 12.3316 5.03098 12.4014C4.91345 12.4711 4.78343 12.5168 4.64833 12.536C4.51324 12.5552 4.37571 12.5474 4.24361 12.513C4.11151 12.4787 3.98742 12.4186 3.87843 12.336C3.76943 12.2534 3.67767 12.1501 3.60838 12.0318C3.53908 11.9136 3.49362 11.7828 3.47457 11.6468C3.45553 11.5109 3.46328 11.3725 3.49739 11.2396C4.01487 9.21949 5.18543 7.42991 6.82477 6.15263C8.46411 4.87536 10.4791 4.18295 12.5525 4.18442H15.1496L12.7698 1.78739C12.5746 1.59103 12.465 1.32472 12.465 1.04703C12.465 0.769339 12.5746 0.503023 12.7698 0.306667C12.9649 0.110311 13.2296 2.92593e-09 13.5056 0C13.7816 -2.92593e-09 14.0463 0.110311 14.2415 0.306667L18.3968 4.48753C18.4936 4.58476 18.5705 4.70029 18.6228 4.82748C18.6752 4.95467 18.702 5.09102 18.7019 5.22869C18.7017 5.36636 18.6745 5.50264 18.6219 5.6297C18.5692 5.75677 18.4921 5.87212 18.395 5.96912ZM14.8899 13.9398H2.07766V3.83601C2.07766 3.5588 1.96821 3.29295 1.77339 3.09693C1.57857 2.90092 1.31434 2.7908 1.03883 2.7908C0.763313 2.7908 0.499084 2.90092 0.304266 3.09693C0.109448 3.29295 0 3.5588 0 3.83601V14.2882C0 14.7502 0.182413 15.1933 0.507109 15.52C0.831806 15.8467 1.27219 16.0302 1.73138 16.0302H14.8899C15.1654 16.0302 15.4296 15.9201 15.6244 15.7241C15.8192 15.528 15.9287 15.2622 15.9287 14.985C15.9287 14.7078 15.8192 14.4419 15.6244 14.2459C15.4296 14.0499 15.1654 13.9398 14.8899 13.9398Z" fill="#EE4433"/>
</svg>
