<svg width="73" height="73" viewBox="0 0 73 73" fill="none" xmlns="http://www.w3.org/2000/svg">
<circle cx="36.5" cy="36.5" r="36.5" fill="#00A3FF"/>
<path d="M32.7165 19.9102C33.9388 16.7566 38.401 16.7566 39.6233 19.9102L41.6255 25.0762C42.151 26.4321 43.4213 27.355 44.8732 27.4358L50.4051 27.7436C53.7821 27.9315 55.161 32.1754 52.5394 34.3124L48.2449 37.813C47.1178 38.7317 46.6326 40.225 47.0044 41.6308L48.4211 46.987C49.2859 50.2569 45.6759 52.8797 42.8334 51.0468L38.1771 48.0442C36.955 47.2562 35.3849 47.2562 34.1628 48.0442L29.5064 51.0468C26.6639 52.8797 23.0539 50.2569 23.9187 46.987L25.3354 41.6308C25.7072 40.225 25.222 38.7317 24.0949 37.813L19.8005 34.3124C17.1789 32.1754 18.5578 27.9315 21.9348 27.7436L27.4667 27.4358C28.9186 27.355 30.1888 26.4321 30.7143 25.0762L32.7165 19.9102Z" fill="white"/>
<rect x="31.8486" y="51.6482" width="2.16049" height="5.8642" rx="1.08025" fill="white"/>
<rect x="35.5527" y="49.179" width="2.16049" height="10.8025" rx="1.08025" fill="white"/>
<rect x="39.2559" y="51.6482" width="2.16049" height="5.8642" rx="1.08025" fill="white"/>
</svg>
