<svg width="24" height="24" viewBox="0 0 24 24" fill="none" xmlns="http://www.w3.org/2000/svg">
<path fill-rule="evenodd" clip-rule="evenodd" d="M12 21.6C14.5461 21.6 16.9879 20.5886 18.7882 18.7882C20.5886 16.9879 21.6 14.5461 21.6 12C21.6 9.45395 20.5886 7.01215 18.7882 5.2118C16.9879 3.41145 14.5461 2.40002 12 2.40002C9.45392 2.40002 7.01212 3.41145 5.21177 5.2118C3.41142 7.01215 2.39999 9.45395 2.39999 12C2.39999 14.5461 3.41142 16.9879 5.21177 18.7882C7.01212 20.5886 9.45392 21.6 12 21.6ZM11.466 8.60162C11.2853 8.48105 11.0752 8.4118 10.8582 8.40126C10.6412 8.39072 10.4254 8.43928 10.2339 8.54178C10.0423 8.64427 9.88218 8.79684 9.77054 8.98321C9.65891 9.16959 9.59996 9.38277 9.59999 9.60002V14.4C9.59996 14.6173 9.65891 14.8305 9.77054 15.0168C9.88218 15.2032 10.0423 15.3558 10.2339 15.4583C10.4254 15.5608 10.6412 15.6093 10.8582 15.5988C11.0752 15.5883 11.2853 15.519 11.466 15.3984L15.066 12.9984C15.2303 12.8888 15.3651 12.7404 15.4583 12.5662C15.5515 12.392 15.6003 12.1976 15.6003 12C15.6003 11.8025 15.5515 11.608 15.4583 11.4338C15.3651 11.2597 15.2303 11.1112 15.066 11.0016L11.466 8.60162Z" fill="#CBCBCB"/>
</svg>
