<svg width="24" height="24" viewBox="0 0 24 24" fill="none" xmlns="http://www.w3.org/2000/svg">
<path fill-rule="evenodd" clip-rule="evenodd" d="M12 21.5999C14.5461 21.5999 16.9879 20.5885 18.7882 18.7881C20.5886 16.9878 21.6 14.546 21.6 11.9999C21.6 9.45382 20.5886 7.01203 18.7882 5.21168C16.9879 3.41133 14.5461 2.3999 12 2.3999C9.45392 2.3999 7.01212 3.41133 5.21177 5.21168C3.41142 7.01203 2.39999 9.45382 2.39999 11.9999C2.39999 14.546 3.41142 16.9878 5.21177 18.7881C7.01212 20.5885 9.45392 21.5999 12 21.5999ZM11.466 8.6015C11.2853 8.48093 11.0752 8.41168 10.8582 8.40114C10.6412 8.3906 10.4254 8.43916 10.2339 8.54165C10.0423 8.64415 9.88218 8.79672 9.77054 8.98309C9.65891 9.16947 9.59996 9.38265 9.59999 9.5999V14.3999C9.59996 14.6172 9.65891 14.8303 9.77054 15.0167C9.88218 15.2031 10.0423 15.3557 10.2339 15.4582C10.4254 15.5606 10.6412 15.6092 10.8582 15.5987C11.0752 15.5881 11.2853 15.5189 11.466 15.3983L15.066 12.9983C15.2303 12.8887 15.3651 12.7403 15.4583 12.5661C15.5515 12.3919 15.6003 12.1974 15.6003 11.9999C15.6003 11.8024 15.5515 11.6079 15.4583 11.4337C15.3651 11.2596 15.2303 11.1111 15.066 11.0015L11.466 8.6015Z" fill="url(#paint0_linear_363_3245)"/>
<defs>
<linearGradient id="paint0_linear_363_3245" x1="2.39999" y1="2.3999" x2="22.3864" y2="14.8138" gradientUnits="userSpaceOnUse">
<stop stop-color="#DA286F"/>
<stop offset="1" stop-color="#EE4433"/>
</linearGradient>
</defs>
</svg>
