<svg width="20" height="20" viewBox="0 0 20 20" fill="none" xmlns="http://www.w3.org/2000/svg">
<path d="M12.8125 6.25C12.8125 5.50408 12.5162 4.78871 11.9887 4.26126C11.4613 3.73382 10.7459 3.4375 10 3.4375H4.0625C3.31658 3.4375 2.60121 3.73382 2.07376 4.26126C1.54632 4.78871 1.25 5.50408 1.25 6.25V13.75C1.25 14.4959 1.54632 15.2113 2.07376 15.7387C2.60121 16.2662 3.31658 16.5625 4.0625 16.5625H10C10.7459 16.5625 11.4613 16.2662 11.9887 15.7387C12.5162 15.2113 12.8125 14.4959 12.8125 13.75V6.25ZM13.75 12.375L16.8831 14.725C17.6519 15.3019 18.75 14.7531 18.75 13.7919V6.20875C18.75 5.24688 17.6525 4.69812 16.8831 5.275L13.75 7.625V12.375Z" fill="#62D03A"/>
</svg>
