<svg width="20" height="20" viewBox="0 0 20 20" fill="none" xmlns="http://www.w3.org/2000/svg">
<path d="M3.85 15.1C4.7 14.45 5.65 13.9373 6.7 13.562C7.75 13.1867 8.85 12.9993 10 13C11.15 13 12.25 13.1877 13.3 13.563C14.35 13.9383 15.3 14.4507 16.15 15.1C16.7333 14.4167 17.1877 13.6417 17.513 12.775C17.8383 11.9083 18.0007 10.9833 18 10C18 7.78333 17.221 5.89567 15.663 4.337C14.105 2.77833 12.2173 1.99933 10 2C7.78333 2 5.89567 2.779 4.337 4.337C2.77833 5.895 1.99933 7.78267 2 10C2 10.9833 2.16267 11.9083 2.488 12.775C2.81333 13.6417 3.26733 14.4167 3.85 15.1ZM10 11C9.01667 11 8.18733 10.6627 7.512 9.988C6.83667 9.31333 6.49933 8.484 6.5 7.5C6.5 6.51667 6.83733 5.68733 7.512 5.012C8.18667 4.33667 9.016 3.99933 10 4C10.9833 4 11.8127 4.33733 12.488 5.012C13.1633 5.68667 13.5007 6.516 13.5 7.5C13.5 8.48333 13.1627 9.31267 12.488 9.988C11.8133 10.6633 10.984 11.0007 10 11ZM10 20C8.61667 20 7.31667 19.7373 6.1 19.212C4.88333 18.6867 3.825 17.9743 2.925 17.075C2.025 16.175 1.31267 15.1167 0.788 13.9C0.263333 12.6833 0.000666667 11.3833 0 10C0 8.61667 0.262667 7.31667 0.788 6.1C1.31333 4.88333 2.02567 3.825 2.925 2.925C3.825 2.025 4.88333 1.31267 6.1 0.788C7.31667 0.263333 8.61667 0.000666667 10 0C11.3833 0 12.6833 0.262667 13.9 0.788C15.1167 1.31333 16.175 2.02567 17.075 2.925C17.975 3.825 18.6877 4.88333 19.213 6.1C19.7383 7.31667 20.0007 8.61667 20 10C20 11.3833 19.7373 12.6833 19.212 13.9C18.6867 15.1167 17.9743 16.175 17.075 17.075C16.175 17.975 15.1167 18.6877 13.9 19.213C12.6833 19.7383 11.3833 20.0007 10 20ZM10 18C10.8833 18 11.7167 17.8707 12.5 17.612C13.2833 17.3533 14 16.9827 14.65 16.5C14 16.0167 13.2833 15.6457 12.5 15.387C11.7167 15.1283 10.8833 14.9993 10 15C9.11667 15 8.28333 15.1293 7.5 15.388C6.71667 15.6467 6 16.0173 5.35 16.5C6 16.9833 6.71667 17.3543 7.5 17.613C8.28333 17.8717 9.11667 18.0007 10 18ZM10 9C10.4333 9 10.7917 8.85833 11.075 8.575C11.3583 8.29167 11.5 7.93333 11.5 7.5C11.5 7.06667 11.3583 6.70833 11.075 6.425C10.7917 6.14167 10.4333 6 10 6C9.56667 6 9.20833 6.14167 8.925 6.425C8.64167 6.70833 8.5 7.06667 8.5 7.5C8.5 7.93333 8.64167 8.29167 8.925 8.575C9.20833 8.85833 9.56667 9 10 9Z" fill="#EE4433"/>
</svg>
